<svg xmlns="http://www.w3.org/2000/svg" width="3000" height="3000" fill="none" viewBox="0 0 3000 3000" id="PandaCookingwithspatula">
  <path fill="#167ffc" d="M1831.65 426.087C1831.65 426.087 1553.37 338.176 1736.66 145.238C1827.43 49.687 2035.53 168.165 2035.53 168.165C2035.53 168.165 2254.91 43.9981 2451.14 286.01C2507.76 372.89 2418.94 551.047 2418.94 551.047C2418.94 551.047 2418.65 711.08 2323.59 704.873C2228.52 698.666 2171.46 638.298 2171.46 638.298L1831.65 426.087Z" class="colorffffff svgShape"></path>
  <path fill="#474747" d="M2328.95 716.006C2326.95 716.006 2324.93 715.94 2322.87 715.805C2230.52 709.775 2173.11 655.516 2164.54 646.892L1826.98 436.086C1820.22 433.835 1790.19 423.31 1757.51 403.681C1708.32 374.132 1677 337.886 1666.93 298.863C1653.99 248.7 1674.78 194.474 1728.72 137.693C1751.36 113.857 1782.36 100.362 1820.86 97.583C1850.68 95.429 1885.07 99.715 1923.08 110.317C1976.08 125.1 2020.71 147.732 2035.67 155.747C2051.88 147.745 2101.97 126.051 2169.64 125.378C2217.35 124.905 2263.93 135.058 2308.04 155.563C2362.82 181.036 2413.83 222.603 2459.65 279.109C2459.89 279.403 2460.11 279.71 2460.32 280.027C2485.58 318.793 2487.78 377.324 2466.84 453.993C2453.36 503.359 2434.64 543.716 2429.86 553.648C2429.5 569.883 2425.54 654.75 2382.67 694.841C2367.64 708.899 2349.59 716.003 2328.95 716.004L2328.95 716.006ZM1836.27 118.952C1831.47 118.952 1826.8 119.118 1822.26 119.451C1789.46 121.853 1763.33 133.068 1744.6 152.784C1696.23 203.703 1677.23 250.993 1688.13 293.339C1709.13 374.879 1833.7 415.244 1834.95 415.642C1835.83 415.919 1836.67 416.308 1837.45 416.794L2177.26 629.005C2178.05 629.5 2178.78 630.093 2179.42 630.772C2179.54 630.903 2193.41 645.345 2218.21 660.289C2240.91 673.963 2277.73 690.901 2324.3 693.941C2341.44 695.062 2355.62 690.127 2367.68 678.863C2383.74 663.857 2395.81 637.279 2402.57 602.001C2407.86 574.42 2407.99 551.252 2407.99 551.022C2407.99 549.336 2408.39 547.668 2409.14 546.159C2409.99 544.438 2494.18 373.254 2442.27 292.457C2398.66 238.792 2350.39 199.42 2298.8 175.432C2258.6 156.742 2216.23 147.273 2172.83 147.273C2171.84 147.273 2170.85 147.278 2169.86 147.288C2094.19 148.041 2041.45 177.403 2040.93 177.699C2037.58 179.599 2033.47 179.595 2030.11 177.685C2029.6 177.395 1978.22 148.383 1916.81 131.316C1887.23 123.094 1860.21 118.951 1836.27 118.951L1836.27 118.952Z" class="color474747 svgShape"></path>
  <path fill="#f7f7f7" d="M2220.61 478.99C2220.61 478.99 2213.3 602.716 2173.86 657.931C2166.85 667.865 2158.82 675.606 2149.62 679.988C2088.85 709.057 1851.19 622.873 1820.07 466.866C1820.07 466.866 1845.93 346.062 2022.97 338.905C2200.01 331.601 2220.61 478.99 2220.61 478.99Z" class="colorf7f7f7 svgShape"></path>
  <path fill="#474747" d="M2117.66 696.552C2080.03 696.552 2028.1 682.402 1977.22 656.947C1936.09 636.367 1899.55 610.157 1871.56 581.152C1838.21 546.599 1817.28 508.868 1809.33 469.008C1809.04 467.543 1809.05 466.033 1809.36 464.572C1809.65 463.22 1816.8 431.07 1847.06 398.153C1864.67 379.005 1886.54 363.453 1912.07 351.932C1943.57 337.713 1980.73 329.647 2022.53 327.957C2064.7 326.218 2101.96 332.901 2133.25 347.822C2158.58 359.898 2180 377.313 2196.91 399.583C2225.58 437.36 2231.23 475.853 2231.46 477.473C2231.56 478.189 2231.59 478.913 2231.54 479.635C2231.24 484.816 2223.59 607.17 2182.78 664.299C2174.3 676.307 2164.72 684.931 2154.33 689.881C2144.91 694.385 2132.37 696.552 2117.66 696.552ZM1831.31 467.073C1838.49 500.097 1867.85 577.728 1987.03 637.351C2018.79 653.241 2052.73 665.142 2082.6 670.86C2110.16 676.134 2132.86 675.86 2144.89 670.106C2151.86 666.784 2158.6 660.565 2164.91 651.614C2200.1 602.359 2208.71 492.19 2209.59 479.527C2208.53 473.574 2202.02 442.18 2178.88 412.085C2164.08 392.822 2145.36 377.766 2123.26 367.335C2095.34 354.153 2061.75 348.272 2023.42 349.851C1984.81 351.412 1950.66 358.707 1921.9 371.535C1899.15 381.685 1879.69 395.322 1864.05 412.065C1844.09 433.427 1834.28 456.207 1831.31 467.074V467.073Z" class="color474747 svgShape"></path>
  <path fill="#dddddd" d="M2173.86 657.931C2166.85 667.865 2158.82 675.606 2149.62 679.988C2088.85 709.057 1851.19 622.873 1820.07 466.866C1840.23 462.483 1859.22 459.708 1877.33 458.54C2022.53 448.461 2105.06 533.476 2148.89 608.266C2159.26 625.94 2167.44 642.886 2173.86 657.931Z" class="colordddddd svgShape"></path>
  <path fill="#474747" d="M2117.66 696.552C2080.03 696.552 2028.1 682.402 1977.22 656.947C1936.09 636.366 1899.55 610.157 1871.56 581.152C1838.21 546.599 1817.28 508.869 1809.33 469.009C1808.16 463.148 1811.9 457.431 1817.74 456.161C1838.67 451.612 1857.93 448.814 1876.63 447.608C1944.43 442.898 2005.2 457.985 2057.18 492.447C2096.83 518.732 2130.86 555.836 2158.34 602.729C2167.75 618.768 2176.36 635.895 2183.94 653.628C2185.43 657.124 2185.01 661.143 2182.82 664.249C2174.3 676.308 2164.72 684.932 2154.33 689.881C2144.91 694.385 2132.38 696.553 2117.66 696.553L2117.66 696.552ZM1833.35 475.327C1843.46 511.767 1876.89 582.25 1987.03 637.351C2018.79 653.241 2052.73 665.142 2082.6 670.86C2110.16 676.135 2132.86 675.86 2144.89 670.105C2150.53 667.416 2156.02 662.828 2161.26 656.429C2154.68 641.614 2147.35 627.303 2139.44 613.81C2097.7 542.581 2018.49 459.728 1878.09 469.469C1863.74 470.396 1849.02 472.321 1833.35 475.327Z" class="color474747 svgShape"></path>
  <path fill="#474747" d="M2148.89 608.266C2062.7 622.581 1937.37 612.648 1877.33 458.54 2022.53 448.461 2105.06 533.476 2148.89 608.266ZM1940.12 363.814C1940.04 363.814 1939.96 363.814 1939.88 363.812 1937.61 363.763 1884.04 362.102 1858.91 318.334 1855.9 313.086 1857.72 306.391 1862.96 303.378 1868.21 300.367 1874.9 302.176 1877.92 307.425 1896.8 340.329 1939.95 341.893 1940.39 341.905 1946.42 342.072 1951.2 347.091 1951.05 353.127 1950.91 359.082 1946.05 363.813 1940.12 363.813V363.814ZM2294.95 544.395C2259.04 544.395 2237.91 527.726 2226.44 513.569 2213.83 498.012 2210.08 482.108 2209.93 481.439 2208.58 475.542 2212.26 469.665 2218.16 468.312 2224.05 466.963 2229.9 470.626 2231.27 476.498 2231.77 478.534 2243.01 522.483 2294.99 522.483 2295.6 522.483 2296.21 522.477 2296.83 522.465 2296.9 522.464 2296.97 522.463 2297.04 522.463 2303 522.463 2307.88 527.228 2307.99 533.204 2308.11 539.253 2303.31 544.254 2297.26 544.372 2296.48 544.387 2295.71 544.394 2294.95 544.394L2294.95 544.395ZM2164.4 228.34C2162.28 228.34 2160.15 227.731 2158.27 226.458 2100.98 187.705 2034.84 179.12 2034.18 179.038 2028.18 178.292 2023.92 172.819 2024.66 166.815 2025.41 160.811 2030.88 156.549 2036.89 157.294 2039.8 157.656 2108.95 166.641 2170.54 208.31 2175.56 211.7 2176.87 218.511 2173.48 223.523 2171.36 226.653 2167.91 228.341 2164.4 228.341V228.34ZM2403.16 417.481C2399 417.481 2395.03 415.105 2393.19 411.08 2371.53 363.731 2392.94 328.538 2393.86 327.063 2397.07 321.933 2403.83 320.372 2408.96 323.58 2414.07 326.774 2415.63 333.494 2412.48 338.617 2411.75 339.832 2396.58 365.823 2413.11 401.966 2415.63 407.468 2413.21 413.969 2407.71 416.486 2406.23 417.161 2404.68 417.481 2403.16 417.482L2403.16 417.481ZM2058.65 438.79C2057.51 438.79 2056.36 438.611 2055.22 438.234 2049.47 436.336 2046.35 430.139 2048.25 424.394L2061.69 383.719C2063.59 377.974 2069.79 374.858 2075.53 376.754 2081.28 378.652 2084.39 384.849 2082.5 390.594L2069.05 431.269C2067.53 435.873 2063.25 438.79 2058.65 438.79ZM2084.83 468.681C2083.8 468.681 2082.75 468.535 2081.72 468.228 2075.91 466.512 2072.6 460.417 2074.32 454.615L2089.47 403.415C2091.18 397.613 2097.28 394.299 2103.08 396.018 2108.88 397.734 2112.19 403.829 2110.48 409.631L2095.33 460.831C2093.92 465.596 2089.56 468.682 2084.83 468.682V468.681Z" class="color474747 svgShape"></path>
  <path fill="#167ffc" d="M2408.76 2185.46C2402.34 2187.79 2396.2 2189.84 2390.21 2191.44C2261.52 2226.21 2219.74 2090.21 2219.74 2090.21L2240.34 2365.13C2278.32 2440.5 2258.6 2550.93 2258.6 2550.93C2343.47 2747.11 2451.71 2783.48 2121.58 2805.1C1797.88 2826.43 1861.28 2629.96 1863.76 2622.51L1863.9 2622.22C1795.98 2685.47 1695.92 2674.95 1695.92 2674.95C1613.68 2784.65 1507.34 2824.82 1315.69 2796.19C1123.89 2767.56 1251.27 2543.05 1251.27 2543.05C1195.9 2476.58 1296.55 2250.31 1296.55 2250.31C1264.41 2210.73 1305.17 2143.53 1305.17 2143.53C1110.45 2313.71 889.295 2112.42 889.295 2112.42C886.227 2108.18 883.452 2104.09 880.676 2100C740.152 1889.22 966.275 1769.29 966.275 1769.29C966.275 1769.29 970.512 1771.63 978.399 1775.13C1020.18 1793.97 1163.48 1844.22 1296.55 1729.41C1364.62 1670.83 1445.25 1604.52 1542.25 1557.63C1549.7 1554.12 1557.29 1550.62 1564.89 1547.26C1674.3 1499.05 1804.01 1476.7 1959.14 1515.85C1980.18 1520.96 2001.65 1527.39 2023.56 1534.99C2055.85 1546.23 2086.81 1563.32 2116.03 1584.21C2205.43 1647.76 2278.02 1744.89 2317.32 1804.2C2337.91 1835.31 2349.45 1856.06 2349.45 1856.06C2643.8 1871.69 2552.06 2131.55 2408.76 2185.46H2408.76Z" class="colorffffff svgShape"></path>
  <path fill="#474747" d="M2074.6 2817.68C1975.93 2817.68 1908.12 2794.54 1872.71 2748.67C1846.3 2714.45 1844.29 2675.54 1847.15 2649.21C1821.46 2666.13 1790.52 2677.71 1756.14 2683.13C1731.22 2687.05 1710.87 2686.79 1701.06 2686.29C1657.69 2742.64 1609.65 2778.15 1550.28 2797.85C1487.22 2818.77 1412.16 2821.68 1314.07 2807.03C1262.9 2799.39 1228.23 2777.61 1211.02 2742.28C1194.45 2708.26 1194.7 2663.27 1211.77 2608.58C1221 2578.99 1232.68 2554.88 1238.35 2543.94C1217.53 2511.77 1218.95 2452.92 1242.6 2368.79C1257.68 2315.17 1277.13 2267.83 1284.02 2251.68C1269.12 2228.67 1272.03 2200.28 1278.68 2177.59C1241.58 2202.22 1201.54 2216.91 1159.19 2221.36C1114.95 2226.01 1068.27 2219.53 1020.46 2202.09C939.732 2172.63 884.243 2122.64 881.921 2120.52C881.365 2120.02 880.862 2119.46 880.422 2118.85C877.245 2114.46 874.38 2110.24 871.61 2106.15C828.577 2041.61 814.437 1978.63 829.533 1918.91C840.258 1876.48 866.425 1835.48 905.208 1800.34C934.301 1773.97 960.06 1760.19 961.142 1759.61C964.409 1757.88 968.33 1757.91 971.569 1759.7C971.598 1759.72 975.584 1761.89 982.849 1765.12C1022.26 1782.9 1160.67 1832.18 1289.39 1721.12C1357.94 1662.13 1439.28 1595.24 1537.48 1547.77C1537.51 1547.75 1537.55 1547.73 1537.58 1547.72C1546.14 1543.69 1553.62 1540.26 1560.46 1537.24C1620.41 1510.83 1682.07 1494.23 1743.75 1487.9C1814.23 1480.67 1887.6 1486.5 1961.82 1505.23C1982.53 1510.26 2004.54 1516.8 2027.15 1524.63C2058.72 1535.63 2090.76 1552.68 2122.4 1575.3C2215.15 1641.23 2290.06 1743.22 2326.45 1798.15C2341.22 1820.46 2351.32 1837.37 2356.02 1845.47C2415.34 1849.35 2462.53 1863.38 2496.33 1887.23C2527.65 1909.33 2547.15 1940.05 2552.72 1976.08C2559.12 2017.45 2547.35 2063.75 2519.6 2106.45C2492.79 2147.69 2453.79 2180.22 2412.62 2195.71C2412.58 2195.73 2412.54 2195.74 2412.5 2195.75C2404.95 2198.5 2398.77 2200.49 2393.05 2202.03C2321.21 2221.44 2274.82 2190.52 2248.55 2161.17C2243.38 2155.39 2238.78 2149.46 2234.73 2143.64L2251.1 2362.18C2285.76 2433.22 2272.98 2530.08 2269.93 2549.53C2286.78 2588.04 2304.83 2620.93 2319.41 2647.49C2347.86 2699.35 2366.66 2733.61 2351.57 2761.13C2334.38 2792.45 2278.67 2805.8 2122.3 2816.04C2105.67 2817.13 2089.77 2817.68 2074.6 2817.68L2074.6 2817.68ZM1873.96 2626.56C1871.84 2633.31 1855.37 2690.34 1890.06 2735.28C1905.97 2755.89 1930.56 2771.47 1963.16 2781.59C2003.65 2794.17 2056.7 2798.4 2120.86 2794.17C2237.65 2786.52 2318.31 2776.19 2332.36 2750.59C2341.67 2733.61 2324.27 2701.9 2300.2 2658.03C2285.03 2630.39 2266.16 2596.01 2248.54 2555.28C2247.69 2553.31 2247.44 2551.13 2247.81 2549.01C2248 2547.94 2266.41 2441.21 2230.55 2370.06C2229.91 2368.78 2229.52 2367.38 2229.41 2365.95L2208.82 2091.03C2208.4 2085.47 2212.23 2080.48 2217.71 2079.45C2223.19 2078.42 2228.58 2081.67 2230.22 2087C2230.31 2087.31 2240.52 2119.58 2265.34 2147.07C2297.5 2182.68 2338.55 2194.05 2387.35 2180.87C2392.45 2179.5 2398.05 2177.69 2404.97 2175.18C2441.84 2161.29 2476.92 2131.89 2501.23 2094.5C2525.68 2056.89 2536.56 2014.94 2531.07 1979.42C2520.74 1912.62 2456.04 1872.69 2348.88 1867C2345.11 1866.8 2341.72 1864.68 2339.88 1861.39C2339.77 1861.18 2328.27 1840.59 2308.19 1810.25C2272.64 1756.59 2199.57 1657.04 2109.68 1593.14C2079.72 1571.72 2049.54 1555.64 2019.96 1545.33C1998.02 1537.73 1976.69 1531.39 1956.56 1526.5C1884.73 1508.37 1813.92 1502.73 1745.99 1509.69C1686.59 1515.79 1627.15 1531.8 1569.31 1557.28C1562.66 1560.22 1555.34 1563.57 1546.97 1567.52C1451.17 1613.84 1371.17 1679.66 1303.7 1737.72C1235.82 1796.28 1165.43 1813.42 1106.32 1813.42C1044.8 1813.42 995.492 1794.86 973.897 1785.12C970.997 1783.83 968.552 1782.68 966.597 1781.74C958.106 1786.81 939.465 1798.78 919.442 1817.01C894.792 1839.44 862.863 1876.28 850.741 1924.42C837.287 1977.85 850.427 2034.87 889.793 2093.92C892.215 2097.49 894.757 2101.24 897.474 2105.03C904.508 2111.19 956.819 2155.69 1028.58 2181.72C1073.15 2197.89 1116.45 2203.89 1157.26 2199.53C1208.04 2194.11 1255.38 2172.5 1297.96 2135.28C1302.03 2131.73 1308.08 2131.67 1312.22 2135.15C1316.36 2138.62 1317.34 2144.59 1314.54 2149.21C1314.18 2149.81 1278.2 2210.32 1305.06 2243.41C1307.66 2246.61 1308.24 2251 1306.56 2254.76C1306.31 2255.32 1281.44 2311.55 1263.63 2374.94C1253.29 2411.79 1247.33 2443.76 1245.92 2469.96C1244.27 2500.85 1248.9 2523.08 1259.69 2536.03C1262.61 2539.54 1263.05 2544.49 1260.8 2548.45C1260.16 2549.59 1196.77 2663.05 1230.74 2732.72C1244.6 2761.14 1273.72 2778.85 1317.3 2785.36C1410.57 2799.29 1484.53 2796.57 1543.38 2777.05C1599.96 2758.28 1645.64 2723.75 1687.15 2668.38C1689.46 2665.29 1693.23 2663.65 1697.06 2664.06C1697.29 2664.08 1721.53 2666.48 1753.35 2661.38C1782.23 2656.76 1823.55 2644.83 1856.44 2614.2C1860.31 2610.59 1866.21 2610.27 1870.45 2613.44C1874.54 2616.48 1875.96 2621.92 1873.96 2626.56Z" class="color474747 svgShape"></path>
  <path fill="#167ffc" d="M2259.33 2546.26C2258.89 2549.33 2258.6 2550.93 2258.6 2550.93C2082.29 2517.34 1863.9 2622.22 1863.9 2622.22C1862.88 2623.09 1861.86 2624.12 1860.84 2624.85C1793.06 2685.18 1695.92 2674.95 1695.92 2674.95C1695.92 2674.95 1695.77 2674.8 1695.33 2674.51C1501.14 2542.84 1294.76 2541.82 1257.3 2542.81C1255.28 2542.91 1253.29 2542.93 1251.27 2543.04C1195.91 2476.58 1296.55 2250.31 1296.55 2250.31C1264.41 2210.72 1305.17 2143.53 1305.17 2143.53C1347.39 1901.78 1474.47 1669.08 1542.25 1557.63C1549.7 1554.12 1557.29 1550.61 1564.89 1547.25C1592.35 1535.13 1621.28 1524.61 1651.37 1516.43C1741.2 1491.75 1843.02 1486.49 1959.15 1515.85C1980.18 1520.96 2001.65 1527.39 2023.56 1534.98C2055.85 1546.23 2086.81 1563.32 2116.03 1584.21C2078.49 1653.3 2043.43 1706.91 2043.28 1767.24C2043.28 1780.68 2044.89 1794.27 2048.69 1808.58C2091.78 1948.08 2206.16 2041.86 2219.74 2090.21L2240.34 2365.13C2273.64 2431.3 2262.54 2524.49 2259.33 2546.26V2546.26Z" class="colorffffff svgShape"></path>
  <path fill="#474747" d="M1712.55 2686.57C1701.86 2686.57 1695.3 2685.9 1694.77 2685.85C1692.68 2685.62 1690.7 2684.81 1689.07 2683.5C1498.42 2554.32 1296.54 2552.74 1257.7 2553.76C1256.79 2553.81 1255.9 2553.83 1255 2553.86C1253.97 2553.89 1252.94 2553.92 1251.9 2553.98C1248.42 2554.18 1245.07 2552.73 1242.85 2550.06C1217.44 2519.55 1217.36 2458.57 1242.6 2368.79C1257.68 2315.17 1277.13 2267.83 1284.02 2251.68C1257.15 2210.16 1288.21 2151.13 1294.72 2139.71C1337.15 1899.33 1462.07 1668.39 1532.89 1551.93C1534 1550.1 1535.64 1548.63 1537.58 1547.71C1546.14 1543.69 1553.62 1540.26 1560.46 1537.24C1589.57 1524.38 1619.19 1513.83 1648.49 1505.86C1696.49 1492.67 1745.87 1485.62 1795.24 1484.92C1849.42 1484.14 1905.44 1490.97 1961.78 1505.21C1982.56 1510.27 2004.56 1516.8 2027.15 1524.63C2058.72 1535.63 2090.76 1552.68 2122.4 1575.3C2126.9 1578.52 2128.3 1584.58 2125.65 1589.44C2120.5 1598.93 2115.38 1608.14 2110.44 1617.04C2079.11 1673.45 2054.36 1718.01 2054.24 1767.27C2054.24 1780.32 2055.87 1792.86 2059.22 1805.56C2085.48 1890.4 2139.64 1959.12 2179.19 2009.31C2204.54 2041.49 2224.57 2066.91 2230.29 2087.25C2230.49 2087.95 2230.61 2088.67 2230.67 2089.4L2251.1 2362.18C2265.36 2391.43 2273.22 2428.37 2274.48 2472.03C2275.49 2507.2 2271.81 2536.71 2270.17 2547.81C2269.72 2550.99 2269.41 2552.71 2269.38 2552.89C2268.85 2555.77 2267.2 2558.32 2264.8 2559.97C2262.39 2561.62 2259.42 2562.24 2256.55 2561.7C2167.71 2544.77 2067.21 2564.7 1998.54 2584.4C1930.15 2604.02 1878.88 2627.32 1870.01 2631.46C1869.36 2632.04 1868.61 2632.7 1867.75 2633.36C1838.49 2659.26 1799.38 2676.54 1754.61 2683.35C1737.8 2685.91 1723.14 2686.57 1712.55 2686.57L1712.55 2686.57ZM1689.24 2683.61C1689.24 2683.61 1689.24 2683.62 1689.24 2683.62L1689.24 2683.61ZM1688.4 2682.92C1688.4 2682.92 1688.4 2682.92 1688.4 2682.92C1688.4 2682.92 1688.4 2682.92 1688.4 2682.92ZM1688.25 2682.77C1688.29 2682.82 1688.34 2682.86 1688.39 2682.91C1688.34 2682.86 1688.29 2682.82 1688.25 2682.77ZM1699.72 2664.25C1715.35 2665.23 1796.37 2667.56 1853.55 2616.66C1853.85 2616.4 1854.15 2616.16 1854.47 2615.93C1854.66 2615.79 1855.19 2615.32 1855.53 2615C1855.94 2614.63 1856.36 2614.26 1856.77 2613.9C1857.5 2613.28 1858.3 2612.75 1859.16 2612.34C1861.43 2611.25 1915.47 2585.47 1992.11 2563.45C2037.19 2550.49 2080.66 2541.6 2121.32 2537.01C2167.87 2531.76 2210.88 2532.16 2249.37 2538.21C2252.85 2510.53 2259.88 2428.32 2230.55 2370.05C2229.91 2368.77 2229.52 2367.37 2229.41 2365.94L2208.9 2092.2C2203.87 2076.03 2184.42 2051.36 2161.98 2022.87C2121.33 1971.29 2065.66 1900.64 2038.22 1811.81C2038.18 1811.67 2038.14 1811.53 2038.1 1811.39C2034.22 1796.75 2032.33 1782.31 2032.33 1767.24C2032.46 1712.31 2059.72 1663.23 2091.28 1606.4C2094.69 1600.26 2098.19 1593.98 2101.71 1587.57C2074.38 1568.92 2046.92 1554.72 2019.96 1545.33C1998.02 1537.72 1976.69 1531.38 1956.56 1526.49C1956.53 1526.48 1956.49 1526.48 1956.46 1526.47C1901.96 1512.69 1847.85 1506.09 1795.55 1506.83C1748.04 1507.5 1700.51 1514.29 1654.27 1526.99C1625.99 1534.68 1597.42 1544.87 1569.32 1557.28C1563.44 1559.87 1557.06 1562.78 1549.9 1566.14C1479.41 1682.46 1357.11 1909.81 1315.96 2145.41C1315.73 2146.76 1315.24 2148.05 1314.54 2149.21C1314.18 2149.81 1278.2 2210.32 1305.06 2243.4C1307.66 2246.61 1308.24 2250.99 1306.56 2254.76C1306.31 2255.32 1281.44 2311.54 1263.63 2374.94C1253.28 2411.79 1247.33 2443.76 1245.92 2469.96C1244.43 2497.76 1248.04 2518.56 1256.64 2531.88C1256.69 2531.87 1256.73 2531.87 1256.78 2531.87C1256.86 2531.87 1256.93 2531.86 1257.01 2531.86C1296.65 2530.81 1503.86 2532.29 1699.72 2664.25V2664.25Z" class="color474747 svgShape"></path>
  <path fill="#53d86a" d="M1820.05 2858.62C2322.24 2858.62 2729.34 2824.01 2729.34 2781.31C2729.34 2738.61 2322.24 2704 1820.05 2704C1317.87 2704 910.765 2738.61 910.765 2781.31C910.765 2824.01 1317.87 2858.62 1820.05 2858.62Z" class="color83c49f svgShape"></path>
  <path fill="#474747" d="M1820.05 2869.58C1576.87 2869.58 1348.2 2861.52 1176.16 2846.89C1092.24 2839.76 1026.27 2831.43 980.063 2822.14C923.061 2810.69 899.811 2798.85 899.811 2781.31C899.811 2763.76 923.061 2751.93 980.063 2740.48C1026.27 2731.19 1092.24 2722.86 1176.16 2715.73C1348.2 2701.1 1576.87 2693.04 1820.05 2693.04C2063.23 2693.04 2291.9 2701.1 2463.94 2715.73C2547.86 2722.86 2613.84 2731.19 2660.04 2740.48C2717.04 2751.93 2740.3 2763.76 2740.3 2781.31C2740.3 2798.85 2717.04 2810.69 2660.04 2822.14C2613.84 2831.43 2547.86 2839.76 2463.94 2846.89C2291.9 2861.52 2063.23 2869.58 1820.05 2869.58ZM923.01 2781.31C927.533 2784.85 943.546 2793.4 998.498 2803.35C1046.38 2812.02 1112.33 2819.79 1194.53 2826.43C1363.95 2840.12 1586.09 2847.67 1820.05 2847.67C2054.01 2847.67 2276.16 2840.12 2445.57 2826.43C2527.78 2819.79 2593.73 2812.02 2641.61 2803.35C2696.56 2793.4 2712.57 2784.85 2717.1 2781.31C2712.57 2777.77 2696.56 2769.22 2641.61 2759.27C2593.73 2750.6 2527.77 2742.83 2445.57 2736.19C2276.16 2722.49 2054.01 2714.95 1820.05 2714.95C1586.1 2714.95 1363.95 2722.49 1194.53 2736.19C1112.33 2742.83 1046.38 2750.6 998.498 2759.27C943.545 2769.22 927.532 2777.77 923.009 2781.31H923.01Z" class="color474747 svgShape"></path>
  <path fill="#167ffc" d="M2116.03 1584.21C2078.49 1653.31 2043.43 1706.92 2043.29 1767.24C1995.37 1752.64 1944.39 1734.52 1911.38 1715.83C1845.79 1678.72 1699.28 1603.2 1651.37 1516.43C1741.2 1491.75 1843.02 1486.49 1959.15 1515.85C1980.18 1520.96 2001.65 1527.39 2023.56 1534.99C2055.85 1546.23 2086.81 1563.32 2116.03 1584.21H2116.03Z" class="colorffffff svgShape"></path>
  <path fill="#474747" d="M2043.28 1778.2C2042.22 1778.2 2041.14 1778.04 2040.09 1777.72C1980.23 1759.47 1935.11 1741.86 1905.98 1725.36C1900.05 1722 1893.36 1718.28 1886.28 1714.34C1811.69 1672.83 1686.85 1603.35 1641.78 1521.73C1640.15 1518.79 1639.97 1515.27 1641.27 1512.18C1642.58 1509.08 1645.23 1506.76 1648.46 1505.87C1696.49 1492.67 1745.87 1485.62 1795.24 1484.92C1849.42 1484.14 1905.44 1490.98 1961.78 1505.21C1982.57 1510.27 2004.56 1516.8 2027.15 1524.63C2058.72 1535.63 2090.76 1552.68 2122.4 1575.3C2126.9 1578.52 2128.3 1584.58 2125.66 1589.44C2120.5 1598.93 2115.39 1608.14 2110.44 1617.04C2079.11 1673.45 2054.36 1718.01 2054.24 1767.27C2054.23 1770.74 2052.58 1774 2049.79 1776.06C2047.89 1777.47 2045.6 1778.2 2043.28 1778.2ZM1668.41 1523.31C1688.05 1552.56 1721.23 1583.77 1767.26 1616.27C1812.44 1648.17 1861.27 1675.35 1896.93 1695.19C1904.05 1699.15 1910.77 1702.9 1916.77 1706.29C1941.94 1720.55 1981.95 1736.47 2033 1752.59C2037.38 1703.45 2062.55 1658.14 2091.28 1606.41C2094.69 1600.26 2098.19 1593.98 2101.71 1587.57C2074.38 1568.92 2046.92 1554.73 2019.96 1545.33C1998.02 1537.73 1976.69 1531.39 1956.56 1526.5C1956.53 1526.49 1956.49 1526.48 1956.46 1526.47C1901.96 1512.69 1847.81 1506.1 1795.55 1506.83C1752.87 1507.44 1710.17 1512.98 1668.41 1523.31L1668.41 1523.31Z" class="color474747 svgShape"></path>
  <path fill="#dddddd" d="M2408.76 2185.46C2402.34 2187.79 2396.2 2189.84 2390.21 2191.45C2320.68 2131.26 2223.25 2003.3 2317.32 1804.2C2337.92 1835.32 2349.46 1856.06 2349.46 1856.06C2643.8 1871.69 2552.06 2131.55 2408.76 2185.46Z" class="colordddddd svgShape"></path>
  <path fill="#474747" d="M2390.21 2202.4C2387.61 2202.4 2385.06 2201.47 2383.04 2199.73C2312.87 2138.99 2209.74 2006.24 2307.42 1799.52C2309.1 1795.94 2312.59 1793.56 2316.54 1793.27C2320.49 1792.99 2324.27 1794.86 2326.46 1798.15C2341.23 1820.46 2351.32 1837.37 2356.02 1845.47C2415.34 1849.34 2462.53 1863.38 2496.33 1887.23C2527.65 1909.32 2547.15 1940.05 2552.72 1976.08C2559.12 2017.45 2547.35 2063.75 2519.6 2106.45C2492.79 2147.69 2453.8 2180.22 2412.62 2195.71C2412.58 2195.72 2412.54 2195.74 2412.51 2195.75C2404.95 2198.5 2398.77 2200.49 2393.05 2202.03C2392.11 2202.28 2391.16 2202.4 2390.21 2202.4ZM2319.09 1827.06C2286.02 1905.35 2280.54 1979.08 2302.82 2046.48C2322.84 2107.03 2361.99 2151.57 2392.94 2179.25C2396.54 2178.15 2400.47 2176.81 2404.96 2175.18C2441.84 2161.29 2476.92 2131.89 2501.23 2094.5C2525.68 2056.88 2536.56 2014.94 2531.07 1979.42C2520.74 1912.61 2456.04 1872.69 2348.88 1867C2345.11 1866.8 2341.72 1864.68 2339.88 1861.38C2339.79 1861.22 2332.38 1847.95 2319.09 1827.06Z" class="color474747 svgShape"></path>
  <path fill="#fe9526" d="M2358.17 1733.29L2367.62 2094.86L2441.94 2092.87L2432.56 1733.29H2358.17Z" class="colord89f4c svgShape"></path>
  <path fill="#474747" d="M2367.62 2105.81C2364.82 2105.81 2362.12 2104.74 2360.08 2102.81C2357.97 2100.8 2356.75 2098.05 2356.67 2095.14L2347.22 1733.57C2347.14 1730.62 2348.26 1727.76 2350.32 1725.64C2352.38 1723.52 2355.22 1722.33 2358.17 1722.33H2432.56C2438.5 1722.33 2443.36 1727.06 2443.51 1733L2452.9 2092.58C2453.05 2098.63 2448.28 2103.65 2442.24 2103.82L2367.92 2105.81C2367.82 2105.81 2367.72 2105.81 2367.62 2105.81L2367.62 2105.81ZM2369.42 1744.24L2378.29 2083.61L2430.71 2082.21L2421.88 1744.24H2369.42Z" class="color474747 svgShape"></path>
  <path fill="#474747" d="M2500.71 1997.21C2500.71 1997.21 2401.64 2030.33 2389.03 1960.59C2376.41 1890.86 2390.75 1861.4 2377.65 1843.51C2364.55 1825.62 2380.15 1729.81 2453.29 1747.77C2526.43 1765.72 2536.5 1908.18 2500.71 1997.21L2500.71 1997.21Z" class="color474747 svgShape"></path>
  <path fill="#474747" d="M2451.76 2016C2436.42 2016 2420.16 2013.42 2406.66 2005.43 2391.31 1996.34 2381.75 1981.91 2378.25 1962.55 2371.68 1926.24 2372.2 1900.57 2372.58 1881.82 2372.93 1864.28 2372.92 1855.59 2368.81 1849.98 2358.09 1835.34 2360.66 1794.45 2379.95 1765.63 2397.42 1739.52 2424.39 1729.39 2455.9 1737.13 2478.72 1742.73 2497.72 1759.21 2510.84 1784.8 2538.67 1839.05 2538.68 1932.13 2510.87 2001.3 2509.68 2004.28 2507.23 2006.58 2504.18 2007.6 2502.62 2008.12 2478.6 2016 2451.76 2016ZM2435.93 1756.5C2420.44 1756.5 2407.85 1763.53 2398.38 1777.49 2391.63 1787.44 2386.78 1800.86 2385.07 1814.31 2383.39 1827.47 2385.34 1835.43 2386.49 1837.04 2395.16 1848.88 2394.88 1862.88 2394.48 1882.27 2394.12 1900.09 2393.63 1924.5 2399.81 1958.64 2402.16 1971.64 2408.04 1980.77 2417.78 1986.55 2441.08 2000.37 2479.11 1991.87 2492.44 1988.23 2515.81 1925.83 2515.52 1841.93 2491.34 1794.8 2481.06 1774.75 2467.38 1762.51 2450.68 1758.41 2445.51 1757.14 2440.59 1756.5 2435.93 1756.5ZM1954.3 1515.85C1952.72 1517.31 1951.24 1519.05 1949.55 1520.38 1632.29 1769.29 1639.85 1611.3 1599.79 1531.11 1707.72 1482.9 1801.26 1476.7 1954.3 1515.85Z" class="color474747 svgShape"></path>
  <path fill="#474747" d="M1700.13 1665.74C1691.38 1665.74 1683.24 1664.66 1675.67 1662.51 1633.52 1650.55 1618.05 1608.49 1604.39 1571.38 1599.7 1558.62 1595.26 1546.56 1589.99 1536 1588.65 1533.33 1588.47 1530.23 1589.47 1527.42 1590.48 1524.6 1592.59 1522.32 1595.32 1521.1 1652.57 1495.54 1704.77 1482.4 1759.61 1479.78 1815.86 1477.08 1878.59 1485.17 1957.02 1505.23 1960.91 1506.23 1963.94 1509.27 1964.93 1513.17 1965.91 1517.06 1964.68 1521.18 1961.73 1523.9 1961.25 1524.34 1960.79 1524.82 1960.33 1525.29 1959.19 1526.44 1957.91 1527.74 1956.31 1529 1884.48 1585.35 1826.56 1623.22 1779.26 1644.77 1748.48 1658.79 1722.35 1665.74 1700.13 1665.74ZM1614.42 1536.68C1618.21 1545.47 1621.62 1554.75 1624.96 1563.82 1637.96 1599.15 1650.24 1632.52 1681.65 1641.43 1702.94 1647.48 1732.73 1641.89 1770.18 1624.83 1812.57 1605.52 1866.47 1570.71 1930.54 1521.28 1864.01 1505.57 1809.6 1499.32 1760.65 1501.67 1711.17 1504.04 1665.64 1514.89 1614.42 1536.68ZM2312.54 1909.8C2312.54 1909.8 2284.32 1784.67 2324.18 1780.47 2364.03 1776.26 2377.65 1866.92 2377.65 1866.92L2375.09 1960.6C2375.09 1960.6 2320.02 1955.36 2312.54 1909.8Z" class="color474747 svgShape"></path>
  <path fill="#474747" d="M2375.09 1971.55C2374.74 1971.55 2374.4 1971.53 2374.05 1971.5C2373.41 1971.44 2358.17 1969.92 2341.91 1962.17C2319.4 1951.45 2305.53 1934.07 2301.78 1911.89C2301.11 1908.88 2296.26 1886.49 2293.6 1860.62C2289.59 1821.64 2292.54 1795.85 2302.61 1781.8C2307.72 1774.67 2314.78 1770.44 2323.03 1769.57C2350.55 1766.68 2367.09 1794.43 2376.1 1818.24C2384.8 1841.21 2388.33 1864.32 2388.48 1865.3C2388.58 1865.93 2388.62 1866.58 2388.6 1867.22L2386.04 1960.9C2385.96 1963.93 2384.62 1966.79 2382.35 1968.8C2380.34 1970.58 2377.75 1971.55 2375.09 1971.55L2375.09 1971.55ZM2326.74 1791.29C2326.27 1791.29 2325.8 1791.31 2325.33 1791.36C2323.86 1791.52 2322.25 1792.01 2320.42 1794.57C2311.3 1807.29 2313.85 1843.29 2315.37 1858.17C2318.03 1884.14 2323.17 1907.16 2323.23 1907.39C2323.27 1907.6 2323.31 1907.81 2323.35 1908.02C2325.81 1922.99 2335.04 1934.47 2350.8 1942.14C2355.64 1944.49 2360.41 1946.14 2364.49 1947.28L2366.67 1867.61C2362.58 1841.68 2347.89 1791.29 2326.74 1791.29Z" class="color474747 svgShape"></path>
  <path fill="#dddddd" d="M978.401 1775.13C964.816 1901.78 905.364 2044.93 880.677 2100C740.153 1889.22 966.276 1769.29 966.276 1769.29C966.276 1769.29 970.514 1771.63 978.401 1775.13Z" class="colordddddd svgShape"></path>
  <path fill="#474747" d="M880.675 2110.96C877.033 2110.96 873.604 2109.14 871.561 2106.08 828.578 2041.6 814.438 1978.63 829.534 1918.9 840.259 1876.47 866.426 1835.47 905.208 1800.33 934.302 1773.97 960.061 1760.18 961.143 1759.61 964.41 1757.88 968.331 1757.91 971.57 1759.7 971.599 1759.71 975.585 1761.89 982.85 1765.12 987.197 1767.05 989.801 1771.57 989.293 1776.3 975.525 1904.66 915.739 2048.57 890.673 2104.48 889.042 2108.12 885.562 2110.59 881.588 2110.92 881.282 2110.95 880.978 2110.96 880.674 2110.96L880.675 2110.96ZM966.597 1781.73C958.106 1786.81 939.465 1798.78 919.441 1817.01 894.791 1839.44 862.863 1876.28 850.74 1924.42 838.603 1972.62 848.11 2023.75 878.992 2076.65 942.091 1930.9 961.012 1826.91 966.607 1781.74 966.604 1781.74 966.6 1781.74 966.597 1781.73ZM1438.1 807.585 1492.93 792.788 1686.76 740.618 1730.44 728.745C1730.44 728.745 1754.03 479.932 1529.63 512.266 1340.4 539.403 1438.1 807.585 1438.1 807.585Z" class="color474747 svgShape"></path>
  <path fill="#474747" d="M1433.53 816.382L1431.23 810.084C1430.66 808.519 1417.19 771.203 1409.96 722.539C1400.15 656.472 1406.58 603.94 1429.05 566.405C1449.52 532.22 1483.01 511.572 1528.59 505.035C1593.36 495.703 1644.49 508.385 1680.55 542.732C1708.77 569.613 1727.59 610.487 1734.99 660.934C1740.52 698.683 1737.83 728.196 1737.71 729.434L1737.23 734.467L1688.67 747.666L1494.82 799.841L1433.53 816.382ZM1567.86 516.683C1556.09 516.683 1543.68 517.619 1530.67 519.495C1489.66 525.376 1459.7 543.676 1441.6 573.887C1397.84 646.92 1433.38 769.586 1442.82 798.744L1491.02 785.737L1684.86 733.566L1723.5 723.064C1724 713.246 1724.52 689.993 1720.48 662.686C1715.63 629.884 1703.01 584.273 1670.43 553.269C1644.85 528.931 1610.45 516.685 1567.86 516.685L1567.86 516.683Z" class="color474747 svgShape"></path>
  <path fill="#f2c697" d="M1492.93 792.787L1686.76 740.617C1679.42 685.645 1653.09 580.098 1557.16 580.508C1485.54 589.524 1448.09 679.66 1492.93 792.787Z" class="colorf29797 svgShape"></path>
  <path fill="#474747" d="M1488.54 801.533 1486.14 795.479C1472.63 761.397 1465.92 728.391 1466.19 697.376 1466.45 668.291 1473.11 641.894 1485.44 621.04 1501.46 593.961 1526.6 576.994 1556.25 573.262L1556.69 573.207 1557.13 573.205C1557.33 573.205 1557.53 573.205 1557.73 573.205 1602.08 573.205 1636.98 594.363 1661.48 636.099 1681.48 670.176 1690.2 711.221 1694 739.653L1694.84 746.006 1488.54 801.533ZM1557.64 587.811C1532.41 591.117 1511.8 605.171 1498.02 628.477 1486.99 647.12 1481.04 670.99 1480.8 697.506 1480.56 724.798 1486.13 753.874 1497.38 784.025L1678.62 735.245C1674.6 708.629 1666.24 673.052 1648.89 643.492 1627.2 606.544 1596.52 587.811 1557.71 587.811H1557.64ZM2233.23 1061.13 2217.68 1006.51 2162.56 813.499 2150.24 769.94C2150.24 769.94 2351.36 621.565 2439.23 830.572 2513.43 1006.74 2233.23 1061.13 2233.23 1061.13Z" class="color474747 svgShape"></path>
  <path fill="#474747" d="M2228.04 1069.58L2210.65 1008.51L2155.54 815.504L2141.84 767.064L2145.9 764.063C2146.91 763.325 2170.81 745.815 2206.02 731.117C2253.07 711.474 2297.8 706.558 2335.38 716.902C2383.39 730.118 2420.6 767.41 2445.96 827.742C2463.83 870.174 2463.38 909.515 2444.62 944.667C2424.02 983.264 2382.3 1015.82 2320.62 1041.44C2275.18 1060.31 2236.26 1067.99 2234.62 1068.3L2228.04 1069.58ZM2158.69 772.965L2169.59 811.51L2224.7 1004.51L2238.38 1052.53C2268.23 1045.6 2391.68 1012.88 2431.75 937.765C2448.32 906.691 2448.57 871.58 2432.5 833.407C2408.97 777.435 2375.01 742.983 2331.56 731.001C2288.2 719.046 2242.61 731.717 2211.99 744.453C2186.51 755.055 2166.85 767.475 2158.69 772.965Z" class="color474747 svgShape"></path>
  <path fill="#f2c697" d="M2217.68 1006.51L2162.56 813.499C2213.46 791.473 2317.49 759.681 2366.55 842.121C2395.71 908.159 2337.74 986.683 2217.68 1006.52L2217.68 1006.51Z" class="colorf29797 svgShape"></path>
  <path fill="#474747" d="M2212.44 1014.78L2153.78 809.341L2159.66 806.796C2185.99 795.404 2225.66 781.739 2265.17 781.332C2313.82 780.835 2350 800.027 2372.83 838.386L2373.05 838.766L2373.23 839.171C2385.3 866.503 2383.71 896.797 2368.75 924.472C2357.23 945.785 2338.03 965.086 2313.23 980.287C2286.79 996.497 2255.04 1007.75 2218.87 1013.72L2212.44 1014.78L2212.44 1014.78ZM2171.36 817.709L2222.89 998.182C2254.53 992.294 2282.33 982.097 2305.59 967.832C2328.2 953.972 2345.59 936.576 2355.9 917.522C2368.77 893.704 2370.2 868.799 2360.04 845.472C2340.06 812.16 2308.18 795.505 2265.32 795.937C2231.05 796.29 2196.24 807.447 2171.36 817.708L2171.36 817.709Z" class="color474747 svgShape"></path>
  <path fill="#f7f7f7" d="M1396.97 938.812C1396.97 938.812 1073.6 1305.17 1543.75 1491.98C1543.75 1491.98 1600.86 1585.87 1701.63 1538.57C1701.63 1538.57 2200.46 1812.61 2294.78 1114.44C2294.78 1114.44 2433.9 791.818 1995.66 596.032C1744.37 492.969 1451.95 663.362 1396.97 938.812Z" class="colorf7f7f7 svgShape"></path>
  <path fill="#474747" d="M1914.26 1602.53C1882.4 1602.53 1849.22 1598.65 1815.34 1590.96C1757.94 1577.92 1715.32 1557.85 1701.28 1550.74C1647.07 1574.15 1604.97 1559.21 1578.91 1542.18C1555.98 1527.2 1541.62 1508.33 1536.49 1500.88C1393.46 1443.36 1308.73 1363.13 1284.64 1262.37C1275.43 1223.86 1275.26 1182.4 1284.11 1139.14C1291.14 1104.85 1303.82 1069.36 1321.83 1033.65C1348.65 980.456 1378.85 943.241 1386.8 933.838C1401.21 863.809 1430.52 799.332 1473.95 742.166C1515.55 687.422 1569.43 641.378 1629.78 609.011C1686.87 578.39 1747.5 560.513 1809.97 555.878C1875.52 551.014 1939.39 561.114 1999.81 585.897C1999.92 585.94 2000.02 585.984 2000.13 586.03C2101.61 631.369 2180.86 687.405 2235.66 752.581C2279.87 805.153 2308.35 863.706 2320.32 926.61C2339.49 1027.36 2310.26 1105.45 2305.45 1117.33C2273.48 1352.12 2192.47 1503.86 2064.65 1568.31C2025.01 1588.3 1980.9 1599.65 1933.55 1602.04C1927.18 1602.37 1920.74 1602.53 1914.26 1602.53ZM1701.63 1527.61C1703.45 1527.61 1705.27 1528.06 1706.91 1528.97C1707.37 1529.22 1754.42 1554.75 1820.86 1569.74C1859.62 1578.48 1897.32 1581.98 1932.91 1580.14C1977.07 1577.84 2018.12 1567.26 2054.92 1548.68C2109.96 1520.89 2156.5 1474.68 2193.24 1411.35C2236.81 1336.25 2267.32 1235.86 2283.93 1112.97C2284.06 1111.99 2284.33 1111.02 2284.72 1110.1C2285.05 1109.33 2318.12 1030.44 2298.59 929.607C2287.16 870.607 2260.18 815.587 2218.38 766.075C2165.77 703.748 2089.38 649.925 1991.34 606.104C1934.14 582.67 1873.66 573.125 1811.59 577.728C1753.03 582.073 1693.74 599.567 1640.13 628.319C1582.53 659.211 1531.1 703.162 1491.4 755.42C1449.41 810.691 1421.26 873.114 1407.71 940.955C1407.34 942.849 1406.47 944.609 1405.19 946.057C1404.84 946.448 1370.39 985.839 1341.13 1044.04C1324.07 1077.97 1312.09 1111.57 1305.5 1143.91C1297.36 1183.91 1297.52 1222.08 1305.98 1257.37C1328.53 1351.49 1409.88 1427 1547.79 1481.8C1550.01 1482.68 1551.87 1484.25 1553.11 1486.28C1553.23 1486.48 1566.83 1508.33 1591.53 1524.25C1623.64 1544.94 1659.12 1546.42 1696.98 1528.65C1698.45 1527.96 1700.04 1527.61 1701.63 1527.61V1527.61Z" class="color474747 svgShape"></path>
  <path fill="#474747" d="M1835.59 1206.86C1835.59 1206.86 2062.17 1266.82 2048.11 1168.37 2034.05 1069.93 1938.02 887.671 1870.05 942.301 1802.08 996.931 1730.89 1182.06 1835.59 1206.86ZM1486.15 1133.34C1486.15 1133.34 1320.97 1085.87 1377.2 1008.21 1468.32 882.365 1627.45 837.218 1632.2 921.539 1636.67 1001.02 1615.48 1187.29 1486.15 1133.34ZM1619.32 1182.71C1619.32 1182.71 1592.07 1142.7 1614.2 1139.33 1636.33 1135.96 1681.04 1144.65 1672.81 1162.7 1664.57 1180.75 1630.29 1203.45 1619.32 1182.71Z" class="color474747 svgShape"></path>
  <path fill="#474747" d="M1734.08 1337.22C1698.37 1337.23 1670.53 1326.41 1651.1 1304.95C1635.07 1287.23 1625.17 1262.03 1622.09 1231.39C1606.3 1259.88 1587.12 1277.32 1564.72 1283.45C1522.19 1295.09 1486.01 1260.99 1484.49 1259.53C1480.12 1255.34 1479.98 1248.4 1484.17 1244.04C1488.35 1239.68 1495.27 1239.53 1499.63 1243.69C1499.92 1243.97 1528.58 1270.71 1559.06 1262.28C1586.53 1254.68 1609.59 1220.05 1625.74 1162.15C1627.33 1156.44 1633.18 1153.02 1638.94 1154.46C1644.7 1155.9 1648.27 1161.66 1646.99 1167.45C1646.82 1168.25 1629.76 1248.79 1667.39 1290.3C1685.9 1310.71 1715.46 1318.69 1755.26 1314.01C1761.28 1313.3 1766.72 1317.6 1767.42 1323.61C1768.13 1329.62 1763.83 1335.06 1757.82 1335.77C1749.56 1336.74 1741.64 1337.23 1734.08 1337.23L1734.08 1337.22Z" class="color474747 svgShape"></path>
  <path fill="#f2c697" d="M1943 1278.41C1941.84 1292.12 1917.01 1301.22 1887.52 1298.73C1858.04 1296.25 1835.07 1283.12 1836.23 1269.42C1837.38 1255.71 1862.22 1246.61 1891.7 1249.09C1921.19 1251.58 1944.15 1264.7 1943 1278.41ZM1399.07 1125.21C1371.21 1115.22 1344.87 1117.62 1340.23 1130.57C1335.58 1143.52 1354.4 1162.11 1382.25 1172.1C1410.1 1182.09 1436.45 1179.69 1441.09 1166.74C1445.73 1153.79 1426.92 1135.2 1399.07 1125.21Z" class="colorf29797 svgShape"></path>
  <path fill="#f9f9f9" d="M1906.53 1114.11C1910.39 1081.7 1897.1 1053.47 1876.84 1051.05C1856.59 1048.64 1837.04 1072.97 1833.18 1105.38C1829.33 1137.8 1842.62 1166.03 1862.87 1168.44C1883.13 1170.85 1902.67 1146.53 1906.53 1114.11Z" class="colorf9f9f9 svgShape"></path>
  <path fill="#474747" d="M1891.81 1112.36C1894.12 1092.96 1886.16 1076.06 1874.04 1074.62C1861.92 1073.17 1850.22 1087.73 1847.91 1107.14C1845.6 1126.54 1853.55 1143.43 1865.68 1144.88C1877.8 1146.32 1889.5 1131.76 1891.81 1112.36Z" class="color474747 svgShape"></path>
  <path fill="#f9f9f9" d="M1888.6 1098.01C1894.22 1098.01 1898.78 1093.46 1898.78 1087.84 1898.78 1082.22 1894.22 1077.66 1888.6 1077.66 1882.98 1077.66 1878.43 1082.22 1878.43 1087.84 1878.43 1093.46 1882.98 1098.01 1888.6 1098.01ZM1595.26 1045.99C1604.86 1014.79 1596.83 984.63 1577.34 978.635 1557.84 972.64 1534.26 993.074 1524.66 1024.28 1515.07 1055.48 1523.09 1085.63 1542.59 1091.63 1562.09 1097.62 1585.67 1077.19 1595.26 1045.99Z" class="colorf9f9f9 svgShape"></path>
  <path fill="#474747" d="M1581.09 1041.63C1586.84 1022.95 1582.03 1004.91 1570.36 1001.32C1558.69 997.729 1544.58 1009.96 1538.83 1028.63C1533.09 1047.31 1537.9 1065.36 1549.56 1068.95C1561.23 1072.54 1575.35 1060.31 1581.09 1041.63Z" class="color474747 svgShape"></path>
  <path fill="#f9f9f9" d="M1582.32 1027.1C1587.94 1027.1 1592.5 1022.55 1592.5 1016.93C1592.5 1011.31 1587.94 1006.75 1582.32 1006.75C1576.7 1006.75 1572.15 1011.31 1572.15 1016.93C1572.15 1022.55 1576.7 1027.1 1582.32 1027.1Z" class="colorf9f9f9 svgShape"></path>
  <path fill="#474747" d="M940.957 1825.82C940.957 1825.82 854.994 1793.67 858.703 1754.67C862.413 1715.67 851.472 1680.27 894.597 1685.66C937.722 1691.05 940.956 1825.82 940.956 1825.82L940.957 1825.82Z" class="color474747 svgShape"></path>
  <path fill="#474747" d="M940.956 1836.77C939.663 1836.77 938.364 1836.55 937.119 1836.08 936.201 1835.74 914.387 1827.52 892.706 1814.2 860.939 1794.69 845.829 1774.31 847.797 1753.63 848.537 1745.85 848.663 1738.14 848.785 1730.69 849.103 1711.26 849.404 1692.9 861.818 1682.12 869.674 1675.3 880.842 1672.9 895.956 1674.79 919.471 1677.73 935.425 1704.24 944.73 1755.82 951.007 1790.62 951.875 1824.15 951.909 1825.56 951.996 1829.19 950.272 1832.64 947.308 1834.75 945.427 1836.08 943.202 1836.77 940.956 1836.77ZM886.501 1696.07C882.416 1696.07 878.453 1696.69 876.184 1698.67 871.152 1703.03 870.93 1716.64 870.693 1731.05 870.57 1738.56 870.431 1747.07 869.609 1755.7 867.804 1774.68 902.519 1796.43 929.095 1808.88 928.193 1796.11 926.445 1777.81 923.128 1759.49 916.258 1721.55 905.085 1698.01 893.238 1696.53 891.141 1696.27 888.801 1696.07 886.501 1696.07ZM2125.67 2794.29C1826.22 2824.09 1853.53 2655.38 1860.84 2624.85 1861.86 2624.12 1862.88 2623.09 1863.91 2622.22 1863.91 2622.22 2082.29 2517.34 2258.6 2550.94 2258.6 2550.94 2258.89 2549.33 2259.33 2546.26 2349.46 2730.17 2448.79 2762.3 2125.67 2794.29Z" class="color474747 svgShape"></path>
  <path fill="#474747" d="M2059.45 2808.76C1973.25 2808.76 1912.15 2788.68 1877.33 2748.78 1835.52 2700.89 1845.98 2639.86 1850.18 2622.3 1850.8 2619.73 1852.32 2617.47 1854.47 2615.93 1854.66 2615.79 1855.19 2615.32 1855.53 2615 1855.94 2614.63 1856.36 2614.26 1856.77 2613.9 1857.5 2613.28 1858.3 2612.76 1859.16 2612.34 1861.42 2611.26 1915.47 2585.47 1992.11 2563.45 2037.19 2550.49 2080.66 2541.6 2121.32 2537.01 2168.74 2531.66 2212.5 2532.18 2251.53 2538.56 2253.14 2536.94 2255.25 2535.81 2257.62 2535.44 2262.37 2534.69 2267.05 2537.12 2269.17 2541.44 2286.11 2576.01 2303.15 2604.77 2318.19 2630.14 2348.34 2681.04 2368.27 2714.67 2354.09 2742.68 2337.95 2774.57 2282.71 2789.76 2126.75 2805.2 2102.85 2807.58 2080.4 2808.76 2059.45 2808.76L2059.45 2808.76ZM1870.66 2631.15C1866.85 2649.74 1861.42 2697.23 1893.83 2734.38 1910.79 2753.8 1936.03 2768.04 1968.87 2776.7 2009.42 2787.39 2061.81 2789.64 2124.58 2783.39 2124.59 2783.39 2124.59 2783.39 2124.59 2783.39 2241.07 2771.86 2321.35 2758.84 2334.54 2732.78 2343.29 2715.5 2324.85 2684.38 2299.33 2641.32 2285.59 2618.12 2270.19 2592.13 2254.6 2561.33 2205.29 2552.27 2121.31 2549.18 1998.54 2584.4 1931.67 2603.58 1881.17 2626.29 1870.66 2631.15ZM1695.92 2674.95C1613.68 2784.65 1507.34 2824.82 1315.69 2796.19 1123.89 2767.56 1251.27 2543.05 1251.27 2543.05 1251.27 2543.05 1480.75 2529.02 1695.33 2674.51 1695.77 2674.81 1695.92 2674.95 1695.92 2674.95Z" class="color474747 svgShape"></path>
  <path fill="#474747" d="M1425.05 2816.16C1391.49 2816.16 1354.77 2813.11 1314.07 2807.03C1262.9 2799.39 1228.23 2777.61 1211.03 2742.28C1172.03 2662.22 1238.87 2542.69 1241.74 2537.64C1243.57 2534.42 1246.9 2532.34 1250.6 2532.11C1252.99 2531.97 1310.23 2528.7 1394.71 2543.43C1444.25 2552.07 1492.87 2565.15 1539.23 2582.32C1597.22 2603.8 1651.81 2631.77 1701.48 2665.45C1702.31 2666 1703.02 2666.57 1703.61 2667.15C1707.51 2671 1707.97 2677.14 1704.69 2681.52C1660.37 2740.64 1611.3 2777.6 1550.28 2797.85C1513.39 2810.08 1472.37 2816.16 1425.05 2816.16L1425.05 2816.16ZM1257.96 2553.77C1245.92 2577.07 1200.98 2671.69 1230.74 2732.72C1244.6 2761.14 1273.72 2778.85 1317.3 2785.36C1410.57 2799.29 1484.52 2796.58 1543.38 2777.05C1596.77 2759.34 1640.47 2727.58 1680.11 2677.53C1634.43 2647.59 1584.68 2622.56 1532.04 2603.02C1487.02 2586.32 1439.78 2573.57 1391.64 2565.13C1324.87 2553.43 1274.7 2553.36 1257.96 2553.77ZM1689.23 2683.61C1689.23 2683.61 1689.24 2683.62 1689.24 2683.62C1689.24 2683.61 1689.24 2683.62 1689.23 2683.61Z" class="color474747 svgShape"></path>
  <path fill="#fe9526" d="M959.188 1975.76C959.188 1975.76 1011.16 1934.28 1008.27 1907.98L773.845 1689.36C773.845 1689.36 730.195 1714.85 723.067 1741.9C721.793 1746.74 721.686 1751.62 723.203 1756.42C733.21 1788.08 959.189 1975.76 959.189 1975.76H959.188Z" class="colord89f4c svgShape"></path>
  <path fill="#474747" d="M959.188 1986.72C956.701 1986.72 954.215 1985.87 952.188 1984.19C951.622 1983.72 894.909 1936.58 837.705 1886.18C733.315 1794.21 716.095 1770.29 712.756 1759.73C710.688 1753.18 710.592 1746.25 712.472 1739.11C720.523 1708.55 763.452 1682.74 768.321 1679.9C772.499 1677.46 777.779 1678.05 781.317 1681.35L1015.74 1899.97C1017.66 1901.76 1018.87 1904.18 1019.16 1906.78C1020.74 1921.19 1012.14 1938.32 992.856 1959.17C979.812 1973.28 966.579 1983.88 966.022 1984.32C964.022 1985.92 961.604 1986.72 959.189 1986.72H959.188ZM772.579 1703.16C768.605 1705.84 763.31 1709.62 757.869 1714.13C744.537 1725.19 735.94 1736.04 733.661 1744.69C732.842 1747.8 732.838 1750.56 733.649 1753.12C734.113 1754.53 738.159 1763.26 772.206 1796.46C792.081 1815.84 819.067 1840.56 852.412 1869.94C897.535 1909.69 942.3 1947.36 959.169 1961.47C975.727 1946.93 994.991 1925.58 997.224 1912.66L772.579 1703.16Z" class="color474747 svgShape"></path>
  <path fill="#474747" d="M933.425 1962.35L909.691 2025.27C909.691 2025.27 835.525 2011.56 832.717 1962.35C832.717 1962.35 681.417 1893.22 699.218 1801.47C699.218 1801.47 756.592 1747.81 799.773 1757.62C842.954 1767.43 825.597 1804.26 825.597 1804.26C825.597 1804.26 860.269 1815.85 858.027 1839.7C855.785 1863.55 895.425 1862.22 893.394 1895.77C891.363 1929.32 899.772 1934.65 899.772 1934.65L933.425 1962.35Z" class="color474747 svgShape"></path>
  <path fill="#474747" d="M909.698 2036.23C909.037 2036.23 908.369 2036.17 907.7 2036.05C904.461 2035.45 831.239 2021.31 822.523 1969.61C793.932 1955.45 671.09 1888.93 688.464 1799.38C688.903 1797.11 690.049 1795.04 691.735 1793.46C692.354 1792.89 707.112 1779.16 727.548 1766.54C756.277 1748.81 781.395 1742.21 802.201 1746.94C818.963 1750.75 830.376 1758.66 836.125 1770.46C840.989 1780.44 840.498 1790.7 838.962 1798.14C851.462 1804.51 871.054 1818.19 868.935 1840.73C868.546 1844.87 870.901 1847.19 879.801 1853.59C890.151 1861.04 905.791 1872.29 904.33 1896.43C903.033 1917.86 906.38 1925.16 907.148 1926.53L940.389 1953.9C944.01 1956.88 945.331 1961.83 943.676 1966.22L919.942 2029.14C918.311 2033.46 914.183 2036.23 909.698 2036.23ZM709.392 1807.03C706.988 1824.14 711.205 1841.83 721.952 1859.66C731.625 1875.71 746.505 1891.91 766.177 1907.8C800.308 1935.36 836.906 1952.22 837.272 1952.39C840.967 1954.08 843.425 1957.67 843.657 1961.73C845.423 1992.69 884.851 2007.27 902.865 2012.33L920.407 1965.83L893.096 1943.34C887.904 1939.47 880.459 1928.15 882.459 1895.11C883.156 1883.59 877.342 1878.82 867.004 1871.38C857.929 1864.85 845.5 1855.91 847.119 1838.68C848.273 1826.4 828.953 1816.97 822.095 1814.64C819.142 1813.63 816.743 1811.41 815.526 1808.54C814.308 1805.67 814.358 1802.41 815.688 1799.59C815.707 1799.54 820.622 1788.51 816.382 1779.96C813.661 1774.48 807.257 1770.56 797.346 1768.31C768.341 1761.71 726.403 1792.03 709.392 1807.03V1807.03ZM905.677 1925.42C905.677 1925.42 905.678 1925.42 905.679 1925.42C905.679 1925.42 905.679 1925.42 905.677 1925.42ZM905.656 1925.4C905.656 1925.4 905.664 1925.41 905.668 1925.41C905.664 1925.41 905.66 1925.41 905.656 1925.4Z" class="color474747 svgShape"></path>
  <path fill="#595bd4" d="M2079.45 2776.15C2073.53 2776.15 2068.66 2771.43 2068.5 2765.48 2067.3 2718.83 2047.33 2699.29 2046.48 2698.48L2046.56 2698.55 2061.35 2682.39C2062.48 2683.42 2088.95 2708.28 2090.41 2764.91 2090.56 2770.96 2085.78 2775.99 2079.74 2776.15 2079.64 2776.15 2079.54 2776.15 2079.45 2776.15ZM1383.99 2767.38C1383.89 2767.38 1383.8 2767.38 1383.7 2767.38 1377.65 2767.22 1372.88 2762.19 1373.03 2756.15 1374.49 2699.51 1400.96 2674.65 1402.09 2673.62L1416.88 2689.79 1416.96 2689.71C1416.11 2690.52 1396.14 2710.06 1394.94 2756.71 1394.78 2762.66 1389.91 2767.38 1383.99 2767.38ZM2199.51 2763.1C2193.59 2763.1 2188.72 2758.38 2188.56 2752.43 2187.36 2705.76 2166.83 2685.7 2166.62 2685.51 2162.16 2681.42 2161.85 2674.49 2165.93 2670.03 2170.02 2665.57 2176.95 2665.26 2181.41 2669.34 2182.54 2670.37 2209.01 2695.23 2210.47 2751.86 2210.62 2757.91 2205.85 2762.94 2199.8 2763.1 2199.7 2763.1 2199.61 2763.1 2199.51 2763.1L2199.51 2763.1ZM2291.17 2759.33C2285.26 2759.33 2280.38 2754.6 2280.23 2748.65 2279.03 2701.98 2258.49 2681.92 2258.29 2681.73 2253.82 2677.64 2253.52 2670.71 2257.6 2666.25 2261.69 2661.79 2268.61 2661.48 2273.08 2665.56 2274.2 2666.59 2300.68 2691.45 2302.13 2748.09 2302.29 2754.13 2297.51 2759.16 2291.46 2759.32 2291.37 2759.32 2291.27 2759.32 2291.18 2759.32L2291.17 2759.33ZM1289.11 2750.95C1289.01 2750.95 1288.92 2750.95 1288.82 2750.94 1282.77 2750.79 1277.99 2745.76 1278.15 2739.71 1279.61 2683.07 1306.08 2658.22 1307.21 2657.19L1322 2673.35 1322.07 2673.28C1321.22 2674.09 1301.26 2693.62 1300.05 2740.27 1299.9 2746.23 1295.03 2750.95 1289.11 2750.95ZM1733.4 2451.72C1719.44 2451.72 1704.54 2449.99 1688.72 2446.52 1650.91 2438.22 1607.66 2419.94 1560.18 2392.16 1480.06 2345.3 1416.18 2288.3 1413.5 2285.9 1408.99 2281.86 1408.61 2274.93 1412.65 2270.43 1416.69 2265.92 1423.62 2265.55 1428.12 2269.58 1428.77 2270.16 1493.26 2327.68 1571.5 2373.4 1641.63 2414.38 1737.44 2454.19 1795.63 2411.14 1917.42 2321.05 2048.57 2268.09 2049.89 2267.57 2055.5 2265.33 2061.88 2268.05 2064.13 2273.67 2066.37 2279.29 2063.64 2285.66 2058.03 2287.91 2056.74 2288.43 1928.1 2340.4 1808.67 2428.75 1787.99 2444.05 1762.78 2451.72 1733.4 2451.72H1733.4Z" class="color848484 svgShape"></path>
  <path fill="#595bd4" d="M1751.58 2345.94C1733.21 2345.94 1713.53 2345.19 1692.55 2343.69C1620.34 2338.53 1558.38 2325.94 1557.76 2325.81C1551.84 2324.59 1548.02 2318.8 1549.23 2312.88C1550.45 2306.95 1556.24 2303.13 1562.17 2304.34C1562.77 2304.47 1623.53 2316.81 1694.35 2321.85C1786.46 2328.41 1853.58 2319.86 1888.46 2297.13C1893.53 2293.83 1900.32 2295.26 1903.62 2300.33C1906.93 2305.4 1905.49 2312.19 1900.43 2315.49C1869.34 2335.74 1819.41 2345.93 1751.58 2345.93L1751.58 2345.94Z" class="color848484 svgShape"></path>
  <path fill="#f7f7f7" d="M1772.01 1733.29C1784.62 1733.29 1794.85 1723.06 1794.85 1710.45C1794.85 1697.84 1784.62 1687.62 1772.01 1687.62C1759.4 1687.62 1749.18 1697.84 1749.18 1710.45C1749.18 1723.06 1759.4 1733.29 1772.01 1733.29Z" class="colorf7f7f7 svgShape"></path>
  <path fill="#474747" d="M1772.01 1744.24C1753.38 1744.24 1738.22 1729.08 1738.22 1710.45C1738.22 1691.82 1753.38 1676.66 1772.01 1676.66C1790.64 1676.66 1805.8 1691.82 1805.8 1710.45C1805.8 1729.08 1790.64 1744.24 1772.01 1744.24ZM1772.01 1698.58C1765.46 1698.58 1760.14 1703.9 1760.14 1710.45C1760.14 1717 1765.46 1722.33 1772.01 1722.33C1778.56 1722.33 1783.89 1717 1783.89 1710.45C1783.89 1703.9 1778.56 1698.58 1772.01 1698.58Z" class="color474747 svgShape"></path>
  <path fill="#f7f7f7" d="M1989.19 1851.86C2001.8 1851.86 2012.02 1841.63 2012.02 1829.02C2012.02 1816.41 2001.8 1806.19 1989.19 1806.19C1976.57 1806.19 1966.35 1816.41 1966.35 1829.02C1966.35 1841.63 1976.57 1851.86 1989.19 1851.86Z" class="colorf7f7f7 svgShape"></path>
  <path fill="#474747" d="M1989.19 1862.81C1970.55 1862.81 1955.4 1847.65 1955.4 1829.02C1955.4 1810.39 1970.55 1795.23 1989.19 1795.23C2007.82 1795.23 2022.97 1810.39 2022.97 1829.02C2022.97 1847.65 2007.82 1862.81 1989.19 1862.81ZM1989.19 1817.14C1982.64 1817.14 1977.31 1822.47 1977.31 1829.02C1977.31 1835.57 1982.64 1840.9 1989.19 1840.9C1995.73 1840.9 2001.06 1835.57 2001.06 1829.02C2001.06 1822.47 1995.74 1817.14 1989.19 1817.14Z" class="color474747 svgShape"></path>
  <path fill="#f7f7f7" d="M2381.64 1733.29L2367.12 1567.49H2412.45L2408.79 1733.29H2381.64Z" class="colorf7f7f7 svgShape"></path>
  <path fill="#474747" d="M2408.79 1744.24H2381.64C2375.96 1744.24 2371.22 1739.9 2370.72 1734.24L2356.21 1568.45C2355.94 1565.39 2356.97 1562.35 2359.05 1560.09C2361.12 1557.83 2364.05 1556.54 2367.12 1556.54H2412.45C2415.4 1556.54 2418.22 1557.72 2420.29 1559.83C2422.35 1561.94 2423.47 1564.79 2423.41 1567.73L2419.74 1733.53C2419.61 1739.48 2414.75 1744.24 2408.79 1744.24ZM2391.68 1722.33H2398.07L2401.25 1578.45H2379.08L2391.68 1722.33Z" class="color474747 svgShape"></path>
  <path fill="#f7f7f7" d="M2215.14 1190.97C2215.14 1190.97 2219.12 1441.99 2279.85 1514.58L2367.12 1567.49H2412.45C2412.45 1567.49 2506 1533.6 2531.2 1495.81C2531.2 1495.81 2566.12 1309.61 2543.45 1189.91C2543.45 1189.91 2427.91 1121.78 2215.14 1190.97Z" class="colorf7f7f7 svgShape"></path>
  <path fill="#474747" d="M2412.45 1578.45H2367.12C2365.12 1578.45 2363.16 1577.9 2361.44 1576.86L2274.17 1523.95C2273.14 1523.32 2272.22 1522.53 2271.44 1521.61C2208.94 1446.9 2204.35 1201.55 2204.19 1191.15C2204.11 1186.34 2207.18 1182.04 2211.75 1180.55C2323.7 1144.15 2408.93 1145.84 2460.72 1153.66C2517.64 1162.26 2547.76 1179.74 2549.01 1180.47C2551.73 1182.08 2553.62 1184.77 2554.21 1187.87C2563.8 1238.53 2564.65 1306.13 2556.73 1388.79C2550.85 1450.09 2542.05 1497.36 2541.96 1497.83C2541.69 1499.28 2541.13 1500.66 2540.31 1501.89C2528.79 1519.17 2504.21 1537.25 2467.25 1555.63C2440.47 1568.95 2417.16 1577.44 2416.18 1577.79C2414.99 1578.22 2413.72 1578.45 2412.45 1578.45ZM2370.18 1556.54H2410.51C2436.39 1546.94 2500.72 1518.81 2520.84 1491.5C2524.63 1470.2 2552.47 1306.42 2533.62 1197.15C2523.87 1192.42 2497.5 1181.22 2456.05 1175.12C2408.02 1168.05 2329.59 1166.62 2226.3 1198.91C2226.88 1218.09 2228.96 1268.8 2235.62 1324.44C2246.43 1414.75 2264.22 1477.5 2287.14 1506.18L2370.18 1556.54Z" class="color474747 svgShape"></path>
  <path fill="#f7f7f7" d="M2407.1 1236.5C2406.72 1225.09 2397.17 1216.15 2385.76 1216.53C2374.36 1216.91 2365.42 1226.47 2365.8 1237.87L2372.5 1439.17C2372.88 1450.57 2382.43 1459.51 2393.83 1459.13C2405.24 1458.75 2414.18 1449.2 2413.8 1437.79L2407.1 1236.5Z" class="colorf7f7f7 svgShape"></path>
  <path fill="#474747" d="M2393.11 1470.12C2385.06 1470.12 2377.44 1467.11 2371.53 1461.59C2365.37 1455.82 2361.82 1447.99 2361.54 1439.55L2354.84 1238.26C2354.56 1229.82 2357.58 1221.77 2363.35 1215.6C2369.12 1209.44 2376.95 1205.88 2385.39 1205.6C2393.84 1205.33 2401.88 1208.35 2408.04 1214.12C2414.21 1219.89 2417.76 1227.71 2418.04 1236.15L2424.74 1437.45C2425.32 1454.87 2411.61 1469.52 2394.19 1470.1C2393.83 1470.11 2393.47 1470.12 2393.11 1470.12ZM2386.45 1227.5C2386.34 1227.5 2386.23 1227.5 2386.12 1227.5C2383.52 1227.59 2381.12 1228.68 2379.35 1230.57C2377.58 1232.47 2376.65 1234.94 2376.74 1237.53L2383.43 1438.82C2383.52 1441.42 2384.61 1443.82 2386.5 1445.59C2388.4 1447.36 2390.85 1448.29 2393.46 1448.2C2398.81 1448.03 2403.02 1443.53 2402.84 1438.18L2396.14 1236.88C2396.06 1234.29 2394.96 1231.89 2393.07 1230.12C2391.26 1228.42 2388.92 1227.5 2386.45 1227.5Z" class="color474747 svgShape"></path>
  <path fill="#f7f7f7" d="M2297.02 1243.98C2294.88 1232.76 2284.07 1225.41 2272.86 1227.54C2261.64 1229.67 2254.29 1240.49 2256.42 1251.7L2294.05 1449.56C2296.19 1460.77 2307 1468.13 2318.21 1466C2329.43 1463.86 2336.79 1453.05 2334.65 1441.84L2297.02 1243.98Z" class="colorf7f7f7 svgShape"></path>
  <path fill="#474747" d="M2314.28 1477.34C2308 1477.34 2301.87 1475.46 2296.56 1471.85C2289.58 1467.1 2284.87 1459.91 2283.29 1451.62L2245.65 1253.76C2244.07 1245.46 2245.82 1237.04 2250.57 1230.06C2255.32 1223.08 2262.51 1218.36 2270.8 1216.79C2287.94 1213.53 2304.52 1224.81 2307.77 1241.94L2345.41 1439.8C2346.99 1448.1 2345.24 1456.51 2340.49 1463.49C2335.74 1470.48 2328.56 1475.19 2320.26 1476.77C2318.27 1477.15 2316.27 1477.34 2314.28 1477.34ZM2276.72 1238.14C2276.12 1238.14 2275.51 1238.19 2274.9 1238.31C2272.35 1238.79 2270.15 1240.24 2268.69 1242.39C2267.23 1244.53 2266.69 1247.11 2267.18 1249.66L2304.81 1447.52C2305.3 1450.07 2306.75 1452.27 2308.89 1453.73C2311.03 1455.19 2313.62 1455.73 2316.16 1455.24C2318.71 1454.76 2320.92 1453.31 2322.38 1451.17C2323.83 1449.02 2324.37 1446.44 2323.89 1443.89L2286.25 1246.03C2285.37 1241.38 2281.28 1238.14 2276.72 1238.14Z" class="color474747 svgShape"></path>
  <path fill="#f7f7f7" d="M2514.2 1243.59C2515.47 1232.25 2507.32 1222.02 2495.98 1220.74C2484.64 1219.46 2474.41 1227.62 2473.13 1238.96L2450.55 1439.1C2449.27 1450.44 2457.43 1460.67 2468.77 1461.95C2480.11 1463.23 2490.34 1455.07 2491.61 1443.73L2514.2 1243.59Z" class="colorf7f7f7 svgShape"></path>
  <path fill="#474747" d="M2471.16 1473.02C2469.96 1473.02 2468.76 1472.95 2467.55 1472.82C2450.23 1470.86 2437.72 1455.18 2439.67 1437.85L2462.25 1237.71C2463.2 1229.32 2467.36 1221.8 2473.96 1216.54C2480.57 1211.27 2488.82 1208.9 2497.22 1209.84C2505.61 1210.79 2513.13 1214.94 2518.4 1221.55C2523.66 1228.15 2526.04 1236.41 2525.09 1244.8L2502.51 1444.94C2501.57 1453.34 2497.41 1460.86 2490.8 1466.12C2485.15 1470.63 2478.28 1473.02 2471.16 1473.02L2471.16 1473.02ZM2493.65 1231.55C2491.47 1231.55 2489.36 1232.28 2487.62 1233.67C2485.59 1235.29 2484.31 1237.59 2484.02 1240.17L2461.45 1440.31C2461.16 1442.89 2461.89 1445.42 2463.5 1447.45C2465.12 1449.48 2467.43 1450.75 2470.01 1451.05C2472.58 1451.34 2475.12 1450.61 2477.15 1448.99C2479.17 1447.37 2480.45 1445.06 2480.74 1442.49L2503.32 1242.35C2503.61 1239.77 2502.88 1237.24 2501.26 1235.21C2499.65 1233.18 2497.34 1231.9 2494.76 1231.61C2494.39 1231.57 2494.02 1231.55 2493.65 1231.55Z" class="color474747 svgShape"></path>
  <path fill="#e6fcea" d="M558.654 1482.93C558.654 1482.93 556.188 1366.41 570.465 1327.7C584.742 1288.99 537.763 1272.67 558.491 1237.11C579.219 1201.54 497.467 1232.75 533.381 1152.06C569.295 1071.37 633.265 899.263 513.105 997.692C392.945 1096.12 433.643 1000.87 398.498 1055.68C363.353 1110.49 308.755 1211.33 336.203 1269.52C363.651 1327.72 558.654 1482.93 558.654 1482.93Z" class="colorfcf5e6 svgShape"></path>
  <path fill="#474747" d="M558.656 1493.88C556.223 1493.88 553.81 1493.07 551.832 1491.5C551.342 1491.11 502.263 1451.99 450.471 1406.26C380.097 1344.12 338.318 1299.69 326.296 1274.2C312.922 1245.84 315.383 1206.59 333.61 1157.52C348.89 1116.38 372.316 1076.22 389.278 1049.77C398.945 1034.69 404.59 1027.76 412.486 1026.54C419.188 1025.5 423.755 1029.3 426.21 1031.34C428.926 1033.6 430.721 1035.09 438.622 1032.84C453.149 1028.71 475.874 1014.03 506.164 989.217C523.497 975.019 537.646 965.798 549.422 961.028C563.016 955.522 574.052 955.892 582.226 962.127C597.3 973.625 597.731 1000.59 583.625 1049.57C571.875 1090.37 553.375 1134.09 543.392 1156.51C533.856 1177.94 534.246 1188.41 536.252 1193.43C538.398 1198.79 543.911 1201.4 552.078 1204.77C559.872 1207.98 568.707 1211.62 571.862 1220.95C574.018 1227.33 572.741 1234.42 567.958 1242.62C560.741 1255 564.496 1262.98 572.336 1277.16C579.938 1290.92 589.398 1308.03 580.746 1331.49C569.629 1361.63 568.938 1450.86 569.609 1482.7C569.699 1486.94 567.325 1490.86 563.518 1492.75C561.976 1493.51 560.312 1493.88 558.658 1493.88L558.656 1493.88ZM415.321 1050.54C413.702 1052.63 411.28 1056.04 407.722 1061.59C391.341 1087.14 368.75 1125.84 354.149 1165.15C338.051 1208.48 335.348 1242.03 346.112 1264.85C365.641 1306.26 485.034 1408.9 547.527 1459.88C547.606 1423.23 549.271 1353.5 560.187 1323.91C565.37 1309.85 559.981 1300.11 553.159 1287.76C545.162 1273.3 535.21 1255.29 549.028 1231.59C549.94 1230.02 550.423 1228.91 550.677 1228.2C549.031 1227.21 545.929 1225.93 543.729 1225.02C534.412 1221.18 521.652 1215.92 515.909 1201.57C510.637 1188.39 513.078 1170.73 523.375 1147.6C531.226 1129.96 550.762 1084.51 562.571 1043.51C578.635 987.73 569.037 979.623 568.939 979.547C568.854 979.483 559.35 973.974 520.05 1006.17C475.133 1042.96 449.572 1055.79 432.373 1055.8C425.623 1055.8 420.164 1053.82 415.323 1050.54H415.321Z" class="color474747 svgShape"></path>
  <path fill="#f7f7f7" d="M773.844 1689.36L336.203 1269.52C336.203 1269.52 245.526 1310.48 277.483 1393.56L508.64 1619.22C527.77 1637.9 555.202 1644.94 581.1 1638.3C610.092 1630.87 649.466 1628.1 677.093 1654.79C725.934 1701.95 739.89 1715.81 739.89 1715.81L773.843 1689.36L773.844 1689.36Z" class="colorf7f7f7 svgShape"></path>
  <path fill="#474747" d="M739.894 1726.76C737.088 1726.76 734.296 1725.69 732.173 1723.58C732.033 1723.44 717.66 1709.19 669.483 1662.67C656.152 1649.79 630.468 1636.95 583.821 1648.91C553.838 1656.6 522.874 1648.43 500.987 1627.06L269.83 1401.39C268.702 1400.29 267.825 1398.96 267.258 1397.49C252.608 1359.41 259.344 1323.29 286.738 1293.03C306.715 1270.97 330.683 1260 331.693 1259.54C335.771 1257.7 340.558 1258.52 343.787 1261.62L781.428 1681.46C783.723 1683.66 784.949 1686.75 784.784 1689.93C784.62 1693.1 783.084 1696.05 780.575 1698.01L746.621 1724.45C744.632 1726 742.257 1726.76 739.892 1726.76L739.894 1726.76ZM618.529 1622.23C645.272 1622.23 667.747 1630.53 684.704 1646.9C715.321 1676.47 732.333 1693.05 740.727 1701.27L757.12 1688.5L334.315 1282.89C326.733 1287.24 313.722 1295.73 302.555 1308.21C281.656 1331.57 276.393 1358.22 286.894 1387.43L516.294 1611.39C532.661 1627.36 555.869 1633.46 578.379 1627.69C592.606 1624.04 606.036 1622.23 618.529 1622.23Z" class="color474747 svgShape"></path>
  <path fill="#595bd4" d="M570.464 1571.74C567.747 1571.74 565.025 1570.74 562.903 1568.71L330.435 1346.96C326.057 1342.79 325.893 1335.85 330.07 1331.48C334.245 1327.1 341.18 1326.93 345.559 1331.11L578.027 1552.86C582.405 1557.03 582.569 1563.97 578.392 1568.35C576.24 1570.6 573.354 1571.74 570.463 1571.74L570.464 1571.74Z" class="color848484 svgShape"></path>
  <path fill="#e6fcea" d="M647.075 1023.94C623.793 1039.12 560.341 1130.78 615.13 1137.95C669.919 1145.11 731.528 968.845 647.075 1023.94Z" class="colorfcf5e6 svgShape"></path>
  <path fill="#474747" d="M618.457 1149.12C616.882 1149.12 615.302 1149.02 613.709 1148.81C591.671 1145.93 585.29 1131.93 583.448 1123.84C578.923 1103.98 591.081 1078.42 602.078 1060.48C614.262 1040.6 630.304 1021.8 641.089 1014.76C662.406 1000.86 678.785 998.548 689.772 1007.9C706.331 1022 699.265 1056.24 687.13 1083.59C673.398 1114.54 647.566 1149.12 618.457 1149.12ZM653.061 1033.11C646.088 1037.66 632.1 1053.42 620.761 1071.93C608.589 1091.79 602.627 1109.38 604.813 1118.98C605.313 1121.17 606.355 1125.75 616.551 1127.08C617.136 1127.16 617.736 1127.2 618.343 1127.2C632.986 1127.2 653.559 1105.22 667.103 1074.7C679.395 1047 679.157 1027.64 675.57 1024.58C674.706 1023.85 668.353 1023.14 653.062 1033.11L653.061 1033.11Z" class="color474747 svgShape"></path>
  <path fill="#e6fcea" d="M621.811 1433.36C602.734 1440.96 578.882 1492.13 623.777 1495.71C668.672 1499.29 691.012 1405.82 621.811 1433.36Z" class="colorfcf5e6 svgShape"></path>
  <path fill="#474747" d="M626.44 1506.77C625.279 1506.77 624.102 1506.72 622.906 1506.63C602.942 1505.03 590.074 1494.72 587.604 1478.33C584.3 1456.41 601.424 1429.68 617.76 1423.18C646.21 1411.86 661.019 1418.98 668.433 1426.94C678.76 1438.04 679.695 1457.07 670.815 1475.43C663.338 1490.9 647.899 1506.77 626.44 1506.77ZM644.178 1439.21C639.377 1439.21 633.081 1440.67 625.863 1443.54C618.646 1446.41 607.514 1463.4 609.271 1475.06C609.625 1477.41 610.567 1483.66 624.649 1484.79C632.344 1485.4 643.872 1480.82 651.09 1465.89C655.703 1456.35 656.265 1446.03 652.396 1441.87C650.742 1440.09 647.912 1439.21 644.179 1439.21H644.178Z" class="color474747 svgShape"></path>
  <path fill="#e6fcea" d="M706.529 1486.77C692.105 1492.51 674.072 1531.2 708.016 1533.91C741.96 1536.62 758.851 1465.95 706.529 1486.77Z" class="colorfcf5e6 svgShape"></path>
  <path fill="#474747" d="M709.931 1544.94C709.005 1544.94 708.078 1544.91 707.144 1544.83C683.799 1542.97 679.002 1527.66 678.023 1521.17C675.279 1502.96 689.157 1481.9 702.477 1476.59C725.391 1467.47 737.56 1473.46 743.734 1480.1C752.299 1489.3 753.183 1504.86 745.985 1519.75C738.367 1535.5 724.733 1544.94 709.93 1544.94H709.931ZM723.354 1493.89C720.57 1493.89 716.412 1494.63 710.581 1496.95C709.204 1497.5 705.955 1500.23 703.102 1505.24C700.506 1509.79 699.199 1514.64 699.69 1517.9C699.889 1519.22 700.354 1522.31 708.887 1522.99C716.831 1523.61 723.217 1516.5 726.26 1510.21C729.733 1503.02 729.326 1496.78 727.697 1495.03C727.162 1494.45 725.779 1493.89 723.354 1493.89Z" class="color474747 svgShape"></path>
  <path fill="#595bd4" d="M834.647 2162.23C833.023 2162.23 831.375 2161.86 829.82 2161.1 765.593 2129.51 711.445 2093.01 668.88 2052.63 634.566 2020.08 607.638 1984.92 588.844 1948.14 556.428 1884.7 559.397 1838.46 559.539 1836.52 559.982 1830.48 565.237 1825.95 571.268 1826.4 577.29 1826.84 581.817 1832.07 581.394 1838.09 581.387 1838.19 580.72 1848.95 583.798 1866.77 586.636 1883.2 593.335 1909.19 609.125 1939.67 626.924 1974.02 652.416 2006.98 684.891 2037.62 725.707 2076.12 777.722 2111.05 839.491 2141.44 844.921 2144.11 847.157 2150.67 844.486 2156.1 842.581 2159.98 838.691 2162.23 834.647 2162.23ZM836.544 2238.75C806.446 2238.75 777.804 2236.87 750.77 2233.1 702.503 2226.37 659.213 2213.65 622.102 2195.28 557.907 2163.5 534.324 2125.82 533.352 2124.23 530.193 2119.07 531.815 2112.33 536.976 2109.17 542.125 2106.02 548.855 2107.62 552.021 2112.76 552.473 2113.48 574.537 2147.74 633.544 2176.49 668.55 2193.54 709.51 2205.36 755.287 2211.6 812.797 2219.45 878.086 2218.48 949.34 2208.71 955.338 2207.89 960.861 2212.08 961.682 2218.07 962.504 2224.07 958.31 2229.59 952.316 2230.42 911.804 2235.97 873.104 2238.75 836.545 2238.75L836.544 2238.75ZM2421.36 2312.98C2416.04 2312.98 2411.37 2309.09 2410.55 2303.67 2409.64 2297.69 2413.74 2292.11 2419.72 2291.19 2420.43 2291.08 2469.05 2283.19 2519.57 2249.78 2549.04 2230.29 2573.43 2206 2592.07 2177.6 2615.39 2142.06 2629.8 2099.79 2634.9 2051.98 2635.55 2045.97 2640.94 2041.61 2646.96 2042.25 2652.98 2042.89 2657.33 2048.29 2656.69 2054.31 2651.19 2105.84 2635.5 2151.53 2610.06 2190.12 2589.65 2221.06 2563.01 2247.46 2530.87 2268.57 2476.31 2304.41 2425.18 2312.52 2423.03 2312.85 2422.47 2312.94 2421.91 2312.98 2421.36 2312.98ZM2473.71 2415.24C2455.62 2415.24 2439.04 2412.74 2424.8 2409.29 2378.18 2398.03 2346.72 2374.96 2345.4 2373.98 2340.54 2370.37 2339.52 2363.51 2343.13 2358.65 2346.73 2353.8 2353.59 2352.78 2358.44 2356.37 2358.74 2356.59 2388.2 2378.08 2430.69 2388.18 2486.63 2401.47 2537.92 2389.71 2583.13 2353.23 2587.84 2349.42 2594.74 2350.16 2598.54 2354.87 2602.34 2359.58 2601.6 2366.48 2596.89 2370.28 2554.19 2404.73 2510.77 2415.24 2473.71 2415.24ZM1224.33 1900.85C1220.36 1900.85 1216.53 1898.68 1214.59 1894.91 1194.59 1856.08 1154.31 1847.48 1153.91 1847.4 1148 1846.2 1144.15 1840.43 1145.33 1834.51 1146.51 1828.6 1152.23 1824.74 1158.16 1825.91 1160.23 1826.31 1209.09 1836.38 1234.07 1884.88 1236.84 1890.25 1234.72 1896.86 1229.34 1899.63 1227.74 1900.46 1226.02 1900.85 1224.33 1900.85Z" class="color848484 svgShape"></path>
</svg>
