<svg xmlns="http://www.w3.org/2000/svg" width="3000" height="3000" fill="none" viewBox="0 0 3000 3000" id="PandaGraduation">
  <path fill="#53d86a" d="M1020.58 2681.59C1020.58 2681.59 2024.3 2664.98 2277.13 2705.51C2529.97 2746.04 2132.13 2896.87 1395.76 2872.16C916.256 2856.07 211.79 2703.72 1020.58 2681.59Z" class="color83c49f svgShape"></path>
  <path fill="#167ffc" d="M1553.75 2885.42C1501.69 2885.42 1448.8 2884.54 1395.41 2882.74C1240.42 2877.54 1055.71 2858.01 901.296 2830.5C826.144 2817.11 763.284 2802.58 719.512 2788.48C665.299 2771.02 641.149 2754.93 641.206 2736.32C641.27 2715.48 669.197 2702.07 734.585 2691.49C797.113 2681.38 893.238 2674.48 1020.29 2671.01L1020.41 2671.01C1022.92 2670.97 1274.68 2666.86 1554.08 2667.77C1929.58 2668.98 2173.41 2678.16 2278.81 2695.06C2305.88 2699.39 2326.63 2705.16 2340.48 2712.19C2361.25 2722.73 2364.6 2735.36 2363.75 2744.1C2361.85 2763.82 2336.63 2782.33 2286.64 2800.68C2239.34 2818.04 2172.07 2834.19 2092.12 2847.38C1940.72 2872.36 1753.64 2885.42 1553.75 2885.42ZM662.403 2736.43C662.775 2737.68 667.995 2750.08 729.699 2769.51C773.191 2783.2 835.212 2797.33 909.056 2810.38C1061.67 2837.33 1243.75 2856.47 1396.12 2861.58C1653.22 2870.21 1899.17 2857.75 2088.68 2826.49C2167.34 2813.51 2233.27 2797.72 2279.34 2780.8C2339.4 2758.75 2342.52 2743.7 2342.68 2742.06C2343.09 2737.86 2331.8 2724.99 2275.46 2715.96C2137.51 2693.85 1770.39 2688.88 1468.68 2688.88C1226.64 2688.88 1026.71 2692.08 1020.82 2692.17C899.074 2695.51 806.057 2701.97 744.368 2711.39C670.618 2722.64 662.976 2735.2 662.402 2736.43L662.403 2736.43Z" class="color474747 svgShape"></path>
  <path fill="#232323" d="M2050.55 2113.4L2022.18 2156.45C1995.78 2158.99 1969.67 2170.57 1944.54 2187.93C1827.81 2268.38 1732.67 2472.63 1732.67 2472.63C1704.44 2543.06 1474.79 2658.24 1474.79 2658.24C1048.94 2574.4 1041.03 2597.83 1041.03 2597.83C1030.73 2589.36 1020.85 2578.77 1011.53 2566.64C916.681 2442.99 872.642 2152.07 872.642 2152.07C443.966 1951.22 747.018 1561.5 747.018 1561.5C747.018 1561.5 824.086 1476.81 830.015 1470.74C851.469 1449.42 876.453 1430.09 901.719 1413.29C914.846 1404.4 928.114 1396.35 941.101 1388.87C955.357 1380.68 969.331 1373.34 982.317 1366.85C1025.23 1345.25 1057.27 1333.4 1057.27 1333.4C1057.27 1333.4 1229.47 1273.69 1377.12 1245.74C1385.73 1244.05 1394.34 1242.5 1402.66 1241.22C1423.13 1237.84 1442.89 1235.01 1461.24 1233.46C1502.03 1229.65 1536.33 1230.78 1558.49 1239.81C1562.16 1241.08 1565.55 1242.78 1568.52 1244.75C2142.01 1714.79 1926.48 1958.55 1926.48 1958.55L2050.55 2113.4L2050.55 2113.4Z" class="color232323 svgShape"></path>
  <path fill="#232323" d="M1474.79 2668.83C1474.11 2668.83 1473.43 2668.76 1472.75 2668.63C1111.29 2597.46 1054.66 2604.48 1047.17 2606.46C1046.2 2607.15 1045.12 2607.68 1043.95 2608.01C1040.6 2608.97 1037 2608.22 1034.31 2606.01C1023.7 2597.28 1013.21 2586.2 1003.14 2573.08C962.93 2520.67 926.975 2434.06 896.271 2315.65C877.132 2241.84 866.136 2178.05 863.067 2159.25C739.704 2100.24 664.968 2019.58 640.908 1919.45C630.848 1877.59 629.783 1832.3 637.744 1784.83C644.068 1747.13 656.073 1707.97 673.427 1668.45C702.901 1601.32 737.215 1556.86 738.661 1555C738.828 1554.78 739.004 1554.58 739.188 1554.37C742.34 1550.91 816.451 1469.47 822.442 1463.34C822.479 1463.3 822.516 1463.27 822.554 1463.23C842.787 1443.13 867.45 1423.36 895.858 1404.47C907.657 1396.48 920.379 1388.59 935.816 1379.7C948.792 1372.25 962.449 1364.95 977.582 1357.38C1020.5 1335.78 1052.26 1323.96 1053.59 1323.47C1053.66 1323.44 1053.73 1323.42 1053.8 1323.4C1055.53 1322.8 1228.44 1263.11 1375.15 1235.34C1384.63 1233.48 1393.1 1231.98 1400.99 1230.77C1424.92 1226.81 1443.78 1224.32 1460.35 1222.92C1506.52 1218.6 1539.89 1220.88 1562.23 1229.91C1566.58 1231.44 1570.67 1233.47 1574.39 1235.94C1574.68 1236.14 1574.96 1236.35 1575.23 1236.57C1714.59 1350.79 1819.38 1461.65 1886.68 1566.05C1939.94 1648.68 1969.9 1727.3 1975.71 1799.72C1982.72 1887.02 1952.73 1940.06 1939.91 1958.39L2058.81 2106.78C2061.68 2110.36 2061.91 2115.39 2059.39 2119.23L2031.02 2162.28C2029.25 2164.95 2026.38 2166.68 2023.19 2166.99C2000.28 2169.19 1975.84 2179.17 1950.56 2196.64C1839.3 2273.32 1746.11 2468.97 1742.38 2476.87C1729.62 2508.19 1681.29 2549.91 1598.71 2600.86C1538.07 2638.27 1480.12 2667.42 1479.54 2667.71C1478.06 2668.45 1476.43 2668.83 1474.79 2668.83V2668.83ZM1062.99 2584.23C1072.6 2584.23 1084.67 2584.84 1099.1 2586.04C1172.26 2592.17 1298.13 2612.73 1473.27 2647.15C1538.48 2614.12 1701.29 2522.48 1722.85 2468.69C1722.92 2468.51 1723 2468.33 1723.08 2468.16C1723.32 2467.64 1747.58 2415.79 1785.87 2354.82C1837.57 2272.48 1888.93 2213.4 1938.53 2179.21C1965 2160.92 1991.05 2149.94 2016.05 2146.51L2037.47 2114.01L1918.21 1965.18C1914.99 1961.16 1915.13 1955.4 1918.54 1951.54C1918.63 1951.44 1929.75 1938.53 1939.68 1913.55C1948.85 1890.51 1958.87 1852.15 1954.51 1800.29C1948.74 1731.43 1919.73 1656.18 1868.31 1576.63C1802.25 1474.45 1699.28 1365.67 1562.24 1253.3C1560.05 1251.89 1557.62 1250.72 1555.03 1249.82C1554.85 1249.76 1554.67 1249.69 1554.5 1249.62C1535.65 1241.93 1504.6 1240.04 1462.23 1244C1446.13 1245.37 1427.78 1247.8 1404.39 1251.67C1404.35 1251.68 1404.31 1251.69 1404.26 1251.69C1396.65 1252.85 1388.44 1254.3 1379.16 1256.13C1235.43 1283.34 1066.09 1341.55 1060.85 1343.36C1058.89 1344.09 1027.75 1355.84 987.076 1376.31C972.286 1383.7 958.98 1390.81 946.373 1398.05C931.404 1406.67 919.097 1414.3 907.657 1422.05C880.347 1440.21 856.782 1459.08 837.536 1478.19C832.648 1483.22 781.747 1539.06 755.147 1568.29C752.117 1572.27 719.763 1615.41 692.581 1677.49C675.997 1715.36 664.551 1752.78 658.561 1788.71C651.136 1833.25 652.131 1875.61 661.519 1914.61C684.357 2009.48 756.901 2086.15 877.134 2142.49C880.337 2143.99 882.579 2146.99 883.109 2150.49C883.219 2151.21 894.332 2223.86 916.818 2310.53C946.374 2424.45 982.03 2510.78 1019.93 2560.19C1027.53 2570.09 1035.31 2578.63 1043.13 2585.67C1044.89 2585.3 1046.5 2585.11 1047.66 2584.97C1051.76 2584.48 1056.87 2584.23 1062.99 2584.23V2584.23ZM1051.04 2601.29C1050.79 2602 1050.48 2602.67 1050.1 2603.3C1050.45 2602.72 1050.78 2602.05 1051.04 2601.29Z" class="color232323 svgShape"></path>
  <path fill="#167ffc" d="M1474.79 2658.24C1474.37 2720.77 1314.58 2798.27 1070.25 2780.62C826.061 2762.98 1041.03 2597.83 1041.03 2597.83C1041.03 2597.83 1048.94 2574.4 1474.79 2658.24Z" class="color474747 svgShape"></path>
  <path fill="#167ffc" d="M1139.48 2793.74C1116.53 2793.74 1093.14 2792.89 1069.49 2791.18C1032.33 2788.49 1003.08 2782.18 982.547 2772.42C962.634 2762.95 950.079 2749.95 945.23 2733.78C937.319 2707.41 950.414 2674.79 984.152 2636.8C1006.02 2612.19 1029.27 2593.59 1033.82 2590.03C1037.88 2586.14 1044.43 2585.35 1047.66 2584.97C1058.19 2583.71 1075.49 2584.07 1099.1 2586.04C1172.76 2592.21 1299.84 2613.01 1476.84 2647.86C1481.83 2648.84 1485.41 2653.23 1485.38 2658.31C1485.26 2675.39 1475.78 2693.13 1457.95 2709.6C1428.38 2736.93 1377.18 2760.19 1313.8 2775.1C1261.3 2787.44 1202 2793.73 1139.48 2793.73L1139.48 2793.74ZM1047.19 2606.46C1020.23 2627.27 953.861 2688.91 965.513 2727.71C972.489 2750.93 1008.97 2765.58 1071.02 2770.06C1156.96 2776.27 1239.24 2770.88 1308.96 2754.49C1389.75 2735.49 1427.99 2708.47 1443.59 2694.05C1453.66 2684.75 1460.18 2675.44 1462.85 2666.69C1110.56 2597.66 1054.68 2604.49 1047.19 2606.46ZM1051.05 2601.26C1050.8 2601.99 1050.47 2602.68 1050.08 2603.33C1050.45 2602.73 1050.78 2602.05 1051.05 2601.26ZM1051.07 2601.22C1051.06 2601.22 1051.06 2601.23 1051.06 2601.24C1051.06 2601.23 1051.06 2601.22 1051.07 2601.22Z" class="color474747 svgShape"></path>
  <path fill="#53d86a" d="M1508.53 1776.9C1101.73 1852.84 906.518 1609.63 830.015 1470.74C851.469 1449.43 876.453 1430.09 901.719 1413.29C914.846 1404.4 928.114 1396.35 941.101 1388.87C955.357 1380.68 969.331 1373.34 982.317 1366.85C1025.23 1345.25 1057.27 1333.4 1057.27 1333.4C1057.27 1333.4 1229.47 1273.69 1377.12 1245.74C1385.73 1244.05 1394.34 1242.5 1402.66 1241.23C1423.13 1237.84 1442.89 1235.02 1461.24 1233.46C1502.03 1229.65 1536.33 1230.78 1558.49 1239.81C1639.23 1497.56 1508.53 1776.9 1508.53 1776.9Z" class="color83c49f svgShape"></path>
  <path fill="#167ffc" d="M1359.95 1801.87C1240.75 1801.87 1133.52 1772.28 1039.78 1713.34C928.231 1643.21 859.096 1545.48 820.741 1475.85C818.461 1471.71 819.2 1466.56 822.553 1463.23C842.786 1443.13 867.449 1423.36 895.857 1404.47C907.656 1396.48 920.378 1388.59 935.815 1379.7C948.791 1372.25 962.449 1364.95 977.581 1357.38C1020.5 1335.78 1052.26 1323.96 1053.59 1323.47C1053.66 1323.45 1053.73 1323.42 1053.8 1323.4C1055.53 1322.8 1228.43 1263.11 1375.15 1235.34C1384.63 1233.48 1393.11 1231.98 1401 1230.77C1424.92 1226.82 1443.78 1224.32 1460.35 1222.92C1506.7 1218.59 1540.14 1220.91 1562.49 1230.01C1565.41 1231.21 1567.65 1233.64 1568.6 1236.65C1587.35 1296.52 1596.34 1362.45 1595.33 1432.62C1594.53 1488.58 1587.39 1547.35 1574.12 1607.3C1551.55 1709.32 1519.47 1778.49 1518.11 1781.38C1516.67 1784.47 1513.82 1786.68 1510.47 1787.3C1458.42 1797.02 1408.19 1801.87 1359.95 1801.87L1359.95 1801.87ZM843.218 1472.67C881.078 1539.54 947.031 1630.02 1051.04 1695.42C1176.76 1774.46 1328.16 1798.7 1501.13 1767.49C1508.8 1749.93 1534.86 1686.95 1553.56 1602.21C1566.47 1543.72 1573.41 1486.46 1574.17 1432C1575.09 1366.14 1566.93 1304.25 1549.92 1247.94C1530.79 1241.68 1501.33 1240.35 1462.23 1244C1446.13 1245.37 1427.78 1247.8 1404.39 1251.67C1404.35 1251.68 1404.3 1251.69 1404.26 1251.69C1396.65 1252.85 1388.44 1254.3 1379.16 1256.13C1235.4 1283.34 1066.03 1341.58 1060.84 1343.36C1058.86 1344.11 1027.73 1355.85 987.076 1376.31C972.286 1383.7 958.98 1390.81 946.373 1398.05C931.403 1406.67 919.097 1414.3 907.657 1422.05C882.979 1438.46 861.359 1455.45 843.22 1472.67L843.218 1472.67Z" class="color474747 svgShape"></path>
  <path fill="#53d86a" d="M1453.34 1726.36C1147.89 1729.75 964.672 1506.17 901.718 1413.29C914.845 1404.4 928.113 1396.35 941.1 1388.87C955.356 1380.68 969.33 1373.35 982.316 1366.85C1025.23 1345.26 1057.27 1333.4 1057.27 1333.4C1057.27 1333.4 1229.47 1273.69 1377.11 1245.74C1385.73 1244.05 1394.34 1242.5 1402.66 1241.23C1423.13 1237.84 1442.89 1235.02 1461.24 1233.46C1587.29 1549.5 1453.34 1726.36 1453.34 1726.36Z" class="color83c49f svgShape"></path>
  <path fill="#167ffc" d="M1446.45 1736.99C1141.46 1736.99 957.984 1515.17 892.955 1419.23C891.38 1416.91 890.792 1414.05 891.322 1411.29C891.852 1408.53 893.456 1406.1 895.78 1404.53C907.656 1396.48 920.377 1388.59 935.815 1379.7C948.791 1372.25 962.448 1364.95 977.581 1357.38C1020.5 1335.78 1052.26 1323.96 1053.59 1323.47C1053.66 1323.45 1053.73 1323.42 1053.8 1323.4C1055.53 1322.8 1228.44 1263.12 1375.15 1235.34C1384.63 1233.48 1393.11 1231.98 1401 1230.77C1424.92 1226.82 1443.78 1224.32 1460.35 1222.92C1465 1222.53 1469.35 1225.21 1471.08 1229.54C1500.21 1302.6 1517.93 1374.39 1523.73 1442.92C1528.39 1497.94 1525.43 1551 1514.92 1600.62C1496.9 1685.68 1463.2 1730.87 1461.78 1732.76C1459.8 1735.37 1456.73 1736.91 1453.46 1736.95C1451.12 1736.98 1448.78 1736.99 1446.46 1736.99L1446.45 1736.99ZM916.552 1416.17C984.527 1513.36 1160.56 1715.81 1446.48 1715.81C1446.93 1715.81 1447.38 1715.81 1447.84 1715.81C1460.04 1697.64 1482.04 1654.47 1494.47 1594.94C1504.39 1547.43 1507.11 1496.56 1502.55 1443.75C1497.04 1379.89 1480.82 1312.97 1454.3 1244.74C1440.16 1246.18 1424.06 1248.42 1404.39 1251.67C1404.35 1251.68 1404.3 1251.68 1404.26 1251.69C1396.65 1252.85 1388.44 1254.3 1379.16 1256.13C1235.46 1283.33 1066.07 1341.56 1060.85 1343.36C1058.88 1344.1 1027.74 1355.84 987.075 1376.31C972.285 1383.7 958.979 1390.81 946.372 1398.05C935.197 1404.49 925.506 1410.37 916.552 1416.17Z" class="color474747 svgShape"></path>
  <path fill="#f7f7f7" d="M1473.38 1510.83C1472.67 1545.41 1468.3 1575.76 1462.65 1600.88C1450.8 1652.97 1433.44 1682.61 1433.44 1682.61C1374.01 1677.67 1319.53 1664.4 1269.84 1645.48C1228.48 1629.96 1190.51 1610.48 1155.79 1588.88C1058.26 1528.04 986.976 1449.71 941.102 1388.87C955.358 1380.68 969.332 1373.34 982.318 1366.85C1025.23 1345.25 1057.27 1333.4 1057.27 1333.4C1057.27 1333.4 1229.47 1273.69 1377.12 1245.74C1385.73 1244.05 1394.34 1242.5 1402.67 1241.22C1459.13 1345.39 1474.79 1437.71 1473.38 1510.82L1473.38 1510.83Z" class="colorf7f7f7 svgShape"></path>
  <path fill="#167ffc" d="M1433.44 1693.19C1433.15 1693.19 1432.85 1693.18 1432.56 1693.16C1375.47 1688.41 1319.46 1675.7 1266.08 1655.38C1226.89 1640.67 1187.89 1621.31 1150.2 1597.87C1049.15 1534.84 976.118 1452.89 932.648 1395.25C930.819 1392.82 930.121 1389.73 930.729 1386.75C931.337 1383.77 933.195 1381.2 935.829 1379.69C948.792 1372.25 962.45 1364.95 977.582 1357.38C1020.5 1335.78 1052.26 1323.96 1053.59 1323.47C1053.66 1323.44 1053.73 1323.42 1053.8 1323.4C1055.53 1322.8 1228.44 1263.11 1375.15 1235.34C1384.66 1233.47 1393.16 1231.97 1401.07 1230.76C1405.49 1230.09 1409.84 1232.26 1411.97 1236.18C1461.5 1327.56 1485.72 1420.04 1483.97 1511.03C1483.97 1511.03 1483.97 1511.04 1483.97 1511.04C1483.32 1542.63 1479.63 1573.64 1472.98 1603.2C1460.9 1656.3 1443.32 1686.69 1442.57 1687.96C1440.66 1691.22 1437.18 1693.19 1433.44 1693.19L1433.44 1693.19ZM956.914 1392.12C999.966 1447.57 1068.59 1522.02 1161.39 1579.9C1197.89 1602.6 1235.63 1621.34 1273.56 1635.57C1322.96 1654.38 1374.65 1666.43 1427.35 1671.44C1432.69 1660.66 1443.96 1635.3 1452.33 1598.53C1458.66 1570.38 1462.18 1540.79 1462.8 1510.61C1464.44 1425.51 1442.27 1338.83 1396.89 1252.88C1391.38 1253.8 1385.52 1254.88 1379.16 1256.13C1235.47 1283.33 1066.09 1341.55 1060.85 1343.36C1058.88 1344.1 1027.74 1355.84 987.076 1376.31C976.341 1381.68 966.387 1386.89 956.915 1392.12L956.914 1392.12Z" class="color474747 svgShape"></path>
  <path fill="#f7f7f7" d="M1473.38 1510.83L1361.17 1465.52L1258.69 1424.02L1215.07 1493.89L1155.79 1588.88C1058.26 1528.05 986.975 1449.71 941.101 1388.87C955.357 1380.68 969.331 1373.34 982.317 1366.85C1025.23 1345.25 1057.27 1333.4 1057.27 1333.4C1057.27 1333.4 1229.47 1273.69 1377.12 1245.74C1385.73 1244.05 1394.34 1242.5 1402.66 1241.23C1459.12 1345.4 1474.79 1437.71 1473.38 1510.82V1510.83Z" class="colorf7f7f7 svgShape"></path>
  <path fill="#167ffc" d="M1155.78 1599.47C1153.87 1599.47 1151.93 1598.95 1150.19 1597.87C1049.15 1534.84 976.118 1452.89 932.648 1395.25C930.819 1392.82 930.121 1389.73 930.729 1386.75C931.337 1383.77 933.195 1381.21 935.829 1379.69C948.792 1372.25 962.45 1364.95 977.582 1357.38C1020.5 1335.78 1052.26 1323.96 1053.59 1323.47C1053.66 1323.45 1053.73 1323.42 1053.8 1323.4C1055.53 1322.8 1228.44 1263.12 1375.15 1235.34C1384.66 1233.47 1393.16 1231.97 1401.07 1230.76C1405.48 1230.09 1409.84 1232.26 1411.97 1236.18C1461.5 1327.56 1485.72 1420.04 1483.97 1511.03C1483.9 1514.51 1482.12 1517.74 1479.22 1519.66C1476.31 1521.58 1472.65 1521.95 1469.42 1520.64L1357.2 1475.33L1262.96 1437.17L1224.05 1499.49L1164.77 1594.49C1162.76 1597.7 1159.31 1599.47 1155.78 1599.47V1599.47ZM956.915 1392.12C998.573 1445.77 1064.18 1517.22 1152.46 1574.23L1206.09 1488.28L1249.71 1418.41C1252.43 1414.05 1257.9 1412.28 1262.66 1414.21L1365.14 1455.7L1462.83 1495.15C1461.67 1415.02 1439.53 1333.63 1396.89 1252.88C1391.38 1253.8 1385.52 1254.88 1379.16 1256.13C1235.47 1283.33 1066.09 1341.55 1060.85 1343.36C1058.88 1344.1 1027.74 1355.84 987.076 1376.31C976.341 1381.68 966.387 1386.89 956.915 1392.12Z" class="color474747 svgShape"></path>
  <path fill="#fe9526" d="M1462.65 1600.88C1450.8 1652.97 1433.44 1682.61 1433.44 1682.61C1374.01 1677.67 1319.53 1664.4 1269.84 1645.48L1265.75 1525.08L1215.07 1493.89L1258.69 1424.02L1361.17 1465.52L1362.01 1506.45L1462.65 1600.88L1462.65 1600.88Z" class="colorf29797 svgShape"></path>
  <path fill="#167ffc" d="M1439.2 1693.71L1432.56 1693.16C1375.47 1688.41 1319.46 1675.7 1266.08 1655.38L1259.5 1652.88L1255.36 1531.12L1200.45 1497.32L1254.42 1410.87L1371.61 1458.32L1372.51 1501.78L1474.32 1597.31L1472.98 1603.23C1460.9 1656.3 1443.31 1686.69 1442.57 1687.96L1439.2 1693.71L1439.2 1693.71ZM1280.18 1638.05C1327.55 1655.43 1376.99 1666.65 1427.35 1671.44C1432.4 1661.25 1442.75 1638.01 1450.94 1604.41L1351.52 1511.12L1350.73 1472.71L1262.96 1437.17L1229.69 1490.46L1276.13 1519.05L1280.18 1638.05Z" class="color474747 svgShape"></path>
  <path fill="#161616" d="M1294.26 397.391L1174.2 340.533L1015.73 113.747C1015.73 113.747 1666.79 114.578 1704.98 161.838C1743.16 209.097 1961.15 754.787 1961.15 754.787L1648.24 711.565C1648.24 711.565 1600.7 520.149 1294.26 397.392V397.391Z" class="color161616 svgShape"></path>
  <path fill="#161616" d="M1961.15 765.373C1960.67 765.373 1960.19 765.34 1959.7 765.273L1646.8 722.051C1642.51 721.459 1639.01 718.316 1637.97 714.116C1637.86 713.671 1625.63 666.842 1576.97 605.957C1548.37 570.164 1512.94 536.581 1471.69 506.14C1420.02 468.01 1359 434.728 1290.33 407.219C1290.13 407.138 1289.93 407.052 1289.73 406.96L1169.67 350.102C1168.01 349.314 1166.58 348.106 1165.52 346.598L1007.05 119.812C1004.79 116.575 1004.52 112.349 1006.35 108.849C1008.17 105.353 1011.79 103.161 1015.73 103.161H1015.74C1017.37 103.163 1180.61 103.439 1346.42 109.491C1443.92 113.05 1523.26 117.882 1582.24 123.854C1683.64 134.121 1705.35 145.454 1713.21 155.185C1729.68 175.568 1778.11 282.149 1857.15 471.965C1915.77 612.737 1970.43 749.495 1970.98 750.86C1972.38 754.361 1971.81 758.342 1969.48 761.311C1967.46 763.895 1964.38 765.373 1961.15 765.373ZM1656.42 702.007L1944.55 741.807C1867.48 549.44 1725.29 203.827 1696.74 168.49C1695.01 166.351 1681.27 155.162 1580.13 144.92C1521.61 138.994 1442.73 134.193 1345.7 130.65C1214.55 125.862 1084.99 124.696 1036.1 124.418L1181.27 332.167L1298.5 387.685C1369.12 415.999 1431.91 450.34 1485.15 489.761C1527.97 521.462 1564.74 556.509 1594.46 593.928C1634.93 644.881 1651.17 686.1 1656.42 702.007Z" class="color161616 svgShape"></path>
  <path fill="#167ffc" d="M1603.99 574.061C1603.99 574.061 1668.38 388.843 1570 333.528C1471.62 278.213 1423.03 278.345 1294.26 397.391C1331.2 470.985 1472.49 633.681 1603.99 574.061Z" class="color474747 svgShape"></path>
  <path fill="#167ffc" d="M1544.65 594.008C1492.51 594.008 1444.47 567.692 1409.42 541.32C1353.01 498.877 1307.77 440.039 1287.96 400.555L1285.57 395.811L1289.47 392.207C1356.8 329.962 1401.04 301.263 1442.16 293.148C1485.57 284.584 1524.58 299.894 1573.46 327.375C1597.52 340.906 1614.38 362.769 1623.55 392.355C1630.71 415.441 1633.19 443.26 1630.92 475.039C1627.1 528.574 1611.32 574.45 1610.65 576.377L1609.66 579.237L1606.9 580.487C1585.88 590.016 1564.96 594.008 1544.65 594.008ZM1303.01 398.928C1322.76 435.821 1365.88 490.894 1417.91 530.042C1462.92 563.915 1530.5 597.845 1598.27 568.869C1601.74 558.032 1613.74 518.065 1616.86 473.768C1618.98 443.802 1616.68 417.777 1610.03 396.415C1601.95 370.453 1587.32 351.364 1566.54 339.68C1504.4 304.739 1473.92 301.27 1444.89 306.998C1407.33 314.409 1366.01 341.137 1303.01 398.928Z" class="color474747 svgShape"></path>
  <path fill="#161616" d="M1572.5 594.603C1567.5 594.603 1563.04 591.034 1562.11 585.931C1561.05 580.181 1564.85 574.661 1570.6 573.603C1578.83 572.088 1587.16 569.607 1595.42 566.213C1604.02 538.664 1646.36 388.553 1564.88 342.784C1503.7 308.335 1473.89 304.872 1445.63 310.45C1408.48 317.783 1365.37 346.108 1301.47 405.162C1297.17 409.129 1290.47 408.866 1286.51 404.572C1282.54 400.278 1282.8 393.58 1287.1 389.612C1418.99 267.719 1472.19 266.291 1575.26 324.33C1600.1 338.286 1617.49 360.813 1626.94 391.282C1634.22 414.78 1636.75 443.03 1634.45 475.248C1630.6 529.245 1614.69 575.564 1614.02 577.51C1613.06 580.261 1611.02 582.497 1608.36 583.692C1597.16 588.732 1585.75 592.343 1574.43 594.426C1573.79 594.546 1573.14 594.603 1572.5 594.603Z" class="color161616 svgShape"></path>
  <path fill="#161616" d="M1552.15 544.083C1520.61 537.751 1446.56 513.294 1368.41 420.568C1368.41 420.568 1368.45 420.446 1368.33 420.402C1335.11 350.95 1519.34 480.024 1550.56 523.5C1559.48 535.945 1558.4 542.045 1552.15 544.084L1552.15 544.083Z" class="color161616 svgShape"></path>
  <path fill="#53d86a" d="M1455.47 125.017C1455.47 125.017 1406.44 65.686 1350.88 105.465C1295.32 145.245 1141.75 332.367 970.13 283.164C930.211 244.286 887.604 190.535 854.266 174.695C820.928 158.856 764.756 135.929 764.756 135.929C764.756 135.929 765.132 184.123 784.535 190.41C803.938 196.697 773.46 203.835 774.61 218.115C775.76 232.396 789.194 241.035 772.887 261.102C756.58 281.169 789.643 274.777 781.32 298.011C772.997 321.244 789.067 346.378 789.067 346.378C789.067 346.378 890.325 280.074 938.947 306.611C987.569 333.148 1109.72 356.337 1180.88 304.923C1252.03 253.508 1393.21 120.825 1393.21 120.825L1455.48 125.016L1455.47 125.017Z" class="color83c49f svgShape"></path>
  <path fill="#167ffc" d="M789.067 356.964C788.326 356.964 787.583 356.886 786.847 356.729C784.083 356.136 781.671 354.463 780.148 352.082C779.377 350.877 761.391 322.249 771.353 294.442C772.292 291.823 771.237 289.394 768.188 287.157C764.46 284.421 758.827 280.286 757.85 272.669C756.872 265.046 761.274 258.607 764.671 254.428C772.276 245.069 770.904 241.469 767.898 233.582C766.315 229.429 764.521 224.722 764.058 218.967C763.27 209.184 769.491 202.101 774.829 197.274C755.599 183.913 754.236 144.476 754.17 136.014C754.142 132.473 755.886 129.154 758.817 127.168C761.749 125.182 765.478 124.793 768.756 126.13C769.32 126.36 825.587 149.351 858.809 165.135C883.955 177.082 911.922 206.843 941.531 238.353C952.777 250.32 964.384 262.672 975.595 273.702C1005.81 281.933 1037.52 282.942 1069.89 276.7C1098.75 271.137 1129.08 259.629 1160.03 242.495C1217.39 210.748 1266.8 165.722 1302.89 132.844C1320.18 117.093 1333.83 104.651 1344.71 96.86C1370.87 78.135 1399.96 76.077 1428.85 90.908C1449.75 101.64 1463.08 117.6 1463.63 118.274C1466.33 121.534 1466.82 126.084 1464.9 129.847C1462.97 133.61 1458.98 135.864 1454.76 135.581L1397.09 131.7C1374.75 152.598 1252.71 266.083 1187.08 313.507C1153.85 337.514 1111.33 346.186 1069.82 346.188C1014.67 346.191 961.313 330.883 933.873 315.907C898.607 296.657 821.57 337.774 794.862 355.24C793.126 356.375 791.108 356.967 789.065 356.967L789.067 356.964ZM779.843 269.443C780.149 269.672 780.452 269.894 780.716 270.088C785.894 273.888 798.019 282.788 791.286 301.582C787.565 311.967 790.401 323.437 793.448 331.252C803.919 325.055 821.49 315.309 841.656 306.792C886.439 287.877 920.879 284.689 944.019 297.32C990.903 322.909 1108.08 344.466 1174.68 296.343C1244.46 245.917 1384.56 114.434 1385.96 113.112C1388.11 111.098 1390.99 110.063 1393.92 110.264L1423.75 112.271C1422.11 111.299 1420.41 110.358 1418.64 109.469C1397.16 98.638 1376.43 100.187 1357.04 114.073C1347.17 121.139 1333.26 133.815 1317.15 148.493C1280.29 182.076 1229.81 228.069 1170.29 261.017C1137.38 279.231 1104.95 291.502 1073.9 297.488C1037.32 304.541 1001.42 303.147 967.214 293.341C965.533 292.859 963.998 291.968 962.745 290.749C950.607 278.927 938.15 265.671 926.103 252.851C899.141 224.159 871.262 194.491 849.724 184.258C827.867 173.873 795.705 160.25 776.629 152.297C778.642 166.287 782.819 178.727 787.798 180.341C790.737 181.293 799.681 184.191 801.357 192.722C803.007 201.125 796.469 206.645 791.694 210.676C789.726 212.337 785.665 215.766 785.173 217.387C785.414 220.089 786.467 222.85 787.683 226.041C791.367 235.706 796.412 248.942 781.103 267.781C780.573 268.433 780.162 268.986 779.844 269.445L779.843 269.443Z" class="color474747 svgShape"></path>
  <path fill="#167ffc" d="M989.235 280.071C993.856 268.257 986.321 255.028 973.752 253.319C965.643 252.217 956.999 254.125 950.981 263.752C936.292 287.252 932.653 305.808 932.653 305.808C932.653 305.808 937.647 344.793 973.325 320.743L989.234 280.072L989.235 280.071Z" class="color474747 svgShape"></path>
  <path fill="#167ffc" d="M952.857 339.19C948.853 339.19 945.056 338.381 941.479 336.762C925.453 329.507 922.443 309.42 922.153 307.153C922.008 306.027 922.047 304.884 922.265 303.77C922.429 302.934 926.459 283.012 942.005 258.141C949.369 246.36 961.151 240.922 975.179 242.829C984.325 244.072 992.27 249.377 996.976 257.384C1001.75 265.499 1002.52 275.174 999.095 283.927L983.185 324.598C982.401 326.601 981.027 328.318 979.244 329.52C969.692 335.959 960.861 339.189 952.858 339.189L952.857 339.19ZM943.458 306.083C944.319 309.875 946.586 315.859 950.241 317.487C953.257 318.83 958.445 317.443 964.722 313.677L979.376 276.215C980.419 273.548 980.181 270.595 978.722 268.114C977.903 266.719 975.981 264.306 972.326 263.809C966.501 263.017 962.919 264.626 959.958 269.363C948.99 286.909 944.699 301.238 943.458 306.083Z" class="color474747 svgShape"></path>
  <path fill="#161616" d="M1382.28 443.48C1375.91 434.297 1371.31 426.715 1368.41 420.568C1368.41 420.568 1368.45 420.446 1368.33 420.402C1335.11 350.95 1519.35 480.024 1550.56 523.5C1559.48 535.945 1558.4 542.045 1552.15 544.084C1534.34 550.263 1475.3 525.935 1475.3 525.935" class="color161616 svgShape"></path>
  <path fill="#161616" d="M1544.83 552.077C1521.57 552.077 1481.47 536.112 1472.61 532.46C1469 530.975 1467.29 526.851 1468.77 523.247C1470.25 519.644 1474.38 517.926 1477.98 519.41C1501.48 529.086 1539.31 541.07 1549.84 537.417L1549.94 537.381C1549.76 536.237 1548.89 533.284 1544.82 527.615C1533.08 511.256 1495.02 478.919 1454.33 450.728C1433.71 436.436 1414.79 424.828 1399.62 417.158C1380.83 407.657 1373.54 407.179 1371.4 407.363C1371.45 408.493 1371.85 411.01 1373.92 415.689L1374.79 417.458C1374.89 417.677 1374.98 417.9 1375.06 418.127C1377.78 423.754 1382.16 430.927 1388.08 439.459C1390.3 442.662 1389.51 447.059 1386.3 449.281C1383.1 451.502 1378.7 450.707 1376.48 447.505C1370.66 439.109 1366.31 432.067 1363.25 426.083L1363.21 426.068L1362.43 424.424C1362.29 424.142 1362.16 423.862 1362.03 423.585L1361.96 423.449C1361.85 423.217 1361.74 422.986 1361.63 422.756L1360.77 420.936L1360.79 420.884C1355.33 408.223 1356.25 399.626 1363.54 395.307C1371.03 390.874 1383.57 393.452 1404.19 403.661C1419.86 411.421 1439.48 423.34 1460.93 438.129C1496.24 462.473 1541.14 498.285 1556.29 519.386C1563.14 528.935 1565.41 536.193 1563.43 542.229C1562.11 546.255 1558.91 549.288 1554.4 550.775C1551.76 551.681 1548.5 552.079 1544.83 552.079V552.077Z" class="color161616 svgShape"></path>
  <path fill="#167ffc" d="M1580.9 910.637L1552.79 871.023L1453.33 731.071L1430.98 699.454C1430.98 699.454 1550.89 522.478 1681.32 665.993C1791.36 786.922 1580.9 910.636 1580.9 910.636L1580.9 910.637Z" class="color474747 svgShape"></path>
  <path fill="#167ffc" d="M1578.89 920.004L1547.03 875.108L1447.58 735.16L1422.4 699.541L1425.14 695.497C1425.74 694.613 1440.08 673.6 1464.36 651.648C1496.84 622.275 1531.68 605.492 1565.12 603.111C1607.87 600.061 1648.71 619.628 1686.54 661.248C1713.22 690.564 1724.13 722.643 1718.98 756.591C1713.34 793.779 1688.89 832.088 1646.3 870.457C1614.98 898.678 1585.7 915.999 1584.47 916.722L1578.89 920.004ZM1439.66 699.508L1459.09 726.998L1558.54 866.936L1582.81 901.142C1592.7 894.823 1614.57 880.075 1637.06 859.787C1664.55 834.985 1698.65 796.578 1705.03 754.45C1709.5 724.921 1699.77 696.759 1676.09 670.745C1641.34 632.508 1604.37 614.489 1566.17 617.187C1502.1 621.714 1451.86 683.25 1439.66 699.509L1439.66 699.508Z" class="color474747 svgShape"></path>
  <path fill="#fe9526" d="M1552.79 871.023L1453.33 731.071C1488.1 698.803 1562.94 643.515 1626 696.018C1668.33 740.964 1643.96 820.812 1552.79 871.022L1552.79 871.023Z" class="colorf29797 svgShape"></path>
  <path fill="#167ffc" d="M1550.68 880.241 1443.99 730.112 1448.53 725.899C1466.57 709.158 1494.76 686.761 1526.64 675.127 1565.98 660.765 1600.93 665.969 1630.51 690.596L1630.84 690.869 1631.13 691.18C1648.83 709.969 1656.26 735.096 1652.04 761.931 1645.2 805.409 1610.27 847.425 1556.19 877.205L1550.68 880.241ZM1462.71 732.081 1554.85 861.746C1578.31 848.112 1597.53 832.157 1612.03 814.263 1626.23 796.754 1635.24 777.9 1638.09 759.739 1641.65 737.135 1635.79 716.891 1621.15 701.168 1595.78 680.227 1565.61 675.925 1531.48 688.386 1504.34 698.29 1479.78 716.851 1462.71 732.081ZM878.124 715.797 915.504 684.778 1047.7 575.227 1077.45 550.448C1077.45 550.448 1007.27 348.525 844.23 453.527 706.71 541.967 878.124 715.797 878.124 715.797Z" class="color474747 svgShape"></path>
  <path fill="#167ffc" d="M877.646 725.364L873.098 720.752C872.096 719.735 848.282 695.448 825.301 660.1C794.056 612.042 780.316 568.72 784.461 531.337C788.246 497.21 807.07 469.033 840.412 447.591C887.69 417.142 932.206 408.784 972.72 422.756C1004.41 433.682 1033.74 458.887 1057.54 495.647C1075.33 523.119 1083.77 547.123 1084.12 548.131L1085.73 552.745L1052.22 580.65L920.008 690.212L877.646 725.364ZM933.575 430.345C906.784 430.345 878.153 440.074 848.052 459.46C818.466 478.487 801.794 503.184 798.494 532.867C790.562 604.225 860.25 685.872 878.731 706.121L910.998 679.346L1043.2 569.792L1069.06 548.258C1061.46 529.409 1028.81 456.987 968.065 436.079C956.952 432.254 945.444 430.344 933.575 430.344V430.345Z" class="color474747 svgShape"></path>
  <path fill="#fe9526" d="M915.504 684.778L1047.7 575.227C1022.44 535.08 964.398 462.355 889.929 496.81C837.428 529.31 840.374 612.743 915.504 684.778Z" class="colorf29797 svgShape"></path>
  <path fill="#167ffc" d="M915.162 694.227L910.62 689.872C866.059 647.147 843.149 597.54 847.763 553.77C850.611 526.754 864.267 504.394 886.214 490.808L886.578 490.583L886.966 490.403C921.896 474.241 957.005 478.232 991.316 502.26C1019.11 521.725 1040.57 550.638 1053.68 571.466L1056.98 576.708L915.163 694.226L915.162 694.227ZM893.283 503.035C875.083 514.448 864.2 532.494 861.801 555.25C859.873 573.532 863.715 594.073 872.908 614.651C882.304 635.683 896.756 656.056 915.902 675.282L1038.38 573.783C1025.82 554.664 1006.88 530.393 983.218 513.823C953.45 492.975 923.195 489.348 893.282 503.034L893.283 503.035Z" class="color474747 svgShape"></path>
  <path fill="#f7f7f7" d="M877.012 1373.68C905.889 1387.49 939.416 1400.1 977.953 1411.32C1084.33 1451.81 1079.02 1493.02 1205.82 1429.9C1282.96 1391.31 1528.55 1411.39 1598.98 1214.89C1622.99 1148.46 1626.81 1057.17 1597.36 930.526C1597.36 930.526 1622.1 530.855 1183.57 523.875C979.307 522.906 760.907 657.048 761.07 954.059C695.188 1123.11 674.925 1277.44 877.012 1373.67V1373.68Z" class="colorf7f7f7 svgShape"></path>
  <path fill="#167ffc" d="M1106.55 1473.02H1106.39C1080.62 1472.98 1061.14 1462.83 1036.48 1449.97C1019.75 1441.25 1000.81 1431.37 974.58 1421.36C936.432 1410.23 902.066 1397.4 872.443 1383.22C775.517 1337.06 721.762 1274.81 708.11 1192.91C697.506 1129.3 710.577 1054.95 750.485 952.068C750.666 885.46 761.766 824.022 783.485 769.429C803.791 718.387 833.311 673.364 871.223 635.61C949.36 557.801 1062.29 513.282 1181.35 513.282C1182.11 513.282 1182.86 513.284 1183.62 513.287C1183.66 513.287 1183.7 513.287 1183.74 513.288C1322.98 515.504 1430.88 556.957 1504.47 636.496C1563.48 700.283 1588.46 776.947 1599.03 830.028C1609.36 881.908 1608.37 921.198 1608 929.576C1622.09 990.55 1629.09 1046.32 1628.8 1095.35C1628.53 1141.32 1621.85 1182.75 1608.93 1218.48C1585.08 1285.05 1540.37 1333.59 1472.27 1366.85C1414.93 1394.85 1350.42 1407.02 1298.59 1416.79C1261.65 1423.75 1229.74 1429.77 1210.55 1439.36C1163.17 1462.95 1132.06 1473.02 1106.55 1473.02L1106.55 1473.02ZM1181.35 534.456C1067.84 534.456 960.365 576.722 886.163 650.613C850.315 686.312 822.388 728.921 803.158 777.256C782.22 829.888 771.62 889.371 771.656 954.053C771.656 955.37 771.411 956.676 770.933 957.903C731.922 1058 718.988 1129.41 728.994 1189.43C741.426 1264.01 791.332 1321.15 881.563 1364.12C881.569 1364.12 881.575 1364.12 881.581 1364.12C910.278 1377.86 943.698 1390.32 980.912 1401.16C981.184 1401.23 981.453 1401.32 981.718 1401.43C1009.31 1411.93 1029.8 1422.61 1046.26 1431.19C1069.67 1443.4 1085.84 1451.83 1107.05 1451.83C1128.75 1451.83 1155.71 1443.02 1201.1 1420.42C1222.92 1409.51 1256.17 1403.24 1294.67 1395.98C1397.93 1376.52 1539.36 1349.86 1589.01 1211.32C1614.37 1141.17 1613.7 1047.51 1587.04 932.924C1586.81 931.924 1586.73 930.896 1586.79 929.871C1586.81 929.469 1589.14 888.341 1578.12 833.463C1568.04 783.206 1544.35 710.706 1488.78 650.72C1419.29 575.708 1316.57 536.594 1183.47 534.461C1182.77 534.458 1182.05 534.456 1181.35 534.456Z" class="color474747 svgShape"></path>
  <path fill="#fe9526" d="M835.856 1148.01C835.365 1159.09 854.294 1168.93 878.135 1169.99C901.976 1171.04 921.701 1162.91 922.192 1151.83C922.683 1140.75 903.754 1130.9 879.913 1129.85C856.072 1128.79 836.347 1136.92 835.856 1148.01ZM1295.74 1156C1319.6 1155.72 1339.06 1164.48 1339.19 1175.58C1339.32 1186.67 1320.08 1195.9 1296.22 1196.18C1272.36 1196.47 1252.9 1187.7 1252.77 1176.61C1252.64 1165.51 1271.88 1156.29 1295.74 1156Z" class="colorf29797 svgShape"></path>
  <path fill="#167ffc" d="M1046.93 1147.41C1077.97 1150.41 1135.4 1098.23 1057.53 1086.89C979.651 1075.55 1019.57 1144.76 1046.93 1147.41Z" class="color474747 svgShape"></path>
  <path fill="#167ffc" d="M1005.7 1269.96C1001.92 1269.96 998.035 1269.63 994.057 1268.94C964.207 1263.77 932.283 1237.11 931.915 1197.87C931.86 1192.03 936.555 1187.24 942.402 1187.19C942.435 1187.19 942.47 1187.19 942.503 1187.19C948.304 1187.19 953.032 1191.86 953.087 1197.67C953.347 1225.44 976.25 1244.37 997.668 1248.07C1006.63 1249.62 1028.26 1250.51 1038.03 1226.07L1044.39 1124.33C1044.76 1118.5 1049.78 1114.07 1055.62 1114.43C1061.45 1114.79 1065.89 1119.82 1065.52 1125.65L1059.06 1229C1059 1230.02 1058.79 1231.03 1058.43 1231.99C1049.57 1256.11 1029.92 1269.96 1005.7 1269.96L1005.7 1269.96Z" class="color474747 svgShape"></path>
  <path fill="#167ffc" d="M1106.04 1281.75C1104.75 1281.75 1103.45 1281.71 1102.15 1281.62 1078.09 1280.02 1056.97 1263.88 1039.35 1233.67 1036.41 1228.62 1038.11 1222.14 1043.16 1219.2 1048.21 1216.25 1054.7 1217.96 1057.64 1223.01 1071.48 1246.74 1086.91 1259.35 1103.49 1260.49 1132.22 1262.47 1157.68 1230.44 1157.93 1230.12 1161.54 1225.53 1168.19 1224.71 1172.79 1228.3 1177.39 1231.9 1178.22 1238.53 1174.63 1243.14 1173.36 1244.77 1144.12 1281.75 1106.04 1281.75V1281.75ZM968.294 1061.75C987.974 1034.65 982.272 771.151 884.787 862.439 787.302 953.727 768.886 1089.64 854.131 1094.23 960.101 1099.93 968.294 1061.75 968.294 1061.75ZM1177.23 1066.93C1156.09 1040.46 1166.9 779.673 1272.38 868.303 1377.85 956.933 1395.73 1091.08 1302.04 1097.09 1185.57 1104.56 1177.23 1066.93 1177.23 1066.93Z" class="color474747 svgShape"></path>
  <path fill="#f7f7f7" d="M1198.76 1037.3C1196.63 1037.3 1194.48 1036.66 1192.62 1035.33 1187.87 1031.93 1186.76 1025.35 1190.14 1020.6 1191.01 1019.38 1211.78 990.621 1243.77 987.534 1262.77 985.701 1281.19 993.126 1298.51 1009.61 1302.75 1013.64 1302.92 1020.34 1298.89 1024.57 1294.86 1028.81 1288.15 1028.98 1283.92 1024.95 1271.28 1012.92 1258.5 1007.42 1245.92 1008.6 1223.61 1010.68 1207.54 1032.67 1207.38 1032.89 1205.31 1035.76 1202.06 1037.3 1198.76 1037.3ZM845.209 1038.56C843.079 1038.56 840.93 1037.92 839.068 1036.59 834.323 1033.19 833.209 1026.62 836.588 1021.86 837.457 1020.64 858.232 991.884 890.216 988.797 909.222 986.964 927.641 994.39 944.964 1010.87 949.2 1014.9 949.366 1021.6 945.336 1025.84 941.306 1030.07 934.605 1030.24 930.369 1026.21 917.733 1014.19 904.938 1008.69 892.366 1009.86 870.06 1011.94 853.987 1033.93 853.827 1034.15 851.756 1037.03 848.506 1038.56 845.209 1038.56Z" class="colorf7f7f7 svgShape"></path>
  <path fill="#707070" d="M1056.22 2087.49C1056.22 2087.49 1053.37 2137.68 1098.71 2139.41C1144.05 2141.14 1163.24 2061.08 1163.24 2061.08L1056.22 2087.49Z" class="color707070 svgShape"></path>
  <path fill="#167ffc" d="M1100.19 2150.02C1099.56 2150.02 1098.94 2150.01 1098.3 2149.99C1082.78 2149.39 1070.24 2143.96 1061.02 2133.82C1044.24 2115.36 1045.58 2088.05 1045.65 2086.89C1045.91 2082.25 1049.17 2078.33 1053.68 2077.21L1160.71 2050.8C1164.29 2049.92 1168.08 2050.97 1170.7 2053.57C1173.32 2056.18 1174.4 2059.96 1173.54 2063.55C1172.68 2067.12 1152.19 2150.02 1100.19 2150.02L1100.19 2150.02ZM1067.16 2095.7C1067.94 2102.52 1070.22 2112.52 1076.76 2119.66C1082.07 2125.46 1089.38 2128.46 1099.11 2128.83C1099.44 2128.84 1099.77 2128.85 1100.09 2128.85C1122.83 2128.85 1139.15 2098.66 1147.59 2075.85L1067.16 2095.7Z" class="color474747 svgShape"></path>
  <path fill="#707070" d="M1817.93 2016.29C1748.63 2085.73 1680.45 1976.62 1680.45 1976.62L1681.01 1976.06C1709.39 1979.02 1741.29 1969.99 1773.19 1962.09C1839.95 1945.57 1847.86 1827.57 1847.86 1827.57C1847.86 1827.57 1887.24 1946.98 1817.93 2016.29Z" class="color707070 svgShape"></path>
  <path fill="#167ffc" d="M1768.98 2050.01C1766.34 2050.01 1763.69 2049.85 1761.01 2049.55 1710.49 2043.82 1673.04 1984.75 1671.47 1982.24 1668.86 1978.06 1669.48 1972.64 1672.95 1969.15L1673.52 1968.58C1675.77 1966.32 1678.93 1965.2 1682.11 1965.53 1706.01 1968.03 1733.1 1961.23 1761.78 1954.03 1764.73 1953.29 1767.69 1952.54 1770.64 1951.81 1800.42 1944.44 1816.91 1911.6 1825.49 1885.34 1835.29 1855.39 1837.27 1827.14 1837.29 1826.86 1837.63 1821.81 1841.5 1817.7 1846.52 1817.07 1851.55 1816.44 1856.32 1819.45 1857.91 1824.26 1858.33 1825.53 1868.25 1856.02 1869.46 1895.62 1871.1 1949 1855.87 1993.31 1825.42 2023.77 1808.02 2041.2 1789.07 2050.01 1768.97 2050.01H1768.98ZM1701.27 1986.94C1714.51 2002.93 1737.54 2025.6 1763.45 2028.52 1779.98 2030.37 1795.35 2023.93 1810.44 2008.81 1810.44 2008.81 1810.44 2008.8 1810.44 2008.8 1836.93 1982.31 1849.67 1944.63 1848.32 1896.81 1848.2 1892.89 1848 1889.06 1847.72 1885.34 1837.07 1921.15 1816.2 1962.35 1775.73 1972.36 1772.8 1973.09 1769.86 1973.82 1766.93 1974.56 1745.1 1980.04 1722.71 1985.66 1701.27 1986.94L1701.27 1986.94ZM2208.92 2490.98C1980.68 2729.52 1745.52 2486.32 1733.1 2473.2 1732.81 2472.77 1732.67 2472.63 1732.67 2472.63 1732.67 2472.63 1827.81 2268.38 1944.54 2187.93 1969.67 2170.57 1995.78 2158.99 2022.17 2156.45 2022.17 2156.45 2291.49 2395.56 2208.92 2490.98L2208.92 2490.98Z" class="color474747 svgShape"></path>
  <path fill="#167ffc" d="M1991.33 2605.93C1991.08 2605.93 1990.83 2605.93 1990.58 2605.93C1847.86 2605.53 1737.52 2493.27 1725.41 2480.47C1725.05 2480.1 1724.72 2479.69 1724.43 2479.27C1721.92 2476.15 1721.36 2471.85 1723.08 2468.16C1723.32 2467.65 1747.58 2415.8 1785.87 2354.82C1837.57 2272.48 1888.93 2213.4 1938.53 2179.21C1966.81 2159.68 1994.61 2148.47 2021.16 2145.92C2024.09 2145.63 2027 2146.58 2029.2 2148.54C2029.88 2149.14 2097.88 2209.75 2154.8 2281.35C2188.58 2323.83 2212.02 2361.97 2224.47 2394.69C2241.04 2438.24 2238.5 2472.97 2216.92 2497.91C2216.81 2498.04 2216.69 2498.17 2216.57 2498.3C2148.23 2569.72 2072.45 2605.93 1991.33 2605.93L1991.33 2605.93ZM1745.39 2470.62C1756.03 2481.21 1781.68 2505.11 1818.19 2528.52C1876.15 2565.68 1934.16 2584.6 1990.64 2584.75C1990.86 2584.75 1991.1 2584.75 1991.33 2584.75C2066.38 2584.75 2136.94 2550.82 2201.08 2483.86C2221.85 2459.61 2227.7 2407.13 2138.37 2294.7C2089.9 2233.7 2033.12 2180.74 2018.64 2167.52C1997.05 2170.54 1974.17 2180.32 1950.56 2196.63C1904 2228.73 1853.25 2287.32 1803.8 2366.08C1774.04 2413.47 1752.99 2455.08 1745.39 2470.62L1745.39 2470.62ZM1725.07 2480C1725.11 2480.04 1725.16 2480.08 1725.2 2480.13C1725.16 2480.09 1725.12 2480.04 1725.07 2480ZM1725.06 2479.98C1725.06 2479.98 1725.07 2479.99 1725.07 2480C1725.07 2479.99 1725.06 2479.99 1725.06 2479.98Z" class="color474747 svgShape"></path>
  <path fill="#595bd4" d="M1692.25 2260.34C1692.16 2260.34 1692.08 2260.34 1691.99 2260.33C1691.31 2260.32 1622.82 2258.59 1546.04 2246.16C1441.38 2229.23 1371.66 2201.38 1338.79 2163.38C1334.96 2158.96 1335.45 2152.27 1339.87 2148.45C1344.29 2144.62 1350.98 2145.11 1354.8 2149.53C1383.89 2183.15 1451.1 2209.33 1549.18 2225.22C1624.57 2237.44 1691.82 2239.15 1692.49 2239.17C1698.34 2239.3 1702.96 2244.15 1702.83 2250C1702.69 2255.76 1697.98 2260.33 1692.25 2260.33L1692.25 2260.34Z" class="color848484 svgShape"></path>
  <path fill="#595bd4" d="M1538.5 2203.48C1533.53 2203.48 1529.1 2199.97 1528.12 2194.92C1527 2189.18 1530.75 2183.62 1536.49 2182.5C1536.76 2182.45 1564.11 2177.06 1599.13 2165.53C1645 2150.44 1683.22 2131.7 1709.66 2111.35C1714.29 2107.78 1720.94 2108.65 1724.51 2113.28C1728.07 2117.92 1727.21 2124.56 1722.57 2128.13C1654.29 2180.69 1545.15 2202.39 1540.53 2203.29C1539.85 2203.42 1539.17 2203.48 1538.5 2203.48Z" class="color848484 svgShape"></path>
  <path fill="#167ffc" d="M1847.85 1827.57C1847.85 1827.57 1839.95 1945.57 1773.18 1962.09C1741.28 1969.99 1709.38 1979.02 1681.01 1976.06C1649.68 1972.96 1622.43 1955.45 1603.8 1906.47L1847.85 1827.57Z" class="color474747 svgShape"></path>
  <path fill="#167ffc" d="M1692.44 1987.22C1688.21 1987.22 1684.04 1987.02 1679.91 1986.59C1640.1 1982.64 1611.95 1957.67 1593.91 1910.24C1592.88 1907.52 1593.01 1904.51 1594.26 1901.89C1595.52 1899.28 1597.79 1897.29 1600.55 1896.4L1844.6 1817.5C1847.94 1816.42 1851.6 1817.06 1854.37 1819.22C1857.14 1821.38 1858.65 1824.77 1858.42 1828.28C1858.07 1833.41 1849.15 1954.2 1775.73 1972.36C1772.8 1973.09 1769.87 1973.83 1766.94 1974.56C1742.09 1980.8 1716.52 1987.22 1692.44 1987.22H1692.44ZM1617.98 1913.02C1637.51 1956.08 1663.61 1963.7 1682.06 1965.52C1706 1968.03 1733.1 1961.23 1761.78 1954.03C1764.73 1953.28 1767.69 1952.54 1770.64 1951.81C1800.32 1944.47 1816.78 1911.82 1825.37 1885.72C1830.68 1869.59 1833.72 1853.86 1835.4 1842.72L1617.98 1913.02Z" class="color474747 svgShape"></path>
  <path fill="#f7f7f7" d="M2148.79 1739.63C2148.79 1739.63 1411.13 1979.73 1377.4 2007.96C1343.8 2036.19 1338.86 2375.94 1338.86 2375.94L1109.78 2312.99C1114.43 2024.9 1280.29 2020.95 1295.95 1846.48C1310.21 1687.69 1588.56 1345.68 1638.39 1285.41C1643.47 1279.48 1646.15 1276.23 1646.15 1276.23C1710.8 1196.48 1782.78 1212.86 1782.78 1212.86C2043.07 1308.98 2127.33 1635.74 2144.98 1719.73C2147.66 1732.43 2148.79 1739.63 2148.79 1739.63L2148.79 1739.63Z" class="colorf7f7f7 svgShape"></path>
  <path fill="#167ffc" d="M1338.86 2386.53C1337.92 2386.53 1336.98 2386.4 1336.06 2386.15L1106.97 2323.2C1102.31 2321.92 1099.11 2317.64 1099.19 2312.82C1101.92 2143.68 1159.39 2069.99 1210.1 2004.98C1247.08 1957.56 1279.03 1916.61 1285.41 1845.54C1291.59 1776.68 1345.32 1668.17 1445.11 1523C1520.26 1413.67 1599.6 1315.71 1630.23 1278.66C1630.27 1278.61 1630.31 1278.57 1630.35 1278.52C1635.29 1272.75 1637.96 1269.52 1637.99 1269.49C1657.41 1245.53 1690.31 1214.69 1736.38 1204.31C1764.48 1197.98 1784.3 1202.35 1785.13 1202.53C1785.58 1202.64 1786.02 1202.77 1786.45 1202.93C1848 1225.65 1904.45 1262.81 1954.25 1313.37C1995.4 1355.15 2032.4 1406.46 2064.2 1465.85C2121.02 1571.93 2146.86 1677.21 2155.34 1717.55C2158.04 1730.37 2159.2 1737.69 2159.25 1737.99C2160.05 1743.13 2157.01 1748.09 2152.07 1749.7C2150.22 1750.3 1965.75 1810.37 1779.44 1873.14C1440.82 1987.22 1390.23 2011.11 1384.19 2016.08C1382.8 2017.25 1375.36 2025.86 1367.69 2078.86C1363.14 2110.25 1359.24 2152.06 1356.1 2203.12C1350.74 2290.33 1349.46 2375.25 1349.45 2376.1C1349.4 2379.37 1347.84 2382.44 1345.22 2384.41C1343.37 2385.8 1341.13 2386.53 1338.86 2386.53ZM1120.54 2304.97L1328.54 2362.12C1329.13 2334.49 1330.85 2268.87 1334.97 2201.89C1338.14 2150.23 1342.1 2107.83 1346.73 2075.85C1354.9 2019.4 1363.77 2005.58 1370.59 1999.86C1376.2 1995.16 1393.21 1980.92 1772.36 1853.18C1935.77 1798.12 2097.83 1745.12 2136.74 1732.43C2136.19 1729.55 2135.49 1726.03 2134.62 1721.92C2126.33 1682.46 2101.06 1579.51 2045.54 1475.84C2014.68 1418.23 1978.89 1368.57 1939.16 1328.23C1891.78 1280.12 1838.2 1244.75 1779.9 1223.08C1776.86 1222.54 1761.23 1220.21 1739.92 1225.22C1708.12 1232.69 1679.34 1252.1 1654.37 1282.9C1654.2 1283.11 1651.53 1286.34 1646.48 1292.23C1616 1329.11 1537.18 1426.43 1462.55 1535C1366.23 1675.12 1312.27 1783.16 1306.5 1847.43C1299.56 1924.72 1264.21 1970.03 1226.79 2018.01C1201.86 2049.98 1176.07 2083.04 1156.03 2128.49C1134.06 2178.28 1122.43 2236.09 1120.54 2304.97L1120.54 2304.97Z" class="color474747 svgShape"></path>
  <path fill="#595bd4" d="M1205.17 1843.69C1202.36 1843.69 1199.56 1842.58 1197.48 1840.39C1197.03 1839.92 1171.29 1813.51 1119.94 1795.6C1089.66 1785.05 1056.5 1779.46 1021.37 1778.99C977.271 1778.39 929.913 1785.93 880.609 1801.37C875.03 1803.11 869.09 1800 867.343 1794.43C865.596 1788.85 868.703 1782.91 874.283 1781.16C926.105 1764.94 976.026 1757.09 1022.67 1757.83C1060.23 1758.43 1095.75 1764.58 1128.26 1776.09C1184.15 1795.88 1211.71 1824.62 1212.86 1825.83C1216.88 1830.08 1216.68 1836.78 1212.43 1840.8C1210.39 1842.73 1207.77 1843.69 1205.17 1843.69L1205.17 1843.69Z" class="color848484 svgShape"></path>
  <path fill="#595bd4" d="M805.228 1815.69C804.605 1815.69 803.975 1815.64 803.341 1815.53 797.587 1814.49 793.761 1808.99 794.797 1803.23 810.737 1714.65 979.914 1726.83 987.108 1727.4 992.937 1727.85 997.293 1732.95 996.837 1738.78 996.381 1744.61 991.287 1748.96 985.458 1748.51 984.874 1748.46 944.137 1745.44 902.464 1751.97 878.583 1755.72 859.152 1761.8 844.711 1770.06 827.886 1779.67 818.376 1791.75 815.635 1806.98 814.714 1812.1 810.254 1815.69 805.228 1815.69ZM902.998 1645.58C899.686 1645.58 896.424 1644.03 894.359 1641.13 893.629 1640.1 820.528 1538.88 751.493 1571.09 746.197 1573.57 739.896 1571.28 737.423 1565.98 734.951 1560.68 737.241 1554.38 742.54 1551.91 778.281 1535.23 819.167 1543.65 860.778 1576.27 890.888 1599.87 910.789 1627.69 911.622 1628.87 915.006 1633.64 913.884 1640.24 909.116 1643.63 907.257 1644.95 905.117 1645.58 902.998 1645.58V1645.58ZM993.373 2173.95C961.725 2173.95 921.631 2170.83 870.931 2162.52 865.161 2161.58 861.25 2156.13 862.195 2150.36 863.141 2144.6 868.586 2140.69 874.354 2141.63 1053.31 2170.95 1090.27 2132.97 1090.62 2132.58 1090.44 2132.78 1090.37 2132.89 1090.37 2132.89L1107.05 2145.93C1104.16 2149.62 1081.72 2173.95 993.373 2173.95Z" class="color848484 svgShape"></path>
  <path fill="#167ffc" d="M1177.15 2057.65L1056.22 2087.49C1056.22 2087.49 1101.43 1845.19 1205.17 1833.1C1308.9 1821.01 1502 1793.83 1502 1976.89C1502 2030.73 1393.93 2063.67 1354.83 2079.19C1315.73 2094.7 1196.89 2028.95 1196.89 2028.95L1177.15 2057.65Z" class="color474747 svgShape"></path>
  <path fill="#167ffc" d="M1056.22 2098.08C1053.55 2098.08 1050.94 2097.07 1048.95 2095.19C1046.34 2092.72 1045.15 2089.09 1045.81 2085.55C1046.28 2083.04 1057.58 2023.28 1081.93 1960.98C1115.68 1874.65 1156.73 1828.09 1203.94 1822.58L1211.49 1821.7C1287.36 1812.78 1402.02 1799.29 1466.33 1856.48C1497.02 1883.77 1512.58 1924.28 1512.58 1976.89C1512.58 2031.7 1426.49 2063.72 1375.05 2082.85C1368.73 2085.2 1363.26 2087.23 1358.73 2089.03C1339.59 2096.63 1306.35 2090.29 1257.11 2069.65C1233.07 2059.58 1211.6 2048.72 1200.24 2042.76L1185.87 2063.65C1184.4 2065.79 1182.2 2067.31 1179.69 2067.93L1058.76 2097.77C1057.92 2097.98 1057.06 2098.08 1056.22 2098.08L1056.22 2098.08ZM1318.44 1834.79C1281.48 1834.79 1244.44 1839.14 1213.97 1842.73L1206.39 1843.62C1158.09 1849.25 1122.83 1914.59 1101.76 1968.42C1085.51 2009.91 1075.07 2051.17 1070.08 2073.17L1170.71 2048.34L1188.17 2022.95C1191.26 2018.46 1197.25 2017.05 1202.02 2019.69C1202.31 2019.85 1231.76 2036.08 1265.45 2050.19C1306.81 2067.51 1337.96 2074.49 1350.92 2069.35C1355.67 2067.47 1361.23 2065.4 1367.67 2063C1390.93 2054.35 1422.78 2042.51 1448.79 2027.08C1477.07 2010.31 1491.41 1993.42 1491.41 1976.89C1491.41 1930.59 1478.24 1895.4 1452.26 1872.3C1419.23 1842.93 1368.92 1834.79 1318.44 1834.79Z" class="color474747 svgShape"></path>
  <path fill="#595bd4" d="M1795.32 2050C1790.07 2050 1785.51 2046.09 1784.83 2040.73C1784.1 2034.93 1788.21 2029.64 1794.02 2028.91C1830.78 2024.28 1862.63 2010.26 1888.68 1987.24C1908.25 1969.94 1917.04 1953.75 1917.13 1953.58C1919.89 1948.44 1926.29 1946.48 1931.44 1949.23C1936.59 1951.97 1938.56 1958.34 1935.84 1963.5C1935.43 1964.28 1925.59 1982.65 1903.48 2002.41C1883.25 2020.5 1848.3 2043.42 1796.66 2049.92C1796.21 2049.97 1795.77 2050 1795.33 2050H1795.32Z" class="color848484 svgShape"></path>
  <path fill="#f7f7f7" d="M2144.98 1719.73C2125.64 1719.45 2099.1 1718.46 2067.91 1715.35H2067.77C2011.59 1709.85 1940.87 1697.85 1872.98 1672.16C1734.79 1619.94 1608.18 1511.11 1638.39 1285.41C1643.47 1279.48 1646.15 1276.23 1646.15 1276.23C1710.8 1196.48 1782.78 1212.86 1782.78 1212.86C1981.38 1286.26 2077.51 1493.75 2119.71 1625.44C2123.24 1636.17 2126.35 1646.61 2129.17 1656.21C2136.79 1683.17 2141.87 1705.05 2144.98 1719.73Z" class="colorf7f7f7 svgShape"></path>
  <path fill="#167ffc" d="M2144.98 1730.31C2144.93 1730.31 2144.87 1730.31 2144.82 1730.31C2118.92 1729.94 2092.82 1728.46 2067.26 1725.93C2067.09 1725.92 2066.91 1725.91 2066.74 1725.89C1993.6 1718.72 1927.15 1703.98 1869.23 1682.06C1787.68 1651.24 1725.35 1606.83 1683.98 1550.07C1632.57 1479.54 1613.7 1390.03 1627.89 1284C1628.16 1281.98 1629.02 1280.07 1630.35 1278.52C1635.29 1272.75 1637.96 1269.52 1637.99 1269.49C1673.23 1226.01 1710.95 1210.04 1736.38 1204.31C1764.48 1197.98 1784.3 1202.35 1785.13 1202.53C1785.58 1202.64 1786.02 1202.77 1786.46 1202.93C1876.45 1236.19 1954.54 1299.54 2018.58 1391.23C2075.39 1472.57 2110.41 1561.74 2129.79 1622.21C2133.36 1633.06 2136.46 1643.48 2139.33 1653.22C2139.34 1653.26 2139.35 1653.3 2139.36 1653.33C2147.23 1681.16 2152.39 1703.61 2155.34 1717.54C2156 1720.69 2155.2 1723.97 2153.15 1726.46C2151.14 1728.9 2148.14 1730.31 2144.98 1730.31H2144.98ZM2068.4 1704.78C2068.59 1704.79 2068.77 1704.8 2068.96 1704.82C2089.66 1706.88 2110.72 1708.23 2131.74 1708.85C2128.76 1695.84 2124.58 1678.89 2119 1659.15C2116.18 1649.58 2113.14 1639.36 2109.65 1628.75C2090.69 1569.58 2056.51 1482.53 2001.22 1403.35C1939.89 1315.54 1865.43 1254.89 1779.9 1223.08C1776.86 1222.54 1761.22 1220.22 1739.92 1225.22C1708.12 1232.69 1679.34 1252.1 1654.37 1282.9C1654.22 1283.08 1652.23 1285.49 1648.47 1289.9C1635.8 1388.98 1653.5 1472.3 1701.09 1537.6C1739.99 1590.98 1799.08 1632.92 1876.72 1662.26C1932.79 1683.47 1997.28 1697.78 2068.4 1704.78L2068.4 1704.78Z" class="color474747 svgShape"></path>
  <path fill="#53d86a" d="M1617.67 1306.32C1617.67 1306.32 1574.99 1261 1588.24 1210.37C1601.49 1159.74 1590.83 1127.07 1590.83 1127.07C1590.83 1127.07 1734.79 1211.31 1673.33 1298.31C1673.33 1298.31 1633.53 1331.36 1665.77 1372.66L1659.14 1391.62C1659.14 1391.62 1618.93 1336.06 1617.67 1306.32Z" class="color83c49f svgShape"></path>
  <path fill="#167ffc" d="M1659.14 1402.2C1655.77 1402.2 1652.57 1400.6 1650.56 1397.82C1646.43 1392.11 1611.42 1342.94 1607.43 1310.71C1597.79 1299.33 1565.26 1256.36 1578 1207.69C1590.19 1161.12 1580.85 1130.61 1580.75 1130.31C1579.43 1126.13 1580.81 1121.55 1584.23 1118.82C1587.65 1116.09 1592.4 1115.72 1596.18 1117.93C1599.72 1120 1683.06 1169.43 1697.16 1234.55C1702.48 1259.12 1697.37 1282.63 1681.98 1304.42C1681.44 1305.18 1680.81 1305.87 1680.09 1306.46C1680.04 1306.5 1671.61 1313.72 1666.88 1324.87C1660.97 1338.83 1663.33 1352.33 1674.11 1366.15C1676.33 1368.99 1676.95 1372.76 1675.76 1376.15L1669.13 1395.11C1667.83 1398.83 1664.57 1401.52 1660.67 1402.09C1660.16 1402.17 1659.65 1402.2 1659.14 1402.2L1659.14 1402.2ZM1605.09 1149.39C1606.13 1164.88 1605.37 1186.72 1598.48 1213.05C1593.7 1231.3 1596.62 1251.14 1607.16 1272.01C1615.36 1288.25 1625.29 1298.97 1625.39 1299.07C1627.12 1300.92 1628.14 1303.34 1628.25 1305.87C1628.62 1314.63 1633.76 1328.51 1642.86 1345.53C1641.61 1333.86 1644.28 1323.64 1647.77 1315.72C1653.4 1302.95 1662.16 1294.17 1665.36 1291.23C1676.82 1274.56 1680.45 1257.47 1676.46 1239.02C1668.18 1200.76 1629.27 1167.09 1605.09 1149.39V1149.39Z" class="color474747 svgShape"></path>
  <path fill="#fe9526" d="M1963.12 1291.07C1971.25 1256.22 1949.55 1221.77 1916.34 1208.45C1889.06 1197.51 1853.84 1190.55 1831.52 1213.29C1790.79 1254.79 1827.49 1346.82 1877.35 1346.99C1912.7 1347.11 1953.79 1331.06 1963.12 1291.07Z" class="colorf29797 svgShape"></path>
  <path fill="#167ffc" d="M1877.74 1357.57C1877.6 1357.57 1877.46 1357.57 1877.31 1357.57C1851.02 1357.48 1826.18 1337.07 1812.48 1304.29C1797.05 1267.34 1801.56 1228.71 1823.97 1205.87C1845.1 1184.34 1878.41 1181.83 1920.28 1198.62C1938.84 1206.06 1954.5 1219.46 1964.37 1236.34C1974.69 1253.99 1977.9 1274.28 1973.43 1293.48C1968.48 1314.68 1955.27 1331.9 1935.21 1343.28C1918.95 1352.5 1898.56 1357.57 1877.74 1357.57ZM1870.82 1208.85C1858.87 1208.85 1847.6 1212.03 1839.08 1220.7C1826.6 1233.42 1817.26 1260.8 1832.02 1296.13C1842.21 1320.54 1860.02 1336.34 1877.38 1336.4C1877.53 1336.4 1877.68 1336.4 1877.82 1336.4C1924.94 1336.4 1947.66 1310.72 1952.81 1288.67C1959.4 1260.42 1942.02 1230.15 1912.4 1218.27C1899.85 1213.24 1884.87 1208.85 1870.82 1208.85V1208.85Z" class="color474747 svgShape"></path>
  <path fill="#167ffc" d="M1908.91 1334.96C1907.89 1334.96 1906.85 1334.81 1905.82 1334.5C1905.27 1334.33 1892.22 1330.31 1877.54 1322.48C1856.81 1311.42 1843.31 1298.48 1837.43 1284.04C1832.12 1271.01 1833.27 1256.89 1840.77 1243.22C1848.07 1229.87 1858.2 1220.8 1870.05 1216.98C1880.62 1213.58 1892.03 1214.37 1903.04 1219.28C1923.95 1228.6 1941.43 1253.12 1933.23 1276.47C1928.74 1289.25 1920.58 1293.32 1914.52 1294.48C1893.88 1298.45 1869.78 1272.22 1865.16 1266.92C1861.31 1262.52 1861.77 1255.83 1866.17 1251.98C1870.58 1248.14 1877.27 1248.6 1881.11 1253C1892.41 1265.91 1905.95 1274.58 1910.53 1273.69C1911.33 1273.53 1912.4 1271.87 1913.25 1269.46C1916.82 1259.3 1907.84 1244.6 1894.42 1238.62C1886.32 1235 1870.99 1232.12 1859.33 1253.39C1854.88 1261.51 1854.13 1268.92 1857.03 1276.05C1865.22 1296.14 1899.48 1310.43 1911.99 1314.24C1917.58 1315.94 1920.74 1321.86 1919.03 1327.45C1917.64 1332.02 1913.45 1334.96 1908.91 1334.96Z" class="color474747 svgShape"></path>
  <path fill="#fe9526" d="M1998.34 1449.8C2006.47 1414.94 1984.78 1380.49 1951.56 1367.17C1924.28 1356.23 1889.07 1349.28 1866.75 1372.01C1826.02 1413.51 1862.72 1505.54 1912.58 1505.71C1947.93 1505.83 1989.02 1489.78 1998.34 1449.8Z" class="colorf29797 svgShape"></path>
  <path fill="#167ffc" d="M1912.97 1516.3C1912.83 1516.3 1912.68 1516.3 1912.54 1516.3C1886.24 1516.21 1861.4 1495.79 1847.71 1463.01C1832.28 1426.06 1836.78 1387.43 1859.2 1364.6C1880.33 1343.07 1913.63 1340.56 1955.5 1357.35C1974.07 1364.79 1989.73 1378.19 1999.6 1395.07C2009.92 1412.71 2013.13 1433 2008.65 1452.2C2003.71 1473.41 1990.49 1490.63 1970.44 1502C1954.18 1511.23 1933.78 1516.3 1912.97 1516.3L1912.97 1516.3ZM1906.05 1367.57C1894.1 1367.57 1882.82 1370.75 1874.31 1379.43C1861.83 1392.14 1852.49 1419.52 1867.25 1454.85C1877.44 1479.26 1895.25 1495.07 1912.61 1495.12C1912.76 1495.12 1912.9 1495.12 1913.05 1495.12C1960.17 1495.13 1982.89 1469.44 1988.03 1447.39C1994.62 1419.14 1977.25 1388.88 1947.62 1377C1935.08 1371.96 1920.09 1367.57 1906.04 1367.57L1906.05 1367.57Z" class="color474747 svgShape"></path>
  <path fill="#167ffc" d="M1944.13 1493.68C1943.11 1493.68 1942.08 1493.53 1941.05 1493.22C1940.5 1493.05 1927.44 1489.04 1912.77 1481.2C1892.04 1470.14 1878.54 1457.2 1872.65 1442.76C1867.34 1429.73 1868.5 1415.62 1875.99 1401.94C1883.3 1388.6 1893.43 1379.53 1905.28 1375.71C1915.85 1372.3 1927.26 1373.09 1938.27 1378C1959.17 1387.33 1976.66 1411.84 1968.45 1435.2C1963.96 1447.97 1955.8 1452.04 1949.74 1453.2C1929.1 1457.17 1905 1430.94 1900.38 1425.64C1896.54 1421.24 1897 1414.55 1901.4 1410.71C1905.81 1406.86 1912.5 1407.32 1916.34 1411.73C1927.64 1424.63 1941.18 1433.29 1945.75 1432.41C1946.56 1432.25 1947.63 1430.59 1948.48 1428.18C1952.05 1418.03 1943.07 1403.33 1929.65 1397.34C1921.55 1393.73 1906.22 1390.84 1894.56 1412.11C1890.12 1420.23 1889.36 1427.63 1892.25 1434.75C1900.39 1454.77 1934.69 1469.12 1947.23 1472.97C1952.81 1474.68 1955.96 1480.6 1954.25 1486.18C1952.86 1490.74 1948.67 1493.68 1944.13 1493.68Z" class="color474747 svgShape"></path>
  <path fill="#595bd4" d="M1639.49 1312.94C1639.21 1312.94 1638.92 1312.92 1638.63 1312.9C1632.8 1312.43 1628.46 1307.32 1628.93 1301.49C1631.36 1271.41 1630.4 1218.1 1617.51 1203.12C1613.7 1198.68 1614.2 1192 1618.63 1188.19C1623.07 1184.38 1629.75 1184.88 1633.56 1189.31C1643.85 1201.27 1649.5 1223.69 1650.82 1257.86C1651.74 1281.75 1650.11 1302.34 1650.04 1303.21C1649.59 1308.74 1644.95 1312.94 1639.5 1312.94L1639.49 1312.94Z" class="color848484 svgShape"></path>
  <path fill="#53d86a" d="M1741.21 1503.53C1741.21 1503.53 1676.45 1499.41 1660.85 1553.37C1645.25 1607.33 1594.42 1603.97 1594.42 1603.97C1594.42 1603.97 1778.56 1664.22 1820.53 1569.21C1820.53 1569.21 1789.53 1508.68 1741.21 1503.53Z" class="color83c49f svgShape"></path>
  <path fill="#167ffc" d="M1709.88 1633.39C1703.81 1633.39 1697.54 1633.19 1691.08 1632.78C1639.05 1629.55 1593.06 1614.66 1591.13 1614.03C1586.06 1612.37 1583.01 1607.19 1584.03 1601.96C1585.04 1596.72 1589.79 1593.05 1595.12 1593.4C1596.8 1593.5 1637.73 1595.24 1650.68 1550.43C1658.09 1524.8 1676.42 1506.71 1703.7 1498.12C1723.49 1491.88 1741.14 1492.91 1741.88 1492.96C1742.03 1492.97 1742.18 1492.98 1742.33 1493C1795.74 1498.69 1828.58 1561.71 1829.96 1564.39C1831.41 1567.23 1831.51 1570.57 1830.22 1573.49C1812.82 1612.86 1771.4 1633.39 1709.88 1633.39H1709.88ZM1635.96 1603.69C1688.35 1614.7 1779.28 1624.54 1808.59 1569.59C1800.72 1556.35 1775.09 1517.98 1740.37 1514.09C1738.57 1514.01 1724.59 1513.61 1709.49 1518.5C1689.33 1525.01 1676.39 1537.73 1671.02 1556.31C1663.7 1581.62 1649.34 1595.78 1635.96 1603.69Z" class="color474747 svgShape"></path>
  <path fill="#fe9526" d="M1637.56 1358.4C1637.56 1358.4 1659.72 1241.34 1741.21 1244.81C1822.7 1248.27 1873.99 1285.97 1871.31 1342.75C1868.63 1399.53 1794.58 1492.99 1754.49 1496.45C1714.39 1499.91 1630.51 1494.77 1637.56 1358.4Z" class="colorf29797 svgShape"></path>
  <path fill="#167ffc" d="M1739.48 1507.71C1707.05 1507.71 1680.98 1498.36 1661.8 1479.83C1635.81 1454.73 1624.1 1413.69 1626.99 1357.85L1627.03 1357.14L1627.16 1356.43C1627.4 1355.17 1633.2 1325.19 1649.53 1295.24C1672.17 1253.73 1704.04 1232.62 1741.66 1234.23C1793.09 1236.41 1834.67 1252.11 1858.73 1278.44C1875.04 1296.28 1883.05 1318.69 1881.89 1343.25C1880.55 1371.6 1863.14 1410.04 1835.31 1446.07C1807.32 1482.32 1777.44 1505.1 1755.4 1507C1749.93 1507.47 1744.62 1507.71 1739.48 1507.71ZM1648.09 1359.73C1645.68 1408.77 1655.24 1444.05 1676.51 1464.61C1694.13 1481.63 1720.06 1488.8 1753.58 1485.91C1769.1 1484.57 1795.21 1463.36 1818.55 1433.13C1843.45 1400.89 1859.61 1366.07 1860.74 1342.25C1861.64 1323.17 1855.71 1306.51 1843.1 1292.72C1822.87 1270.59 1786.52 1257.33 1740.76 1255.38C1711.45 1254.14 1687.09 1270.82 1668.35 1304.96C1654.75 1329.71 1649.01 1355.34 1648.09 1359.73L1648.09 1359.73Z" class="color474747 svgShape"></path>
  <path fill="#fe9526" d="M1933.6 1581.24C1941.73 1546.39 1920.04 1511.93 1886.82 1498.61C1859.54 1487.67 1824.33 1480.72 1802.01 1503.45C1761.27 1544.95 1797.97 1636.98 1847.83 1637.15C1883.18 1637.27 1924.27 1621.22 1933.6 1581.24Z" class="colorf29797 svgShape"></path>
  <path fill="#167ffc" d="M1848.23 1647.74C1848.08 1647.74 1847.94 1647.74 1847.8 1647.74C1821.5 1647.65 1796.66 1627.23 1782.97 1594.46C1767.53 1557.5 1772.04 1518.87 1794.45 1496.04C1815.59 1474.51 1848.89 1472 1890.76 1488.79C1909.32 1496.23 1924.98 1509.62 1934.85 1526.51C1945.17 1544.15 1948.39 1564.44 1943.91 1583.64C1938.96 1604.85 1925.75 1622.07 1905.7 1633.44C1889.43 1642.67 1869.04 1647.74 1848.23 1647.74L1848.23 1647.74ZM1841.3 1499.01C1829.35 1499.01 1818.08 1502.19 1809.56 1510.87C1797.09 1523.58 1787.75 1550.96 1802.51 1586.29C1812.7 1610.7 1830.51 1626.51 1847.87 1626.56H1848.31C1895.43 1626.56 1918.15 1600.88 1923.29 1578.83C1929.88 1550.58 1912.51 1520.32 1882.88 1508.44C1870.34 1503.41 1855.35 1499.01 1841.3 1499.01Z" class="color474747 svgShape"></path>
  <path fill="#fe9526" d="M2144.98 1640.83L2137.92 1647.74C2087.81 1691.5 1990.13 1682.61 1990.13 1682.61C1918.99 1670.47 1908.55 1597.63 1906.86 1548.8C1906.57 1539.9 1906.57 1531.86 1906.57 1525.08C1906.57 1481.04 1961.62 1454.65 1985.05 1433.33C2008.48 1411.88 2120.84 1384.78 2161.63 1543.43C2173.35 1589.02 2164.17 1619.94 2144.98 1640.83L2144.98 1640.83Z" class="colorf29797 svgShape"></path>
  <path fill="#167ffc" d="M2011.51 1693.98C1998.78 1693.98 1990.33 1693.26 1989.18 1693.15L1988.35 1693.04C1953.34 1687.07 1927.92 1667.15 1912.81 1633.84C1899.61 1604.74 1897.05 1571.57 1896.28 1549.16C1895.99 1540.07 1895.99 1531.76 1895.99 1525.08C1895.99 1486.1 1931.82 1460.01 1957.98 1440.96C1965.6 1435.41 1972.8 1430.17 1977.93 1425.5C1992.34 1412.31 2030.68 1399.05 2070.73 1410.95C2104.21 1420.9 2148.93 1451.5 2171.89 1540.8C2183.4 1585.6 2176.97 1621.66 2152.77 1647.99L2152.39 1648.39L2144.88 1655.72C2106.67 1689.08 2044.62 1693.98 2011.51 1693.98ZM1991.48 1672.1C1998.03 1672.61 2086.11 1678.66 2130.73 1639.96L2137.36 1633.47C2156.25 1612.76 2160.96 1583.36 2151.38 1546.07C2135.16 1482.98 2105.19 1443.28 2064.7 1431.25C2031.79 1421.47 2001.24 1432.87 1992.2 1441.14C1986.2 1446.61 1978.54 1452.18 1970.44 1458.08C1946.7 1475.36 1917.16 1496.87 1917.16 1525.08C1917.16 1531.95 1917.16 1539.74 1917.44 1548.46C1920.07 1624.4 1943.6 1663.71 1991.48 1672.1Z" class="color474747 svgShape"></path>
  <path fill="#53d86a" d="M1871.31 1376.8C1871.31 1376.8 1878.99 1296.8 1939.41 1266.59C1999.83 1236.38 2022.48 1198.23 2022.48 1198.23C2022.48 1198.23 2063.19 1409.66 1926.44 1424.02C1926.44 1424.02 1860.5 1413.49 1847.83 1479.93L1823.79 1489.63C1823.79 1489.63 1843.51 1403.33 1871.31 1376.8Z" class="color83c49f svgShape"></path>
  <path fill="#167ffc" d="M1823.79 1500.22C1821.32 1500.22 1818.87 1499.35 1816.92 1497.69 1813.92 1495.13 1812.59 1491.11 1813.47 1487.27 1813.68 1486.37 1818.62 1464.89 1827.1 1439.78 1837.96 1407.6 1849.44 1384.82 1861.25 1371.96 1863.68 1354.77 1876.87 1286.03 1934.68 1257.12 1964.21 1242.36 1984.03 1225.66 1995.46 1214.26 2007.86 1201.88 2013.35 1192.88 2013.4 1192.79 2015.66 1189.04 2020.01 1187.06 2024.33 1187.82 2028.65 1188.59 2032.05 1191.92 2032.88 1196.23 2033.87 1201.37 2056.57 1323.05 2006.14 1391.06 1987.35 1416.41 1960.9 1431.04 1927.55 1434.55 1926.62 1434.64 1925.69 1434.62 1924.77 1434.47 1924.66 1434.46 1909.95 1432.3 1894.41 1437.37 1874.82 1443.76 1862.65 1458.75 1858.23 1481.92 1857.56 1485.45 1855.13 1488.4 1851.79 1489.75L1827.75 1499.45C1826.47 1499.96 1825.13 1500.22 1823.8 1500.22H1823.79ZM2015.35 1224.17C2001.76 1238.73 1978.91 1258.68 1944.15 1276.06 1889.82 1303.22 1881.92 1377.09 1881.85 1377.83 1881.6 1380.35 1880.45 1382.71 1878.62 1384.46 1864.82 1397.63 1852.13 1430.25 1843.59 1457.54 1854.29 1432.82 1873.21 1421.83 1888.71 1416.96 1905.8 1411.59 1921.6 1412.79 1926.54 1413.36 1953.53 1410.26 1974 1398.84 1989.11 1378.48 2021.55 1334.76 2019.22 1261.75 2015.35 1224.17ZM1724.47 1500.21C1721.44 1500.21 1718.44 1498.93 1716.35 1496.43 1715.49 1495.4 1695.04 1470.85 1678.25 1438.97 1654.62 1394.09 1650.23 1358.04 1665.2 1331.8 1680.48 1305.03 1709.96 1291.01 1746.09 1293.33 1783.28 1295.72 1816.45 1314.87 1826.75 1339.9 1833.05 1355.21 1834.55 1377.12 1830.77 1398.52 1825.13 1430.33 1811.63 1444.2 1804.08 1449.64 1794.55 1456.5 1774.55 1464.54 1747.64 1441.28 1702.33 1402.11 1682.76 1371.44 1689.47 1350.13 1694.31 1334.76 1710.58 1329.96 1723.38 1328.64 1757.82 1325.07 1782.82 1347.11 1789.71 1370.71 1794.06 1385.58 1789.94 1398.67 1779.21 1404.06 1773.99 1406.68 1767.63 1404.57 1765 1399.35 1762.38 1394.12 1764.49 1387.76 1769.71 1385.14 1770.52 1384.21 1771.01 1378.62 1767.15 1371.1 1761.08 1359.3 1746.97 1347.48 1725.55 1349.7 1721.28 1350.14 1711.18 1351.68 1709.67 1356.49 1709.11 1358.25 1708.18 1365.24 1719.48 1381.3 1728.46 1394.07 1742.99 1409.27 1761.48 1425.26 1779.76 1441.06 1788.75 1434.58 1791.7 1432.46 1799.99 1426.48 1806.8 1412.42 1809.92 1394.83 1812.99 1377.48 1811.94 1359.53 1807.17 1347.96 1800.06 1330.69 1773.22 1316.29 1744.73 1314.46 1731.61 1313.62 1699.38 1314.64 1683.59 1342.3 1660.78 1382.25 1711.22 1457.29 1732.58 1482.83 1736.33 1487.32 1735.74 1493.99 1731.26 1497.75 1729.27 1499.4 1726.86 1500.21 1724.47 1500.21ZM1879.39 1625.12C1878.37 1625.12 1877.33 1624.97 1876.3 1624.66 1875.76 1624.49 1862.7 1620.48 1848.02 1612.64 1827.29 1601.58 1813.8 1588.65 1807.91 1574.2 1802.6 1561.17 1803.76 1547.06 1811.25 1533.38 1818.56 1520.04 1828.68 1510.97 1840.53 1507.15 1851.11 1503.74 1862.51 1504.53 1873.53 1509.44 1894.43 1518.77 1911.91 1543.29 1903.71 1566.64 1899.22 1579.41 1891.06 1583.48 1885 1584.65 1864.35 1588.6 1840.26 1562.38 1835.64 1557.09 1831.8 1552.68 1832.25 1545.99 1836.66 1542.15 1841.06 1538.31 1847.75 1538.76 1851.6 1543.17 1862.89 1556.07 1876.44 1564.73 1881.01 1563.85 1881.82 1563.7 1882.89 1562.04 1883.73 1559.62 1887.3 1549.47 1878.33 1534.77 1864.9 1528.78 1856.8 1525.17 1841.47 1522.28 1829.82 1543.55 1825.37 1551.67 1824.62 1559.07 1827.51 1566.19 1835.64 1586.21 1869.95 1600.57 1882.48 1604.41 1888.07 1606.12 1891.22 1612.04 1889.51 1617.63 1888.11 1622.19 1883.92 1625.12 1879.39 1625.12L1879.39 1625.12Z" class="color474747 svgShape"></path>
  <path fill="#595bd4" d="M1678.36 1599.47C1675.51 1599.47 1672.67 1598.32 1670.58 1596.06 1666.61 1591.77 1666.88 1585.07 1671.17 1581.11 1671.79 1580.54 1686.49 1567 1704.64 1553.73 1731.05 1534.42 1750.56 1526.01 1764.27 1527.99 1770.06 1528.83 1774.07 1534.2 1773.23 1539.98 1772.4 1545.77 1767.03 1549.79 1761.24 1548.94 1748.43 1547.1 1711.97 1572.27 1685.54 1596.66 1683.5 1598.54 1680.93 1599.47 1678.36 1599.47ZM1893.73 1405.18C1890.5 1405.18 1887.3 1403.71 1885.23 1400.91 1881.74 1396.22 1882.72 1389.59 1887.41 1386.1 1887.62 1385.94 1908.66 1370.26 1930.03 1350 1965.99 1315.9 1973.27 1297.31 1974.41 1289.27 1975.23 1283.48 1980.59 1279.45 1986.38 1280.27 1992.17 1281.09 1996.19 1286.45 1995.37 1292.24 1992.65 1311.42 1975.52 1336.07 1944.44 1365.51 1922.16 1386.61 1900.93 1402.43 1900.03 1403.09 1898.14 1404.5 1895.93 1405.18 1893.73 1405.18Z" class="color848484 svgShape"></path>
  <path fill="#53d86a" d="M2163.62 1651.87C2163.62 1651.87 2203.09 1603.73 2255 1610.37C2306.91 1617.02 2337.95 1602.26 2337.95 1602.26C2337.95 1602.26 2272.86 1755.83 2178.7 1706.04C2178.7 1706.04 2140.82 1670.8 2103.99 1708.07L2084.34 1703.94C2084.34 1703.94 2134.29 1656.93 2163.62 1651.87Z" class="color83c49f svgShape"></path>
  <path fill="#167ffc" d="M2216.29 1726.58C2202.06 1726.58 2187.84 1722.85 2173.75 1715.4C2172.93 1714.96 2172.17 1714.42 2171.49 1713.79C2171.44 1713.75 2163.2 1706.31 2151.54 1703.06C2136.93 1698.98 2123.84 1703.05 2111.53 1715.52C2108.99 1718.08 2105.33 1719.17 2101.81 1718.44L2082.16 1714.3C2078.31 1713.48 2075.22 1710.59 2074.15 1706.8C2073.09 1703 2074.22 1698.93 2077.09 1696.23C2082.23 1691.39 2126.5 1650.37 2157.96 1642.28C2168 1631.25 2206.44 1593.48 2256.35 1599.87C2304.1 1605.99 2333.16 1592.81 2333.44 1592.68C2337.42 1590.83 2342.13 1591.61 2345.28 1594.66C2348.43 1597.7 2349.41 1602.36 2347.7 1606.39C2346.1 1610.17 2307.77 1699.17 2245 1721.49C2235.46 1724.89 2225.87 1726.58 2216.29 1726.58L2216.29 1726.58ZM2184.69 1697.23C2202.69 1706.45 2220.09 1707.87 2237.86 1701.56C2274.68 1688.48 2303.12 1645.54 2317.61 1619.27C2302.38 1622.29 2280.64 1624.33 2253.66 1620.87C2234.94 1618.47 2215.65 1623.92 2196.3 1637.04C2181.24 1647.26 2171.89 1658.49 2171.79 1658.6C2170.18 1660.55 2167.91 1661.87 2165.42 1662.3C2156.78 1663.79 2143.68 1670.67 2127.96 1681.88C2139.37 1679.14 2149.86 1680.48 2158.15 1682.93C2171.54 1686.87 2181.37 1694.43 2184.69 1697.23Z" class="color474747 svgShape"></path>
  <path fill="#595bd4" d="M2170.34 1683.58C2164.73 1683.58 2160.05 1679.16 2159.78 1673.5C2159.5 1667.66 2164.01 1662.7 2169.85 1662.42C2199.99 1660.96 2252.74 1653.18 2265.95 1638.47C2269.85 1634.12 2276.55 1633.77 2280.9 1637.67C2285.25 1641.58 2285.61 1648.27 2281.7 1652.62C2271.16 1664.36 2249.64 1672.83 2215.93 1678.52C2192.35 1682.5 2171.72 1683.52 2170.86 1683.56C2170.68 1683.57 2170.51 1683.58 2170.34 1683.58Z" class="color848484 svgShape"></path>
  <path fill="#167ffc" d="M2035.94 1654.08C2024.66 1654.08 2013.42 1651.9 2002.62 1646.69C1972.33 1632.06 1953.11 1602.2 1949.89 1564.75C1947.28 1534.49 1956.37 1506.4 1972.5 1494.85C1991.98 1480.9 2024.29 1472.28 2048.34 1482.81C2060.15 1487.97 2074.93 1499.84 2078.34 1527.09C2080.85 1547.2 2073.3 1558.9 2066.53 1565.17C2054.18 1576.6 2035.48 1578.89 2020.99 1578.62L2037.49 1609.55C2040.24 1614.71 2038.29 1621.12 2033.14 1623.87C2027.98 1626.62 2021.56 1624.67 2018.81 1619.51L1992.97 1571.06C1991.04 1567.44 1991.37 1563.03 1993.82 1559.74C1996.28 1556.46 2000.41 1554.88 2004.43 1555.7C2004.5 1555.72 2013.55 1557.52 2024.38 1557.4C2037.23 1557.25 2046.84 1554.56 2052.17 1549.61C2056.78 1545.33 2058.47 1538.83 2057.33 1529.72C2055.59 1515.77 2049.71 1506.51 2039.86 1502.2C2023.82 1495.19 1999.29 1501.71 1984.83 1512.06C1976.51 1518.02 1968.83 1537.88 1970.98 1562.94C1972.2 1577.04 1978.61 1611.58 2011.83 1627.62C2026.28 1634.6 2052.03 1638.03 2092.57 1614.73C2118.26 1599.97 2137.41 1581.48 2137.6 1581.29C2141.79 1577.22 2148.49 1577.31 2152.57 1581.5C2156.64 1585.69 2156.55 1592.39 2152.37 1596.46C2149.51 1599.25 2092.44 1654.08 2035.94 1654.08L2035.94 1654.08Z" class="color474747 svgShape"></path>
  <path fill="#fe9526" d="M2137.92 1647.74L2129.17 1656.21L2067.91 1715.35H2067.77C2011.59 1709.85 1940.87 1697.85 1872.98 1672.16L1906.86 1548.8C1908.55 1597.63 1919 1670.47 1990.14 1682.61C1990.14 1682.61 2087.81 1691.5 2137.92 1647.74Z" class="colorf29797 svgShape"></path>
  <path fill="#167ffc" d="M2072.19 1725.94L2066.74 1725.89C1993.6 1718.72 1927.15 1703.98 1869.23 1682.06L1860.22 1678.65L1915.03 1479.05L1917.44 1548.43C1920.07 1624.4 1943.6 1663.71 1991.47 1672.09C1998.04 1672.61 2086.4 1678.67 2130.96 1639.77L2145.28 1655.35L2136.53 1663.82L2072.19 1725.94ZM1885.76 1665.59C1938.52 1684.56 1998.44 1697.58 2064.07 1704.34L2083.42 1685.67C2037.71 1697.3 1991.99 1693.41 1989.18 1693.15L1988.36 1693.04C1953.34 1687.07 1927.92 1667.15 1912.81 1633.83C1908.37 1624.05 1905.14 1613.8 1902.77 1603.66L1885.76 1665.59Z" class="color474747 svgShape"></path>
  <path fill="#595bd4" d="M2166.83 2445.54C2161.05 2445.54 2156.33 2440.9 2156.25 2435.11 2155.57 2386.55 2106.02 2345.91 2105.52 2345.5 2100.98 2341.82 2100.28 2335.16 2103.95 2330.61 2107.63 2326.07 2114.3 2325.37 2118.84 2329.04 2121.2 2330.95 2176.6 2376.45 2177.42 2434.81 2177.5 2440.66 2172.83 2445.46 2166.98 2445.54 2166.93 2445.54 2166.88 2445.54 2166.83 2445.54ZM2105.19 2504.1C2099.42 2504.1 2094.69 2499.45 2094.61 2493.66 2094.26 2468.79 2080.76 2445.98 2069.49 2431.23 2056.83 2414.65 2044.01 2404.15 2043.88 2404.05 2039.34 2400.36 2038.65 2393.7 2042.33 2389.16 2046.01 2384.62 2052.66 2383.92 2057.21 2387.6 2059.56 2389.51 2114.97 2435 2115.78 2493.36 2115.86 2499.21 2111.19 2504.02 2105.34 2504.1 2105.29 2504.1 2105.24 2504.1 2105.19 2504.1L2105.19 2504.1ZM2033.31 2564.97C2027.53 2564.97 2022.81 2560.33 2022.73 2554.53 2022.38 2529.67 2008.88 2506.86 1997.61 2492.1 1984.95 2475.53 1972.12 2465.03 1971.99 2464.92 1967.46 2461.24 1966.77 2454.57 1970.45 2450.03 1974.13 2445.5 1980.78 2444.8 1985.32 2448.47 1987.68 2450.38 2043.08 2495.87 2043.9 2554.24 2043.98 2560.08 2039.31 2564.89 2033.46 2564.97 2033.41 2564.97 2033.36 2564.97 2033.31 2564.97L2033.31 2564.97ZM1173.77 2761.93C1173.62 2761.93 1173.46 2761.93 1173.3 2761.92 1167.46 2761.66 1162.93 2756.72 1163.19 2750.88 1164.64 2718.39 1184.71 2693.62 1221.24 2679.26 1247.28 2669.01 1272.6 2667.7 1273.67 2667.65 1279.52 2667.4 1284.47 2671.88 1284.75 2677.72 1285.02 2683.55 1280.52 2688.51 1274.69 2688.79 1274.46 2688.81 1251.37 2690.06 1228.54 2699.13 1200.27 2710.38 1185.4 2728.1 1184.34 2751.82 1184.09 2757.5 1179.4 2761.93 1173.77 2761.93ZM1091 2736.14C1090.84 2736.14 1090.68 2736.14 1090.52 2736.13 1084.68 2735.87 1080.16 2730.93 1080.42 2725.09 1081.86 2692.6 1101.93 2667.83 1138.46 2653.47 1164.51 2643.22 1189.83 2641.91 1190.89 2641.86 1196.74 2641.61 1201.69 2646.09 1201.97 2651.93 1202.25 2657.76 1197.75 2662.72 1191.91 2663 1191.68 2663.02 1168.6 2664.27 1145.77 2673.34 1117.49 2684.59 1102.62 2702.32 1101.57 2726.03 1101.32 2731.71 1096.63 2736.14 1091 2736.14ZM1009.38 2714.31C1009.22 2714.31 1009.06 2714.31 1008.9 2714.3 1003.06 2714.04 998.536 2709.09 998.796 2703.25 1000.24 2670.76 1020.31 2646 1056.84 2631.63 1082.89 2621.39 1108.21 2620.07 1109.27 2620.02 1115.11 2619.76 1120.07 2624.25 1120.35 2630.09 1120.63 2635.93 1116.13 2640.88 1110.29 2641.17 1110.06 2641.18 1086.98 2642.43 1064.15 2651.51 1035.87 2662.76 1021 2680.48 1019.95 2704.19 1019.69 2709.87 1015.01 2714.31 1009.38 2714.31Z" class="color848484 svgShape"></path>
  <path fill="#f7f7f7" d="M673.044 1356.86C630.186 1356.86 595.498 1413.85 595.498 1484.03C595.498 1413.85 560.745 1356.86 517.952 1356.86C560.745 1356.86 595.498 1299.97 595.498 1229.68C595.498 1299.97 630.187 1356.86 673.044 1356.86Z" class="colorf7f7f7 svgShape"></path>
  <path fill="#167ffc" d="M595.498 1494.62C589.651 1494.62 584.912 1489.88 584.912 1484.03C584.912 1420.84 554.248 1367.44 517.953 1367.44C512.106 1367.44 507.367 1362.7 507.367 1356.86C507.367 1351.01 512.107 1346.27 517.953 1346.27C534.825 1346.27 551.084 1334.85 563.736 1314.11C577.392 1291.73 584.913 1261.75 584.913 1229.68C584.913 1223.83 589.653 1219.09 595.499 1219.09C601.345 1219.09 606.085 1223.84 606.085 1229.68C606.085 1261.76 613.598 1291.74 627.239 1314.12C639.883 1334.85 656.15 1346.27 673.045 1346.27C678.892 1346.27 683.631 1351.01 683.631 1356.86C683.631 1362.7 678.891 1367.44 673.045 1367.44C656.159 1367.44 639.892 1378.88 627.24 1399.64C613.598 1422.02 606.085 1452 606.085 1484.03C606.085 1489.88 601.345 1494.62 595.499 1494.62H595.498ZM552.319 1356.86C563.34 1364.04 573.353 1374.75 581.811 1388.62C587.238 1397.52 591.821 1407.41 595.491 1418.02C599.158 1407.41 603.737 1397.52 609.159 1388.62C617.613 1374.75 627.625 1364.04 638.652 1356.86C627.624 1349.69 617.612 1339 609.16 1325.14C603.736 1316.24 599.158 1306.35 595.491 1295.73C591.82 1306.35 587.238 1316.24 581.809 1325.14C573.354 1339 563.34 1349.69 552.319 1356.86Z" class="color474747 svgShape"></path>
  <path fill="#f7f7f7" d="M2316.39 891.881C2273.53 891.881 2238.84 948.877 2238.84 1019.06C2238.84 948.877 2204.09 891.881 2161.3 891.881C2204.09 891.881 2238.84 834.991 2238.84 764.704C2238.84 834.991 2273.53 891.881 2316.39 891.881Z" class="colorf7f7f7 svgShape"></path>
  <path fill="#167ffc" d="M2238.84 1029.64C2233 1029.64 2228.26 1024.9 2228.26 1019.06C2228.26 955.86 2197.59 902.468 2161.3 902.468C2155.45 902.468 2150.71 897.728 2150.71 891.882C2150.71 886.036 2155.45 881.296 2161.3 881.296C2178.17 881.296 2194.43 869.876 2207.08 849.138C2220.74 826.755 2228.26 796.769 2228.26 764.705C2228.26 758.858 2233 754.119 2238.84 754.119C2244.69 754.119 2249.43 758.859 2249.43 764.705C2249.43 796.782 2256.94 826.768 2270.58 849.14C2283.23 869.876 2299.49 881.296 2316.39 881.296C2322.24 881.296 2326.98 886.036 2326.98 891.882C2326.98 897.728 2322.23 902.468 2316.39 902.468C2299.5 902.468 2283.24 913.901 2270.58 934.661C2256.94 957.047 2249.43 987.02 2249.43 1019.06C2249.43 1024.91 2244.69 1029.64 2238.84 1029.64ZM2195.67 891.888C2206.69 899.065 2216.7 909.77 2225.16 923.64C2230.58 932.541 2235.17 942.432 2238.84 953.048C2242.5 942.431 2247.08 932.541 2252.5 923.642C2260.96 909.769 2270.97 899.064 2282 891.887C2270.97 884.717 2260.96 874.021 2252.5 860.161C2247.08 851.265 2242.5 841.378 2238.83 830.757C2235.16 841.378 2230.58 851.265 2225.15 860.164C2216.7 874.022 2206.69 884.718 2195.66 891.888H2195.67Z" class="color474747 svgShape"></path>
  <path fill="#595bd4" d="M2272.92 1842.26C2269.65 1842.26 2266.43 1840.75 2264.36 1837.91 2260.91 1833.19 2261.95 1826.57 2266.67 1823.12 2316.03 1787.08 2355.34 1748.92 2383.51 1709.71 2405.79 1678.69 2421.17 1646.97 2429.2 1615.44 2442.65 1562.69 2430.88 1529.07 2430.76 1528.74 2428.78 1523.24 2431.63 1517.17 2437.12 1515.18 2442.62 1513.2 2448.69 1516.04 2450.68 1521.54 2451.26 1523.15 2464.75 1561.68 2449.72 1620.67 2441.03 1654.77 2424.54 1688.89 2400.7 1722.06 2371.22 1763.1 2330.33 1802.85 2279.15 1840.22 2277.27 1841.6 2275.08 1842.26 2272.92 1842.26L2272.92 1842.26ZM2333.42 1973.37C2328.21 1973.37 2323.67 1969.51 2322.95 1964.2 2322.16 1958.41 2326.22 1953.08 2332.02 1952.29 2411.36 1941.54 2473.2 1866.19 2473.82 1865.43 2477.49 1860.89 2484.16 1860.18 2488.7 1863.86 2493.25 1867.53 2493.96 1874.19 2490.28 1878.74 2487.56 1882.11 2422.65 1961.37 2334.86 1973.27 2334.38 1973.34 2333.9 1973.37 2333.42 1973.37ZM789.044 2316.61C720.795 2316.61 664.969 2296.9 622.9 2257.9 583.854 2221.7 564.549 2175.46 555.23 2143.04 545.172 2108.05 544.259 2081.67 544.225 2080.57 544.046 2074.72 548.638 2069.84 554.482 2069.66 554.592 2069.66 554.703 2069.66 554.813 2069.66 560.506 2069.66 565.207 2074.18 565.388 2079.91 565.396 2080.16 566.314 2105.25 575.766 2137.84 584.374 2167.53 602.061 2209.78 637.432 2242.5 678.547 2280.54 734.84 2298.22 804.739 2295.08 810.571 2294.8 815.528 2299.34 815.791 2305.18 816.054 2311.02 811.532 2315.97 805.692 2316.23 800.067 2316.49 794.51 2316.61 789.044 2316.61ZM734.326 2451.47C717.993 2451.47 702.387 2449.82 687.609 2446.51 662.313 2440.86 639.422 2430.41 619.572 2415.43 585.637 2389.83 572.423 2359.93 571.877 2358.67 569.553 2353.3 572.019 2347.07 577.384 2344.75 582.741 2342.42 588.964 2344.88 591.296 2350.23 591.522 2350.74 603.442 2377.06 633.175 2399.16 650.588 2412.11 670.697 2421.14 692.944 2426.01 721.054 2432.17 752.762 2431.69 787.187 2424.59 792.917 2423.41 798.513 2427.1 799.693 2432.82 800.874 2438.55 797.189 2444.14 791.463 2445.33 771.611 2449.42 752.518 2451.47 734.327 2451.47H734.326Z" class="color848484 svgShape"></path>
</svg>
