<svg xmlns="http://www.w3.org/2000/svg" width="3000" height="3000" fill="none" viewBox="0 0 3000 3000" id="PandaCookingChicken">
  <path fill="#167ffc" d="M1508 628.821C1508 628.821 1164.51 628.271 1192.31 400.258C1220.12 172.245 1548.05 267.698 1548.05 267.698C1548.05 267.698 1718.73 70.821 2032.71 201.322C2132.33 250.844 2102.47 456.325 2102.47 456.325C2102.47 456.325 2342.3 730.836 2082.5 815.95C1958.46 831.993 1641.07 620.954 1508 628.821Z" class="colorffffff svgShape"></path>
  <path fill="#474747" d="M2068.07 828.41C2000.8 828.41 1897.65 782.349 1788.92 733.802C1681.98 686.054 1571.41 636.677 1508.69 640.389C1508.45 640.404 1508.19 640.414 1507.98 640.41C1505.97 640.407 1457.9 640.191 1398.59 628.002C1363.58 620.809 1331.97 610.907 1304.61 598.571C1269.89 582.911 1241.9 563.225 1221.42 540.062C1187.7 501.916 1174.04 454.407 1180.81 398.855C1187.62 343.004 1212.22 300.736 1253.93 273.223C1279.1 256.619 1310.59 245.472 1347.51 240.09C1376.56 235.857 1409.07 235.153 1444.15 238C1490.89 241.793 1529.21 250.765 1544.37 254.691C1558.19 240.603 1599.86 202.318 1668.32 174.817C1717.25 155.159 1769.8 145.144 1824.5 145.048C1824.76 145.048 1825.03 145.048 1825.29 145.048C1893.12 145.048 1964.4 160.379 2037.16 190.62C2037.4 190.72 2037.63 190.828 2037.87 190.944C2063.13 203.5 2082.78 225.894 2096.29 257.503C2106.69 281.839 2113.49 311.747 2116.49 346.393C2120.67 394.61 2116.39 438.018 2114.62 452.742C2123.7 463.677 2149.08 495.603 2172.19 537.298C2188.85 567.355 2200.81 596.245 2207.75 623.165C2216.63 657.61 2217.31 689.023 2209.75 716.53C2195.75 767.517 2154.15 804.672 2086.11 826.962C2085.42 827.188 2084.71 827.349 2083.99 827.442C2078.94 828.095 2073.63 828.41 2068.07 828.41ZM1515.57 617.015C1584.21 617.015 1688.35 663.516 1798.37 712.639C1907.33 761.29 2019.98 811.588 2079.96 804.587C2139.51 784.844 2175.66 753.155 2187.4 710.392C2216.17 605.668 2094.97 465.354 2093.74 463.949C2091.51 461.4 2090.51 458.006 2091 454.657C2091.07 454.156 2098.24 403.598 2093.36 347.992C2089.05 298.709 2074.17 235.149 2027.89 211.867C1958.12 182.917 1889.98 168.234 1825.36 168.224H1825.29C1773.7 168.224 1724.17 177.528 1678.07 195.88C1615.05 220.967 1571.18 258.8 1556.8 275.3C1553.83 278.702 1549.15 280.085 1544.81 278.823C1544.36 278.693 1498.98 265.653 1441.82 261.063C1390.01 256.904 1317.56 258.997 1266.66 292.595C1230.91 316.192 1209.76 352.887 1203.82 401.659C1197.88 450.344 1209.65 491.744 1238.79 524.709C1317.83 614.117 1498.98 617.142 1507.71 617.229C1510.27 617.085 1512.9 617.014 1515.57 617.014V617.015Z" class="color474747 svgShape"></path>
  <path fill="#f7f7f7" d="M1895.85 536.808C1895.85 536.808 1916.53 666.27 1888.39 732.299C1883.41 744.159 1876.88 753.988 1868.38 760.613C1812.24 804.5 1547.1 769.694 1479.38 615.651C1479.38 615.651 1478.52 484.975 1659.76 437.197C1840.96 389.268 1895.85 536.808 1895.85 536.808Z" class="colorf7f7f7 svgShape"></path>
  <path fill="#474747" d="M1788.78 789.847C1757.48 789.847 1721.56 785.324 1685.06 776.137C1637.87 764.263 1594.15 745.526 1558.62 721.951C1516.3 693.868 1486.07 659.672 1468.77 620.315C1468.13 618.868 1467.8 617.307 1467.79 615.727C1467.78 614.264 1467.83 579.426 1491.58 538.521C1505.4 514.726 1524.45 493.675 1548.18 475.951C1577.48 454.079 1614.02 437.27 1656.81 425.992C1699.97 414.574 1739.98 412.978 1775.71 421.252C1804.62 427.947 1830.72 441.05 1853.26 460.197C1891.5 492.675 1906.11 531.145 1906.72 532.767C1906.98 533.484 1907.18 534.225 1907.3 534.98C1908.16 540.401 1928.17 668.526 1899.05 736.843C1893.04 751.18 1885.1 762.274 1875.5 769.756C1858.48 783.065 1827.09 789.847 1788.78 789.847ZM1491.05 613.347C1506.03 645.843 1554.08 719.278 1690.71 753.66C1727.15 762.828 1764.92 767.384 1797.08 766.47C1826.74 765.634 1850.13 760.171 1861.24 751.483C1867.69 746.461 1873.22 738.503 1877.7 727.815C1902.81 668.915 1886.58 553.156 1884.6 539.876C1882.14 533.971 1868.25 503.029 1837.5 477.22C1817.81 460.701 1795.05 449.418 1769.84 443.685C1737.99 436.439 1701.95 438.025 1662.72 448.401C1622.82 458.921 1588.95 474.438 1562.05 494.524C1540.83 510.366 1523.87 529.086 1511.63 550.162C1494.26 580.069 1491.49 605.807 1491.05 613.348L1491.05 613.347Z" class="color474747 svgShape"></path>
  <path fill="#dddddd" d="M1888.39 732.299C1883.42 744.159 1876.88 753.988 1868.38 760.613C1812.24 804.5 1547.1 769.694 1479.38 615.651C1499.2 606.526 1518.18 599.328 1536.62 593.989C1684.3 550.457 1788.94 619.443 1851.26 686.698C1866.01 702.588 1878.32 718.225 1888.39 732.299Z" class="colordddddd svgShape"></path>
  <path fill="#474747" d="M1788.78 789.847C1757.48 789.847 1721.56 785.324 1685.06 776.137C1637.87 764.263 1594.15 745.526 1558.63 721.952C1516.3 693.868 1486.07 659.673 1468.77 620.316C1466.22 614.528 1468.79 607.769 1474.53 605.125C1495.1 595.655 1514.36 588.371 1533.4 582.858C1602.36 562.527 1668.57 564.248 1730.12 587.986C1777.07 606.091 1820.69 636.653 1859.76 678.82C1873.14 693.236 1885.94 708.961 1897.82 725.554C1900.16 728.824 1900.63 733.073 1899.08 736.781C1893.04 751.178 1885.11 762.273 1875.5 769.755C1858.48 783.064 1827.09 789.846 1788.78 789.846L1788.78 789.847ZM1495.03 621.362C1513.78 656.695 1564.38 721.871 1690.71 753.661C1727.14 762.829 1764.93 767.381 1797.08 766.471C1826.74 765.635 1850.13 760.172 1861.24 751.484C1866.46 747.419 1871.08 741.428 1875.03 733.623C1864.85 719.818 1854.02 706.708 1842.77 694.581C1806.11 655.021 1765.4 626.435 1721.78 609.612C1665.1 587.754 1603.91 586.238 1539.9 605.106C1525.28 609.337 1510.52 614.683 1495.03 621.362Z" class="color474747 svgShape"></path>
  <path fill="#474747" d="M1851.26 686.698C1765.51 721.143 1633.79 739.473 1536.62 593.989 1684.3 550.457 1788.94 619.443 1851.26 686.698ZM1560.09 483.484C1540.07 483.484 1508.75 478.783 1485.62 453.373 1481.31 448.64 1481.65 441.311 1486.39 437.002 1491.12 432.695 1498.45 433.038 1502.76 437.771 1529.77 467.449 1574.7 459.223 1575.15 459.135 1581.42 457.93 1587.5 462.025 1588.72 468.293 1589.95 474.562 1585.88 480.635 1579.62 481.877 1578.78 482.043 1571.17 483.484 1560.09 483.484H1560.09ZM1964.29 590.048C1939.49 590.048 1921.45 580.504 1909.77 571.195 1893.2 558.001 1885.7 542.43 1885.39 541.774 1882.64 535.991 1885.11 529.08 1890.89 526.337 1896.66 523.602 1903.55 526.047 1906.31 531.799 1907.28 533.788 1929.39 577.632 1984.5 564.328 1990.72 562.827 1996.98 566.651 1998.48 572.872 1999.99 579.093 1996.16 585.355 1989.94 586.857 1980.7 589.088 1972.16 590.048 1964.29 590.048ZM1716.92 532.499C1716.52 532.499 1716.12 532.479 1715.72 532.438 1709.36 531.788 1704.72 526.099 1705.37 519.731L1709.98 474.652C1710.63 468.285 1716.31 463.648 1722.68 464.301 1729.05 464.951 1733.68 470.64 1733.03 477.008L1728.43 522.087C1727.82 528.054 1722.79 532.499 1716.92 532.499ZM1750.77 557.403C1750.49 557.403 1750.22 557.393 1749.94 557.374 1743.56 556.925 1738.75 551.385 1739.19 545L1743.16 488.661C1743.61 482.276 1749.14 477.464 1755.53 477.914 1761.92 478.363 1766.73 483.903 1766.28 490.288L1762.32 546.627C1761.89 552.734 1756.8 557.403 1750.77 557.403Z" class="color474747 svgShape"></path>
  <path fill="#f7f7f7" d="M2004.57 717.798C2004.57 717.798 1944.77 746.274 1903.14 628.821Z" class="colorf7f7f7 svgShape"></path>
  <path fill="#474747" d="M1988.04 732.386C1980.9 732.386 1972.4 731.15 1963.17 727.326C1934.08 715.269 1910.2 683.43 1892.22 632.692C1890.08 626.659 1893.24 620.036 1899.27 617.898C1905.3 615.759 1911.93 618.917 1914.07 624.949C1933.62 680.113 1956.39 699.426 1972.05 705.914C1987.66 712.387 1999.47 707.388 1999.59 707.334C2005.36 704.583 2012.28 707.036 2015.03 712.814C2017.78 718.592 2015.33 725.508 2009.55 728.26C2009.02 728.515 2000.66 732.385 1988.04 732.385L1988.04 732.386Z" class="color474747 svgShape"></path>
  <path fill="#f7f7f7" d="M1393.57 333.806C1393.57 333.806 1472.1 360.943 1548.05 267.697Z" class="colorf7f7f7 svgShape"></path>
  <path fill="#474747" d="M1421.49 349.059C1402.52 349.059 1390.46 344.993 1389.78 344.76C1383.73 342.67 1380.52 336.071 1382.61 330.022C1384.7 323.99 1391.26 320.782 1397.3 322.835C1397.76 322.984 1415.72 328.707 1441.73 324.062C1477.04 317.755 1509.79 296.329 1539.07 260.379C1543.11 255.416 1550.41 254.671 1555.37 258.713C1560.34 262.755 1561.08 270.055 1557.04 275.017C1515.52 325.987 1472.78 342.376 1444.24 347.15C1435.91 348.542 1428.26 349.06 1421.5 349.06L1421.49 349.059Z" class="color474747 svgShape"></path>
  <path fill="#f7f7f7" d="M2120.96 587.826C2120.96 587.826 2076.21 580.797 2102.47 456.324Z" class="colorf7f7f7 svgShape"></path>
  <path fill="#474747" d="M2119.16 599.274C2117.05 598.942 2106.02 596.588 2096.52 582.811C2079.97 558.799 2078.16 515.438 2091.13 453.933C2092.45 447.67 2098.6 443.664 2104.86 444.985C2111.12 446.306 2115.13 452.453 2113.8 458.716C2101.65 516.344 2105.57 545.888 2111 560.524C2116.13 574.349 2123.05 576.41 2123.34 576.491C2122.97 576.388 2122.76 576.378 2122.76 576.378L2119.16 599.274Z" class="color474747 svgShape"></path>
  <path fill="#167ffc" d="M1902.63 2730.22C1902.63 2730.22 1714.59 2739.49 1558.22 2741.34C1402 2743.04 1780.41 2783.06 1632.39 2805.62C1484.51 2828.33 844.357 2754.94 844.357 2754.94C844.357 2754.94 806.5 2737.63 889.011 2561.18C583.997 2730.22 398.115 2392.14 501.332 2083.11C604.394 1773.92 821.643 2048.18 821.643 2048.18C821.643 2048.18 918.215 2063.95 977.395 2009.56C1185.99 1725.09 1315.94 1770.21 1335.41 1779.17C1337.11 1780.1 1338.03 1780.56 1338.03 1780.56C1338.03 1780.56 1537.51 1783.04 1720.92 1780.41C1821.05 1779.02 1916.39 1776.08 1971.86 1770.37C2129.15 1754.14 2275.02 2206.1 2300.98 2386.73C2336.36 2884.11 1902.63 2730.22 1902.63 2730.22Z" class="colorffffff svgShape"></path>
  <path fill="#474747" d="M1548.56 2821.58C1326.8 2821.58 865.611 2769.04 843.037 2766.45C841.827 2766.31 840.646 2765.99 839.539 2765.48C837.198 2764.41 831.344 2760.8 827.547 2750.48C817.316 2722.65 830.223 2666.24 864.91 2586.39C819.253 2607.42 774.821 2617.91 732.897 2617.92C677.688 2617.92 626.819 2599.72 583.126 2563.4C527.639 2517.27 487.625 2443.77 470.456 2356.44C461.934 2313.09 459.182 2267.63 462.277 2221.33C465.486 2173.32 474.928 2125.58 490.339 2079.43C520.929 1987.66 565.066 1936.09 621.522 1926.17C645.85 1921.89 672.198 1925.52 699.834 1936.96C721.29 1945.84 743.61 1959.45 766.176 1977.42C797.128 2002.06 819.772 2027.84 827.686 2037.28C846.1 2039.34 921.132 2044.67 968.738 2001.76C1179.87 1714.34 1315.24 1757.13 1340.25 1768.64C1340.49 1768.75 1340.73 1768.87 1340.96 1769C1340.97 1769 1340.97 1769 1340.98 1769.01C1365.85 1769.29 1551.31 1771.24 1720.76 1768.82C1838.13 1767.19 1922.21 1763.83 1970.67 1758.84C2011.41 1754.63 2053.18 1777.55 2094.85 1826.95C2129.17 1867.64 2163.29 1925.86 2196.26 2000.02C2258.04 2138.96 2299.79 2297.02 2312.45 2385.08C2312.49 2385.35 2312.52 2385.63 2312.54 2385.9C2323.76 2543.63 2289.49 2654.01 2210.7 2713.96C2182.23 2735.62 2147.96 2750.49 2108.85 2758.15C2077.92 2764.21 2043.91 2765.8 2007.75 2762.86C1953.31 2758.44 1911.05 2745.25 1900.99 2741.9C1880.71 2742.87 1725.94 2750.17 1586.76 2752.52C1605.2 2756.71 1624.8 2761.31 1640.42 2765.97C1665.23 2773.38 1679.5 2780.24 1679.03 2793.43C1678.47 2809.02 1656.54 2813.66 1634.13 2817.07C1613.68 2820.22 1584.2 2821.57 1548.55 2821.58L1548.56 2821.58ZM849.907 2743.91C905.784 2750.21 1492.21 2815.42 1630.63 2794.17C1636.35 2793.29 1640.91 2792.44 1644.54 2791.66C1640.31 2790.16 1634.73 2788.38 1627.39 2786.34C1610.86 2781.73 1590.39 2777.1 1572.34 2773.02C1557.34 2769.62 1543.17 2766.42 1532.82 2763.6C1526.87 2761.98 1522.62 2760.61 1519.46 2759.3C1509.21 2755.07 1507.63 2748.77 1508.11 2744.24C1509.29 2733.17 1521.56 2731.78 1527.46 2731.12C1534.25 2730.35 1544.27 2729.9 1558.09 2729.75C1712.44 2727.92 1900.19 2718.74 1902.07 2718.64C1903.57 2718.56 1905.08 2718.79 1906.51 2719.29C1906.95 2719.45 1951.88 2735.16 2010.24 2739.81C2044.2 2742.52 2076.01 2741.02 2104.78 2735.34C2140.25 2728.33 2171.2 2714.92 2196.75 2695.46C2268.8 2640.57 2299.99 2537.13 2289.45 2387.97C2276.54 2298.62 2233.16 2140.08 2175.08 2009.44C2106.99 1856.29 2035.22 1775.5 1973.05 1781.89C1923.9 1786.96 1839.13 1790.36 1721.09 1792C1539.62 1794.6 1339.89 1792.18 1337.89 1792.15C1336.15 1792.13 1334.41 1791.71 1332.85 1790.93C1332.85 1790.93 1331.93 1790.47 1330.23 1789.55C1320.77 1785.29 1287.2 1773.99 1231.44 1795.16C1198.02 1807.85 1162.58 1830.04 1126.11 1861.11C1081.03 1899.53 1034.14 1951.78 986.742 2016.41C986.296 2017.02 985.793 2017.58 985.238 2018.09C922.63 2075.63 823.945 2060.3 819.777 2059.62C816.926 2059.16 814.352 2057.64 812.559 2055.38C811.592 2054.16 714.53 1933.33 625.5 1949C578.089 1957.36 540.012 2003.71 512.326 2086.77C497.538 2131.05 488.48 2176.84 485.402 2222.88C482.442 2267.17 485.064 2310.6 493.197 2351.97C509.343 2434.09 546.541 2502.85 597.942 2545.58C634.129 2575.66 675.83 2592.1 721.889 2594.45C772.449 2597.01 826.784 2582.42 883.394 2551.04C887.787 2548.6 893.248 2549.28 896.919 2552.71C900.591 2556.13 901.636 2561.54 899.509 2566.09C836.842 2700.11 846.367 2736.67 849.905 2743.91L849.907 2743.91Z" class="color474747 svgShape"></path>
  <path fill="#474747" d="M1720.92 1780.41C1678.9 1844.84 1594.53 1950.99 1491.93 1957.48C1371.72 1964.9 1338.03 1873.27 1335.41 1779.17C1337.11 1780.1 1338.03 1780.56 1338.03 1780.56C1338.03 1780.56 1537.51 1783.03 1720.92 1780.41Z" class="color474747 svgShape"></path>
  <path fill="#474747" d="M1478.63 1969.49C1437.78 1969.49 1404.34 1957.82 1379.07 1934.72 1344.4 1903.02 1325.81 1850.8 1323.82 1779.49 1323.71 1775.35 1325.82 1771.45 1329.36 1769.29 1332.89 1767.12 1337.32 1767.01 1340.96 1769 1340.97 1769 1340.97 1769.01 1340.97 1769.01 1365.85 1769.29 1551.31 1771.25 1720.76 1768.82 1720.81 1768.82 1720.87 1768.82 1720.92 1768.82 1725.14 1768.82 1729.03 1771.11 1731.07 1774.82 1733.14 1778.57 1732.97 1783.15 1730.63 1786.74 1710.46 1817.67 1677.82 1862.3 1636.91 1899.27 1589.03 1942.55 1540.5 1966.02 1492.66 1969.05 1487.89 1969.34 1483.21 1969.49 1478.63 1969.49ZM1347.59 1792.26C1351.13 1850.11 1366.96 1892.24 1394.71 1917.61 1418 1938.91 1450.47 1948.43 1491.22 1945.92 1533.68 1943.23 1577.48 1921.75 1621.37 1882.08 1653.03 1853.46 1679.63 1819.85 1698.91 1792.29 1546.69 1794.12 1387.86 1792.68 1347.59 1792.26ZM2026.46 1082.64 1991.53 1033.41 1867.95 859.507 1840.17 820.22C1840.17 820.22 1989.18 600.307 2151.24 778.641 2287.98 928.909 2026.46 1082.64 2026.46 1082.64L2026.46 1082.64Z" class="color474747 svgShape"></path>
  <path fill="#474747" d="M2024.27 1092.89L1985.23 1037.88L1861.65 863.982L1830.78 820.313L1833.78 815.886C1834.52 814.792 1852.28 788.781 1882.35 761.587C1922.54 725.246 1965.62 704.483 2006.93 701.541C2059.71 697.787 2110.19 721.976 2156.96 773.444C2189.89 809.629 2203.37 849.201 2197.02 891.06C2190.05 937.024 2159.77 984.42 2107.04 1031.93C2068.19 1066.93 2031.9 1088.4 2030.38 1089.3L2024.27 1092.89L2024.27 1092.89ZM1849.66 820.259L1874.26 855.046L1997.83 1028.94L2028.57 1072.25C2040.45 1064.7 2068.28 1046.08 2096.92 1020.25C2131.21 989.313 2173.77 941.378 2181.75 888.715C2187.35 851.694 2175.17 816.409 2145.53 783.84C2102.12 736.073 2055.87 713.575 2008.09 716.949C1960.39 720.322 1919.18 749.173 1893.01 772.782C1871.2 792.449 1855.89 811.878 1849.66 820.259Z" class="color474747 svgShape"></path>
  <path fill="#f2c697" d="M1991.53 1033.41L1867.95 859.507C1911.15 819.41 2004.15 750.709 2082.5 815.95C2135.11 871.8 2104.82 971.021 1991.53 1033.41Z" class="colorf29797 svgShape"></path>
  <path fill="#474747" d="M1989.22 1043.5 1857.72 858.456 1862.69 853.844C1885.04 833.108 1919.95 805.367 1959.39 790.969 2007.92 773.258 2051 779.666 2087.45 810.013L2087.81 810.312 2088.13 810.652C2109.89 833.759 2119.02 864.67 2113.83 897.691 2109.83 923.123 2097.43 949.257 2077.97 973.268 2057.21 998.873 2029.39 1021.39 1995.26 1040.18L1989.22 1043.5ZM1878.21 860.605 1993.8 1023.27C2023.44 1006.16 2047.69 986.085 2065.97 963.539 2083.72 941.639 2094.99 918.039 2098.57 895.291 2103.04 866.849 2095.65 841.374 2077.2 821.586 2045.36 795.273 2007.51 789.856 1964.69 805.483 1930.45 817.981 1899.51 841.502 1878.21 860.605H1878.21ZM1053.48 1042.97 1091.12 995.778 1224.27 829.083 1254.21 791.417C1254.21 791.417 1117.78 563.487 945.961 732.443 801 874.799 1053.48 1042.97 1053.48 1042.97Z" class="color474747 svgShape"></path>
  <path fill="#474747" d="M1055.1 1053.33L1049.2 1049.4C1047.73 1048.41 1012.7 1024.94 975.882 987.817C925.897 937.421 898.331 888.4 893.95 842.116C889.96 799.967 905.638 761.213 940.549 726.93C990.134 678.171 1041.9 656.852 1094.38 663.565C1135.46 668.82 1177.31 691.969 1215.39 730.509C1243.89 759.348 1260.16 786.315 1260.84 787.448L1263.58 792.036L1230.32 833.889L1097.16 1000.6L1055.1 1053.33ZM1075.69 677.822C1033.75 677.822 992.018 697.989 951.378 737.951C919.947 768.817 905.802 803.371 909.332 840.66C917.871 930.869 1025.58 1013.5 1051.97 1032.47L1085.08 990.96L1218.24 824.261L1244.73 790.924C1238.99 782.211 1224.79 761.952 1204.12 741.09C1179.31 716.048 1139.78 684.929 1092.35 678.885C1086.8 678.177 1081.24 677.823 1075.69 677.823L1075.69 677.822Z" class="color474747 svgShape"></path>
  <path fill="#f2c697" d="M1091.12 995.778L1224.27 829.083C1183.39 786.624 1094.39 712.812 1012.5 773.552C956.837 826.361 981.509 927.126 1091.12 995.778Z" class="colorf29797 svgShape"></path>
  <path fill="#474747" d="M1092.86 1005.98L1087.02 1002.33C1054 981.645 1027.48 957.606 1008.2 930.877C990.112 905.812 979.198 879.023 976.634 853.406C973.304 820.146 984.153 789.796 1007.18 767.948L1007.52 767.626L1007.9 767.347C1045.99 739.094 1089.37 735.115 1136.82 755.521C1175.39 772.109 1208.69 801.767 1229.84 823.725L1234.54 828.608L1092.86 1005.98ZM1017.48 779.478C997.946 798.199 989.139 823.219 992.007 851.867C994.301 874.78 1004.23 898.975 1020.73 921.836C1037.71 945.372 1060.8 966.772 1089.43 985.52L1213.97 829.604C1193.77 809.334 1164.2 784.114 1130.71 769.714C1088.84 751.708 1050.74 754.992 1017.48 779.477V779.478Z" class="color474747 svgShape"></path>
  <path fill="#f7f7f7" d="M1164.45 1754.57C1199.07 1771.14 1239.27 1786.25 1285.47 1799.7C1413 1848.25 1406.64 1897.66 1558.67 1821.97C1651.15 1775.71 1945.6 1799.78 2030.04 1564.19C2058.82 1484.55 2063.41 1375.09 2028.09 1223.26C2028.09 1223.26 2027.35 698.245 1501.58 689.877C1256.68 688.715 1017 821.317 1025.44 1251.48C946.452 1454.16 922.157 1639.19 1164.45 1754.57Z" class="colorf7f7f7 svgShape"></path>
  <path fill="#474747" d="M1439.65 1872.58H1439.46C1408.83 1872.53 1385.58 1860.41 1356.14 1845.06C1336.06 1834.59 1313.3 1822.72 1281.78 1810.7C1236.09 1797.37 1194.94 1782 1159.46 1765.03C1043.59 1709.85 979.339 1635.48 963.032 1537.66C950.349 1461.58 966.011 1372.61 1013.81 1249.41C1010.36 1053.77 1057.54 904.91 1154.04 806.959C1237.65 722.1 1357.81 677.598 1501.63 678.288C1501.68 678.288 1501.72 678.288 1501.76 678.289C1623.99 680.234 1728.43 710.138 1812.18 767.169C1879.31 812.887 1933.21 875.927 1972.37 954.539C1991.51 992.966 2017.26 1056.19 2031.19 1139.18C2038.69 1183.88 2039.56 1215.04 2039.67 1221.88C2056.62 1295.09 2065.04 1362.03 2064.69 1420.87C2064.37 1475.86 2056.38 1525.41 2040.93 1568.13C2025.83 1610.27 2003.03 1647.18 1973.17 1677.8C1946.93 1704.7 1915.69 1726.81 1877.64 1745.4C1809.03 1778.91 1731.77 1793.47 1669.69 1805.17C1625.31 1813.54 1586.99 1820.76 1563.85 1832.34C1507.21 1860.54 1470.05 1872.58 1439.64 1872.58L1439.65 1872.58ZM1498.48 701.457C1402.86 701.457 1269.47 722.831 1170.55 823.225C1078.22 916.944 1033.29 1060.95 1037.03 1251.25C1037.06 1252.76 1036.79 1254.27 1036.24 1255.68C989.39 1375.89 973.864 1461.68 985.895 1533.85C1000.86 1623.65 1060.9 1692.42 1169.43 1744.1C1169.44 1744.11 1169.44 1744.11 1169.45 1744.11C1203.91 1760.6 1244.04 1775.56 1288.71 1788.57C1289.01 1788.66 1289.3 1788.76 1289.59 1788.87C1322.61 1801.44 1347.14 1814.23 1366.86 1824.51C1395.56 1839.47 1414.53 1849.36 1439.5 1849.4H1439.65C1466.23 1849.4 1500.29 1838.09 1553.5 1811.6C1579.52 1798.58 1619.32 1791.08 1665.4 1782.4C1789.47 1759.01 1959.39 1726.98 2019.13 1560.28C2033.68 1520.02 2041.21 1473.08 2041.52 1420.73C2041.85 1363.38 2033.54 1297.82 2016.81 1225.89C2016.61 1225.03 2016.51 1224.16 2016.5 1223.28C2016.5 1221.99 2015.46 1092.54 1951.27 964.155C1913.85 889.316 1862.53 829.395 1798.74 786.055C1718.88 731.804 1618.85 703.344 1501.46 701.466C1500.47 701.461 1499.47 701.459 1498.48 701.459L1498.48 701.457Z" class="color474747 svgShape"></path>
  <path fill="#f2c697" d="M1209 1492.42C1208.41 1505.71 1231.1 1517.5 1259.69 1518.77C1288.27 1520.04 1311.92 1510.29 1312.51 1497C1313.1 1483.71 1290.4 1471.91 1261.82 1470.65C1233.23 1469.38 1209.58 1479.13 1209 1492.42ZM1760.37 1468.35C1788.98 1468 1812.3 1478.51 1812.46 1491.81C1812.62 1505.11 1789.55 1516.17 1760.94 1516.51C1732.33 1516.86 1709.01 1506.35 1708.85 1493.05C1708.69 1479.75 1731.76 1468.69 1760.37 1468.35Z" class="colorf29797 svgShape"></path>
  <path fill="#474747" d="M1281.34 1435.27C1281.34 1435.27 1062.63 1447.35 1098.7 1329.65 1157.14 1138.93 1301.63 1012.81 1341.85 1112.9 1379.76 1207.25 1459.44 1446.14 1281.34 1435.27H1281.34ZM1683.8 1421.25C1683.8 1421.25 1902.51 1433.33 1866.44 1315.63 1808 1124.91 1663.51 998.791 1623.29 1098.88 1585.37 1193.22 1505.69 1432.12 1683.8 1421.25Z" class="color474747 svgShape"></path>
  <path fill="#f7f7f7" d="M1335.99 1369.11C1332.79 1369.11 1329.61 1367.79 1327.32 1365.21C1325.76 1363.48 1290.37 1325.27 1234.72 1358.31C1229.22 1361.58 1222.11 1359.76 1218.84 1354.26C1215.57 1348.76 1217.39 1341.65 1222.89 1338.38C1260.53 1316.04 1291.56 1320.19 1310.96 1327.6C1332.05 1335.66 1344.19 1349.3 1344.69 1349.87C1348.92 1354.68 1348.45 1362 1343.64 1366.23C1341.44 1368.16 1338.71 1369.11 1335.99 1369.11L1335.99 1369.11Z" class="colorf7f7f7 svgShape"></path>
  <path fill="#f9f9f9" d="M1664.84 1386.51C1686.39 1385.5 1702.56 1356.73 1700.96 1322.23C1699.35 1287.74 1680.58 1260.59 1659.03 1261.59C1637.47 1262.6 1621.3 1291.37 1622.91 1325.87C1624.51 1360.36 1643.29 1387.51 1664.84 1386.51Z" class="colorf9f9f9 svgShape"></path>
  <path fill="#474747" d="M1663.67 1361.43C1676.57 1360.83 1686.25 1343.61 1685.29 1322.96C1684.33 1302.32 1673.09 1286.07 1660.19 1286.67C1647.29 1287.27 1637.62 1304.49 1638.58 1325.14C1639.54 1345.78 1650.77 1362.03 1663.67 1361.43Z" class="color474747 svgShape"></path>
  <path fill="#f9f9f9" d="M1677.68 1308.7C1683.62 1308.7 1688.44 1303.88 1688.44 1297.94C1688.44 1291.99 1683.62 1287.17 1677.68 1287.17C1671.73 1287.17 1666.92 1291.99 1666.92 1297.94C1666.92 1303.88 1671.73 1308.7 1677.68 1308.7Z" class="colorf9f9f9 svgShape"></path>
  <path fill="#474747" d="M1472.33 1494.14C1442.11 1499.33 1382.03 1452.36 1457.54 1435.58 1533.05 1418.81 1498.95 1489.56 1472.33 1494.14ZM1510.29 1624.87C1476.43 1622.42 1446.53 1645.83 1434.52 1662.2 1428.29 1639.73 1424.72 1619.29 1424.34 1617.37 1453.31 1610.95 1459.45 1571.87 1460.04 1545.61 1462.83 1573.04 1473.11 1615.22 1510.29 1624.87V1624.87Z" class="color474747 svgShape"></path>
  <path fill="#474747" d="M1434.52 1673.79C1433.83 1673.79 1433.13 1673.73 1432.44 1673.6C1428.07 1672.8 1424.54 1669.58 1423.36 1665.3C1420.72 1655.81 1416.82 1640.35 1413.15 1620.54C1413.06 1620.09 1413.01 1619.77 1412.97 1619.61C1411.75 1613.44 1415.69 1607.42 1421.84 1606.05C1444.73 1600.98 1448.08 1561.91 1448.46 1545.34C1448.59 1539.22 1453.47 1534.27 1459.59 1534.03C1465.68 1533.79 1470.95 1538.34 1471.57 1544.43C1476.61 1594.02 1496.99 1609.45 1513.2 1613.65C1519 1615.16 1522.7 1620.84 1521.73 1626.75C1520.75 1632.66 1515.42 1636.86 1509.46 1636.43C1480.45 1634.32 1454.33 1654.79 1443.87 1669.05C1441.66 1672.06 1438.17 1673.79 1434.52 1673.79H1434.52ZM1437.59 1624.86C1438.62 1629.98 1439.65 1634.72 1440.64 1639.06C1450.01 1631.03 1462.28 1623 1476.58 1618.05C1470.93 1612.23 1466.05 1605.23 1461.98 1597.11C1456.24 1610.18 1448.03 1619.57 1437.59 1624.86V1624.86Z" class="color474747 svgShape"></path>
  <path fill="#474747" d="M1412.25 1630.1C1400.06 1630.1 1384.57 1627.42 1371.46 1618.24 1356.57 1607.81 1347.54 1591.51 1344.6 1569.79 1343.75 1563.44 1348.19 1557.61 1354.53 1556.75 1360.88 1555.89 1366.71 1560.34 1367.57 1566.68 1369.6 1581.73 1375.39 1592.7 1384.76 1599.26 1400.77 1610.47 1421.67 1606.09 1421.88 1606.05 1428.14 1604.68 1434.3 1608.65 1435.67 1614.9 1437.03 1621.16 1433.06 1627.33 1426.81 1628.69 1423.12 1629.5 1418.06 1630.1 1412.25 1630.1ZM1540.88 1639.81C1533.39 1639.81 1526.9 1639.02 1522.22 1638.44 1520.82 1638.27 1519.55 1638.11 1518.41 1638 1513.81 1637.53 1510.34 1636.92 1507.16 1636.02 1500.99 1634.29 1497.41 1627.89 1499.14 1621.73 1500.87 1615.57 1507.27 1611.98 1513.43 1613.71 1515.28 1614.23 1517.54 1614.61 1520.76 1614.94 1522.03 1615.07 1523.47 1615.24 1525.04 1615.44 1545.18 1617.91 1578.89 1622.04 1595.25 1572.01 1597.24 1565.93 1603.78 1562.6 1609.87 1564.6 1615.95 1566.59 1619.27 1573.13 1617.28 1579.21 1600.23 1631.36 1565.28 1639.81 1540.88 1639.81Z" class="color474747 svgShape"></path>
  <path fill="#f2c697" d="M1519.7 1626.1C1519.7 1626.23 1519.7 1626.35 1519.58 1626.47C1487.63 1763.48 1448.62 1713.74 1434.52 1662.2C1446.53 1645.83 1476.42 1622.42 1510.29 1624.87C1513.31 1624.96 1516.44 1625.41 1519.7 1626.1Z" class="colorf29797 svgShape"></path>
  <path fill="#474747" d="M1472.04 1726.72C1442.47 1726.72 1427.31 1679.73 1423.35 1665.26 1422.41 1661.85 1423.09 1658.2 1425.18 1655.35 1436.78 1639.53 1469.58 1610.43 1510.9 1613.29 1514.34 1613.42 1518.01 1613.9 1522.11 1614.77 1527.43 1615.9 1531.25 1620.57 1531.29 1626.01L1519.7 1626.1 1531.29 1626.01C1531.3 1627.55 1531.04 1628.9 1530.65 1630.06 1515.27 1695.54 1496.8 1726.26 1472.57 1726.72 1472.39 1726.72 1472.22 1726.72 1472.04 1726.72H1472.04ZM1447.34 1664.75C1450.76 1675.67 1455.09 1685.38 1459.75 1692.51 1465.09 1700.65 1469.6 1703.55 1472.07 1703.55H1472.13C1472.81 1703.53 1488.13 1702.45 1505.24 1636.28 1480.72 1636.3 1458.78 1651.77 1447.34 1664.75ZM1511.31 1618.35C1511.31 1618.35 1511.31 1618.35 1511.31 1618.35 1511.31 1618.35 1511.31 1618.35 1511.31 1618.35ZM1460.03 1557.19C1453.87 1557.19 1448.75 1552.35 1448.47 1546.13L1445.73 1486.01C1445.44 1479.61 1450.39 1474.2 1456.79 1473.91 1463.18 1473.61 1468.6 1478.56 1468.89 1484.96L1471.62 1545.08C1471.91 1551.47 1466.96 1556.89 1460.57 1557.18 1460.39 1557.19 1460.21 1557.2 1460.03 1557.2L1460.03 1557.19ZM548.956 2121.87C548.956 2121.87 561.014 2324.09 712.712 2266.26 796.223 2227.91 768.527 2121.87 768.527 2121.87 768.527 2121.87 740.717 2048.5 771.541 2009.59 802.365 1970.69 806.425 1853.3 748.143 1825.91 748.143 1825.91 794.806 1614.5 746.133 1619.2 697.46 1623.89 655.976 1656.09 671.306 1783.71 550.261 1743.3 516.168 1790.02 516.168 1862.85 516.168 1862.85 474.08 1949.02 536.523 1993.49 521.038 2023.35 479.463 2079.14 548.956 2121.87Z" class="color474747 svgShape"></path>
  <path fill="#474747" d="M662.004 2288.27C641.909 2288.27 623.698 2283.05 607.532 2272.61C552.403 2237 540.235 2152.03 537.888 2128.53C510.209 2109.92 496.978 2086.62 498.542 2059.2C499.889 2035.59 512.13 2013.64 521.067 1997.62C521.275 1997.25 521.482 1996.88 521.688 1996.51C498.242 1975.84 487.794 1946.27 491.396 1910.34C493.767 1886.68 501.597 1867.1 504.59 1860.3C505.031 1818.06 516.541 1789.39 539.736 1772.68C565.835 1753.88 604.618 1752.13 657.972 1767.43C652.845 1707.49 660.743 1665.37 681.981 1638.97C696.794 1620.56 717.414 1610.32 745.019 1607.66C753.413 1606.85 761.167 1609.92 766.826 1616.31C785.449 1637.34 780.419 1695.91 775.014 1738.14C770.618 1772.49 764.29 1805.06 761.238 1819.95C780.156 1832.15 793.636 1853.66 800.476 1882.78C811.546 1929.9 802.825 1988.77 780.621 2016.79C754.283 2050.03 779.11 2117.1 779.364 2117.77C779.508 2118.15 779.635 2118.55 779.737 2118.94C780.042 2120.11 787.162 2147.91 783.45 2180.98C778.373 2226.19 755.584 2259.33 717.546 2276.79C717.314 2276.9 717.077 2277 716.838 2277.09C697.282 2284.54 678.971 2288.27 662.002 2288.27L662.004 2288.27ZM560.524 2121.17C560.584 2122.14 567.083 2218.94 620.154 2253.17C643.341 2268.12 672.968 2268.93 708.221 2255.57C738.509 2241.53 756.047 2215.78 760.346 2179.03C763.464 2152.38 758.3 2128.94 757.43 2125.27C754.35 2116.84 729.28 2044.27 762.457 2002.4C778.219 1982.5 788.191 1931.82 777.915 1888.08C773.654 1869.94 764.175 1846.25 743.214 1836.4C738.312 1834.09 735.659 1828.7 736.826 1823.41C736.92 1822.99 746.225 1780.59 752.046 1735.05C762.457 1653.58 752.712 1635.33 749.478 1631.68C748.606 1630.69 748.189 1630.64 747.246 1630.73C726.178 1632.76 710.737 1640.21 700.041 1653.5C681.159 1676.97 675.362 1720.31 682.812 1782.33C683.286 1786.27 681.708 1790.18 678.629 1792.69C675.55 1795.2 671.4 1795.96 667.636 1794.7C613.76 1776.72 575.29 1775.63 553.286 1791.48C536.106 1803.86 527.756 1827.2 527.756 1862.85C527.756 1864.61 527.354 1866.35 526.58 1867.93C526.49 1868.12 516.764 1888.43 514.4 1913.25C511.427 1944.48 521.131 1968.3 543.245 1984.05C547.948 1987.4 549.468 1993.7 546.809 1998.83C545.168 2001.99 543.293 2005.35 541.309 2008.91C533.03 2023.75 522.725 2042.22 521.682 2060.51C521.26 2067.91 519.975 2090.44 555.025 2111.99C558.244 2113.97 560.296 2117.4 560.523 2121.17L560.524 2121.17Z" class="color474747 svgShape"></path>
  <path fill="#f7f7f7" d="M2238.4 2421.49C2168.4 2457.65 2088.67 2491.03 2002.45 2519.15C1939.26 2539.7 1877.14 2555.92 1817.96 2567.67C1571.35 2617.11 1373.11 2592.08 1342.05 2496.43C1303.42 2377.92 1536.59 2195.75 1862.77 2089.75C2188.95 1983.6 2484.7 1993.79 2523.17 2112.31C2551.6 2199.61 2432.93 2321.21 2238.4 2421.49Z" class="colorf7f7f7 svgShape"></path>
  <path fill="#474747" d="M1591.45 2604.09C1557.79 2604.09 1526.34 2602.04 1497.54 2597.93C1405.12 2584.74 1347.55 2550.88 1331.03 2500.01C1310.73 2437.72 1355.98 2359.32 1458.47 2279.27C1557.89 2201.61 1700.2 2130.39 1859.19 2078.73C2018.16 2026.99 2175.16 2000.88 2301.26 2005.2C2431.24 2009.65 2513.96 2046.42 2534.19 2108.73C2549.32 2155.19 2528.11 2210.95 2472.85 2269.96C2421.07 2325.25 2341.83 2381.21 2243.71 2431.8C2171.03 2469.34 2091.07 2502.44 2006.05 2530.17C1943.27 2550.58 1880.75 2567.02 1820.22 2579.03C1737.27 2595.67 1659.8 2604.09 1591.45 2604.09V2604.09ZM2273.7 2027.91C2155.08 2027.91 2011.72 2053.46 1866.36 2100.77C1709.86 2151.62 1570.08 2221.5 1472.74 2297.53C1426.02 2334.02 1391.84 2369.78 1371.15 2403.82C1350.81 2437.28 1344.72 2467.23 1353.07 2492.84C1371.65 2550.05 1461.43 2580.81 1590.94 2580.82C1656.93 2580.82 1733.21 2572.84 1815.68 2556.3C1875.34 2544.46 1936.96 2528.26 1998.87 2508.13C2082.7 2480.78 2161.5 2448.17 2233.08 2411.2L2233.09 2411.19C2328.89 2361.81 2405.95 2307.49 2455.94 2254.11C2518.01 2187.83 2520.77 2142.36 2512.15 2115.9C2503.83 2090.28 2481.3 2069.64 2445.16 2054.55C2408.39 2039.2 2359.71 2030.39 2300.47 2028.36C2291.7 2028.06 2282.77 2027.91 2273.7 2027.91L2273.7 2027.91Z" class="color474747 svgShape"></path>
  <path fill="#474747" d="M2238.4 2421.49C2236.39 2474.18 2205.49 2497.82 2163.92 2505.55C2155.11 2507.25 2145.84 2508.33 2136.26 2508.64C2080.02 2510.96 2105.05 2583.58 2066.73 2586.36C2028.56 2589.14 1949.76 2624.07 1891.82 2632.56C1886.87 2633.34 1882.39 2633.49 1878.07 2633.03H1877.91C1831.4 2629.01 1817.96 2567.67 1817.96 2567.67C1877.14 2555.92 1939.25 2539.7 2002.45 2519.15C2088.67 2491.03 2168.4 2457.65 2238.4 2421.49V2421.49Z" class="color474747 svgShape"></path>
  <path fill="#474747" d="M1883.02 2644.88C1881.09 2644.88 1879.2 2644.78 1877.33 2644.6C1877.19 2644.59 1877.06 2644.58 1876.92 2644.57C1822.54 2639.87 1807.26 2572.99 1806.64 2570.15C1805.97 2567.11 1806.56 2563.92 1808.27 2561.32C1809.97 2558.71 1812.65 2556.91 1815.7 2556.3C1875.34 2544.47 1936.97 2528.26 1998.87 2508.13C2082.7 2480.78 2161.5 2448.17 2233.08 2411.2C2236.74 2409.3 2241.13 2409.5 2244.61 2411.71C2248.09 2413.92 2250.13 2417.82 2249.98 2421.94C2247.98 2474.25 2218.96 2507.11 2166.04 2516.94C2156.46 2518.79 2146.56 2519.9 2136.69 2520.22C2115.28 2521.12 2110.66 2533.76 2104.34 2556C2099.26 2573.86 2092.94 2596.08 2067.57 2597.92C2050.16 2599.19 2021.77 2608.27 1991.7 2617.88C1959.92 2628.05 1923.91 2639.56 1893.55 2644.02C1889.89 2644.59 1886.4 2644.88 1883.02 2644.88ZM1878.55 2621.45C1878.8 2621.46 1879.05 2621.48 1879.3 2621.5C1882.59 2621.86 1886.1 2621.73 1890.03 2621.11C1890.07 2621.11 1890.1 2621.1 1890.14 2621.1C1918.62 2616.92 1952.19 2606.19 1984.65 2595.81C2017.42 2585.33 2045.73 2576.27 2065.89 2574.8C2073.88 2574.22 2076.65 2568.62 2082.04 2549.66C2085.11 2538.88 2088.58 2526.67 2096.02 2516.63C2105.13 2504.36 2118.51 2497.77 2135.79 2497.06C2135.82 2497.06 2135.85 2497.06 2135.89 2497.06C2144.56 2496.78 2153.25 2495.81 2161.73 2494.17C2181.67 2490.46 2197.12 2483.1 2207.71 2472.28C2215.52 2464.29 2220.98 2454.07 2224.03 2441.76C2156.68 2475.22 2083.46 2504.91 2006.05 2530.16C1947.61 2549.17 1889.4 2564.73 1832.81 2576.47C1838.65 2592.17 1852.37 2618.95 1878.55 2621.45Z" class="color474747 svgShape"></path>
  <path fill="#dddddd" d="M2163.92 2505.55C2141.36 2559.63 2083.88 2669.8 1988.08 2677.84C1918.09 2683.71 1889.5 2657.59 1878.07 2633.03C1882.39 2633.49 1886.87 2633.33 1891.82 2632.56C1949.76 2624.06 2028.56 2589.14 2066.73 2586.36C2105.05 2583.58 2080.02 2510.96 2136.26 2508.64C2145.84 2508.33 2155.11 2507.25 2163.92 2505.55Z" class="colordddddd svgShape"></path>
  <path fill="#474747" d="M1968.87 2690.26C1905.88 2690.26 1879.01 2662.51 1867.56 2637.92C1865.8 2634.13 1866.21 2629.68 1868.64 2626.28C1871.07 2622.88 1875.15 2621.05 1879.3 2621.5C1882.58 2621.86 1886.09 2621.73 1890.03 2621.11C1890.07 2621.11 1890.1 2621.1 1890.14 2621.1C1918.62 2616.92 1952.18 2606.19 1984.65 2595.81C2017.42 2585.33 2045.73 2576.27 2065.89 2574.8C2073.88 2574.22 2076.65 2568.62 2082.04 2549.66C2085.1 2538.88 2088.58 2526.67 2096.02 2516.63C2105.13 2504.36 2118.51 2497.77 2135.78 2497.06C2135.82 2497.06 2135.85 2497.06 2135.89 2497.06C2144.56 2496.78 2153.25 2495.81 2161.72 2494.17C2165.91 2493.36 2170.21 2494.92 2172.91 2498.23C2175.6 2501.55 2176.26 2506.07 2174.62 2510.01C2162.69 2538.59 2142.22 2580.24 2112.4 2616.34C2075.48 2661.04 2033.98 2685.61 1989.05 2689.38C1981.95 2689.98 1975.22 2690.26 1968.87 2690.26L1968.87 2690.26ZM1898.67 2643.21C1915.91 2661.79 1946.03 2669.73 1987.11 2666.29C2025.59 2663.06 2061.73 2641.29 2094.53 2601.58C2116.62 2574.84 2133.34 2544.64 2144.97 2519.77C2142.21 2519.98 2139.45 2520.13 2136.7 2520.22C2115.28 2521.12 2110.66 2533.76 2104.34 2556C2099.26 2573.86 2092.95 2596.08 2067.57 2597.92C2050.16 2599.19 2021.77 2608.27 1991.71 2617.88C1961.69 2627.48 1927.9 2638.28 1898.67 2643.21L1898.67 2643.21Z" class="color474747 svgShape"></path>
  <path fill="#595bd4" d="M611.99 2149.8C592.177 2149.8 569.289 2145.09 543.74 2132.22C538.025 2129.34 535.726 2122.37 538.607 2116.65C541.487 2110.94 548.454 2108.64 554.171 2111.52C591.077 2130.12 625.447 2131.65 656.322 2116.08C677.382 2105.45 689.901 2090.01 692.363 2086.8C695.121 2081.07 700.432 2066.36 696.79 2056.26C695.212 2051.89 692.061 2048.82 686.874 2046.6C680.989 2044.08 678.26 2037.27 680.777 2031.39C683.294 2025.5 690.103 2022.77 695.989 2025.29C707.067 2030.03 714.896 2038.06 718.632 2048.51C726.471 2070.44 714.005 2095.45 712.558 2098.23C712.324 2098.68 712.059 2099.12 711.768 2099.53C711.139 2100.43 696.042 2121.67 667.785 2136.25C653.749 2143.49 634.93 2149.8 611.99 2149.8V2149.8Z" class="color848484 svgShape"></path>
  <path fill="#595bd4" d="M590.022 2062.97C583.774 2062.97 577.725 2062.69 572.032 2062.05C565.672 2061.33 561.096 2055.59 561.813 2049.23C562.53 2042.87 568.281 2038.3 574.625 2039.01C612.352 2043.26 671.197 2029.16 685.289 2025.57C689.643 2020.63 700.13 2007.02 699.233 1991.49C698.566 1979.93 691.506 1968.92 678.251 1958.77C673.169 1954.88 672.201 1947.61 676.091 1942.53C679.981 1937.44 687.252 1936.48 692.337 1940.37C711.274 1954.86 721.383 1971.68 722.385 1990.38C724.005 2020.6 700.422 2043.39 699.418 2044.34C698.026 2045.67 696.328 2046.62 694.476 2047.13C691.797 2047.86 635.686 2062.97 590.022 2062.97Z" class="color848484 svgShape"></path>
  <path fill="#595bd4" d="M600.468 1969.05C577.031 1969.05 558.934 1967.3 558.027 1967.21C551.658 1966.58 547.004 1960.91 547.631 1954.54C548.26 1948.17 553.932 1943.51 560.299 1944.14C598.461 1947.89 666.29 1947.05 685.848 1928.84C689.249 1925.67 690.717 1922.4 690.607 1918.24C690.237 1905.51 670.063 1894.72 635.259 1888.67C604.614 1883.34 573.756 1883.6 573.45 1883.6C573.409 1883.6 573.367 1883.6 573.326 1883.6C566.982 1883.6 561.807 1878.49 561.741 1872.13C561.674 1865.73 566.808 1860.49 573.208 1860.42C574.548 1860.4 606.519 1860.14 639.231 1865.83C687.942 1874.31 713.022 1891.72 713.775 1917.6C714.06 1928.41 709.862 1938.15 701.633 1945.81C686.787 1959.62 657.749 1967.36 615.323 1968.8C610.218 1968.97 605.231 1969.05 600.467 1969.05L600.468 1969.05Z" class="color848484 svgShape"></path>
  <path fill="#595bd4" d="M694.913 1905.68C693.61 1905.68 692.285 1905.46 690.988 1904.99C684.967 1902.82 681.842 1896.18 684.01 1890.16C706.315 1828.21 665.757 1794.14 664.02 1792.72C659.022 1788.73 658.235 1781.45 662.233 1776.45C666.23 1771.45 673.547 1770.66 678.545 1774.66C679.13 1775.13 692.997 1786.37 703.122 1807.2C712.398 1826.28 720.396 1857.52 705.817 1898.01C704.116 1902.74 699.662 1905.68 694.913 1905.68Z" class="color848484 svgShape"></path>
  <path fill="#474747" d="M850.324 2288.25C850.188 2288.25 850.053 2288.25 849.917 2288.24 843.521 2288.02 838.515 2282.66 838.734 2276.26 838.781 2274.91 843.009 2140.05 810.784 2052.16 808.796 2046.74 811.102 2040.68 816.193 2037.95 821.285 2035.22 827.604 2036.67 831.015 2041.32L926.527 2171.82C930.307 2176.99 929.184 2184.24 924.02 2188.02 918.853 2191.8 911.602 2190.68 907.824 2185.51L848.955 2105.08C854.173 2132.01 857.895 2162.34 860.083 2195.83 863.073 2241.61 861.947 2275.64 861.898 2277.06 861.681 2283.32 856.538 2288.25 850.324 2288.25ZM889.03 2572.78C888.064 2572.78 887.083 2572.65 886.105 2572.4 879.911 2570.79 876.195 2564.46 877.806 2558.27 898.29 2479.52 929.353 2390.01 970.131 2292.21 1002.7 2214.11 1041.51 2130.55 1085.49 2043.86 1160.34 1896.29 1225.17 1789.26 1225.81 1788.2 1229.13 1782.73 1236.26 1780.99 1241.73 1784.31 1247.2 1787.63 1248.94 1794.76 1245.62 1800.23 1244.98 1801.29 1180.54 1907.7 1106.07 2054.52 981.754 2299.6 925.52 2466.91 900.237 2564.1 898.88 2569.32 894.178 2572.78 889.029 2572.78L889.03 2572.78ZM1924.61 2074.69C1924.3 2074.69 1923.99 2074.68 1923.68 2074.66 1917.32 2074.16 1912.57 2068.61 1913.04 2062.25 1913.06 2061.95 1913.62 2051.83 1909.13 2041.82 1903.48 2029.27 1892.58 2022.5 1875.78 2021.14 1846.15 2018.75 1787.74 1996.58 1739.92 1969.57 1658.79 1923.75 1641.74 1886.25 1641.72 1862.86 1641.71 1856.46 1646.9 1851.26 1653.3 1851.26H1653.31C1659.7 1851.26 1664.89 1856.44 1664.9 1862.84 1664.91 1886.48 1697.22 1918.84 1751.32 1949.39 1801.04 1977.47 1854.6 1996.18 1877.65 1998.04 1910.15 2000.67 1924.45 2018.7 1930.72 2033.36 1937.16 2048.4 1936.27 2062.46 1936.15 2064.01 1935.67 2070.08 1930.59 2074.69 1924.61 2074.69L1924.61 2074.69Z" class="color474747 svgShape"></path>
  <path fill="#167ffc" d="M1647.33 1998.21C1662.39 1998.21 1674.6 1986 1674.6 1970.94C1674.6 1955.89 1662.39 1943.68 1647.33 1943.68C1632.28 1943.68 1620.07 1955.89 1620.07 1970.94C1620.07 1986 1632.28 1998.21 1647.33 1998.21Z" class="colorffffff svgShape"></path>
  <path fill="#474747" d="M1647.33 2009.8C1625.91 2009.8 1608.48 1992.37 1608.48 1970.94C1608.48 1949.52 1625.91 1932.09 1647.33 1932.09C1668.76 1932.09 1686.19 1949.52 1686.19 1970.94C1686.19 1992.37 1668.76 2009.8 1647.33 2009.8ZM1647.33 1955.27C1638.69 1955.27 1631.66 1962.3 1631.66 1970.94C1631.66 1979.59 1638.69 1986.62 1647.33 1986.62C1655.98 1986.62 1663.01 1979.59 1663.01 1970.94C1663.01 1962.3 1655.98 1955.27 1647.33 1955.27Z" class="color474747 svgShape"></path>
  <path fill="#167ffc" d="M1799.45 2090.37C1814.51 2090.37 1826.72 2078.16 1826.72 2063.1C1826.72 2048.05 1814.51 2035.84 1799.45 2035.84C1784.4 2035.84 1772.19 2048.05 1772.19 2063.1C1772.19 2078.16 1784.4 2090.37 1799.45 2090.37Z" class="colorffffff svgShape"></path>
  <path fill="#474747" d="M1799.45 2101.96C1778.03 2101.96 1760.6 2084.53 1760.6 2063.1 1760.6 2041.68 1778.03 2024.25 1799.45 2024.25 1820.88 2024.25 1838.31 2041.68 1838.31 2063.1 1838.31 2084.53 1820.88 2101.96 1799.45 2101.96ZM1799.45 2047.43C1790.81 2047.43 1783.78 2054.46 1783.78 2063.11 1783.78 2071.75 1790.81 2078.78 1799.45 2078.78 1808.1 2078.78 1815.13 2071.75 1815.13 2063.11 1815.13 2054.46 1808.1 2047.43 1799.45 2047.43ZM1914.91 2040.43C1909.86 2040.43 1905.21 2037.09 1903.77 2031.98 1898.85 2014.57 1904.12 1992.85 1919.43 1967.43 1930.11 1949.68 1941.93 1936.48 1942.43 1935.93 1946.71 1931.17 1954.04 1930.78 1958.8 1935.07 1963.55 1939.35 1963.94 1946.67 1959.66 1951.43 1959.42 1951.69 1948.58 1963.86 1939.1 1979.69 1927.7 1998.71 1923.07 2015.05 1926.07 2025.69 1927.81 2031.85 1924.23 2038.25 1918.07 2039.99 1917.02 2040.29 1915.96 2040.43 1914.91 2040.43Z" class="color474747 svgShape"></path>
  <path fill="#53d86a" d="M1541.05 2415.98C1541.05 2415.98 1426.98 2460.43 1502.04 2490.88C1577.1 2521.33 1618.33 2544.11 1661.93 2527.39C1705.53 2510.67 1541.05 2415.98 1541.05 2415.98Z" class="color83c49f svgShape"></path>
  <path fill="#474747" d="M1631.36 2544.66C1601.07 2544.66 1569.09 2531.3 1526.72 2513.62C1517.5 2509.76 1507.95 2505.78 1497.69 2501.61C1475.82 2492.74 1464.78 2480.89 1464.88 2466.39C1464.98 2451.28 1477.44 2436.66 1502.96 2421.7C1519.69 2411.9 1536.15 2405.45 1536.84 2405.18C1540.11 2403.91 1543.78 2404.18 1546.83 2405.93C1548.18 2406.71 1580.22 2425.2 1612.56 2447.51C1674.38 2490.16 1681.75 2508.2 1680.81 2520.22C1680.44 2524.97 1678.03 2533.63 1666.08 2538.21C1654.43 2542.68 1643.01 2544.65 1631.36 2544.65L1631.36 2544.66ZM1540.17 2428.9C1534.35 2431.42 1524.33 2436.03 1514.46 2441.83C1488.85 2456.88 1488.06 2465.61 1488.06 2466.55C1488.04 2469.38 1492.83 2474.63 1506.4 2480.14C1516.78 2484.35 1526.37 2488.35 1535.65 2492.23C1590.64 2515.19 1624 2529.12 1657.02 2516.86C1654.66 2512.02 1644.13 2497.23 1597.35 2465.18C1573.75 2449.02 1550.13 2434.78 1540.17 2428.9Z" class="color474747 svgShape"></path>
  <path fill="#53d86a" d="M2246.52 2211.98C2246.52 2211.98 2317.87 2129.6 2341.92 2162.41C2365.97 2195.23 2471.57 2066.02 2462.46 2138.26C2453.34 2210.49 2275.79 2284.8 2246.52 2273.4C2217.25 2261.99 2246.52 2211.98 2246.52 2211.98Z" class="color83c49f svgShape"></path>
  <path fill="#474747" d="M2254.72 2286.12C2249.75 2286.12 2245.61 2285.48 2242.31 2284.2C2233.36 2280.71 2227.03 2274.24 2223.98 2265.5C2220.37 2255.12 2221.52 2241.76 2227.4 2225.8C2231.42 2214.88 2236.31 2206.48 2236.52 2206.13C2236.88 2205.51 2237.29 2204.93 2237.76 2204.39C2238.3 2203.77 2251.14 2189 2268 2174.18C2292.49 2152.64 2312.13 2142.49 2328 2143.13C2337.55 2143.52 2345.59 2147.82 2351.27 2155.57C2352.39 2157.08 2357.88 2156.05 2364.64 2153.06C2375.56 2148.21 2388.92 2139.08 2401.83 2130.25C2428.21 2112.22 2449.04 2097.97 2464.27 2107.27C2477.06 2115.08 2474.72 2133.62 2473.95 2139.71C2468.89 2179.87 2423.18 2214.87 2385.72 2237.16C2359.95 2252.5 2329.75 2266.54 2302.86 2275.68C2282.42 2282.63 2266.31 2286.12 2254.72 2286.12ZM2256.01 2218.73C2249.73 2229.87 2242.69 2248.76 2245.88 2257.9C2246.47 2259.59 2247.47 2261.33 2250.73 2262.6C2253.29 2263.54 2266.6 2263.7 2296.99 2253.19C2323.11 2244.16 2352.19 2230.42 2376.77 2215.5C2420.99 2188.66 2448.04 2159.97 2450.96 2136.81C2451.52 2132.39 2451.48 2129.58 2451.31 2127.91C2449.35 2128.45 2445.88 2129.79 2440.16 2133.01C2432.68 2137.24 2424.05 2143.14 2414.92 2149.38C2401.14 2158.8 2386.9 2168.54 2374.04 2174.24C2350.46 2184.7 2338.48 2177.31 2332.58 2169.27C2331.08 2167.23 2329.54 2166.39 2327.06 2166.29C2326.87 2166.28 2326.68 2166.28 2326.49 2166.28C2309.47 2166.28 2275.47 2196.51 2256.01 2218.73L2256.01 2218.73Z" class="color474747 svgShape"></path>
  <path fill="#fe9526" d="M2285.99 2229.43C2254.93 2320.75 1787.21 2632.87 1534.89 2459.2C1474.78 2402.49 1522.53 2264.35 1674.57 2163.76C1826.77 2063.17 2090.22 1995.49 2213.52 2063.17C2213.52 2063.17 2242.42 2084.19 2264.98 2117.41C2285.37 2147.08 2300.51 2186.48 2285.99 2229.43Z" class="colord89f4c svgShape"></path>
  <path fill="#474747" d="M1717.28 2522.43C1651.84 2522.43 1585.7 2508.24 1528.32 2468.74C1527.83 2468.41 1527.37 2468.03 1526.94 2467.63C1505.4 2447.31 1495.61 2418.03 1498.63 2382.97C1505.2 2306.64 1570.17 2218.94 1668.18 2154.1C1745.12 2103.24 1851.41 2060.22 1952.5 2039.03C2065 2015.43 2159.68 2020.4 2219.1 2053.01C2219.53 2053.25 2219.94 2053.51 2220.34 2053.8C2221.58 2054.71 2251.14 2076.4 2274.56 2110.9C2302.5 2151.54 2310.26 2193.83 2296.97 2233.14C2296.96 2233.15 2296.96 2233.16 2296.96 2233.16C2286.66 2263.44 2238.37 2310.6 2167.78 2359.32C2089.37 2413.44 1998.7 2458.98 1912.47 2487.57C1855.82 2506.34 1786.95 2522.43 1717.28 2522.43ZM1542.22 2450.17C1652.75 2525.67 1800.54 2500.25 1905.17 2465.57C1989.38 2437.65 2077.97 2393.15 2154.62 2340.25C2187.4 2317.62 2216.15 2294.6 2237.76 2273.67C2264.92 2247.37 2272.76 2232.33 2275.02 2225.7C2286.03 2193.12 2279.44 2158.9 2255.43 2123.97C2235.98 2095.33 2211.22 2075.97 2207.24 2072.95C2152.62 2043.35 2063.89 2039.35 1957.26 2061.71C1858.88 2082.34 1755.59 2124.11 1680.96 2173.43C1633.33 2204.95 1593.25 2242.37 1565.08 2281.66C1539.46 2317.38 1524.46 2353.1 1521.72 2384.96C1519.36 2412.36 1526.45 2434.89 1542.22 2450.17V2450.17Z" class="color474747 svgShape"></path>
  <path fill="#167ffc" d="M2381.94 2049.58C2347.8 2052.05 2296.03 2091.14 2264.98 2117.41C2242.42 2084.19 2213.52 2063.17 2213.52 2063.17C2213.52 2063.17 2334.2 2017.28 2369.58 1963.51C2404.81 1909.74 2457.97 1863.38 2460.28 1921.33C2462.45 1979.12 2456.11 1988.23 2495.82 2016.36C2535.69 2044.48 2433.86 2045.87 2381.94 2049.58Z" class="colorffffff svgShape"></path>
  <path fill="#474747" d="M2264.98 2129C2264.45 2129 2263.93 2128.96 2263.4 2128.89C2260.15 2128.44 2257.23 2126.64 2255.39 2123.92C2234.32 2092.89 2206.97 2072.74 2206.7 2072.54C2203.26 2070.03 2201.48 2065.84 2202.04 2061.63C2202.61 2057.42 2205.43 2053.85 2209.4 2052.34C2210.57 2051.9 2327 2007.15 2359.9 1957.14C2373.49 1936.39 2388.99 1917.63 2403.53 1904.33C2422.48 1886.98 2437.99 1880.29 2450.93 1883.88C2467.19 1888.38 2471.29 1906.48 2471.86 1920.87C2472.18 1929.23 2472.31 1936.56 2472.43 1943.03C2472.78 1961.39 2472.99 1972.47 2476.51 1980.82C2479.84 1988.69 2487.13 1996 2502.52 2006.9C2513.87 2014.91 2518.35 2023.51 2515.79 2032.45C2510.34 2051.55 2476.19 2055.6 2404.98 2059.75C2396.99 2060.22 2389.44 2060.66 2382.77 2061.14C2359.61 2062.82 2319.4 2086.56 2272.46 2126.26C2270.35 2128.04 2267.7 2129 2264.98 2129ZM2235.73 2066.61C2244.59 2074.65 2256.11 2086.22 2267.1 2100.57C2302.42 2071.73 2347.87 2040.42 2381.11 2038.02C2381.11 2038.02 2381.12 2038.02 2381.12 2038.02C2387.94 2037.53 2395.56 2037.08 2403.63 2036.61C2422.65 2035.5 2444.21 2034.25 2462.12 2032C2477.37 2030.09 2485.59 2027.97 2489.94 2026.4C2489.69 2026.22 2489.42 2026.02 2489.14 2025.83C2450.29 1998.31 2450.01 1983.38 2449.26 1943.46C2449.14 1937.1 2449.01 1929.88 2448.7 1921.76C2448.22 1909.69 2445.31 1906.37 2444.75 1906.22C2442.84 1905.68 2434.52 1907.39 2419.18 1921.42C2406.22 1933.29 2391.67 1950.94 2379.28 1969.86C2350.45 2013.67 2271.63 2051.21 2235.73 2066.61Z" class="color474747 svgShape"></path>
  <path fill="#ffd1a1" d="M2141.92 2033.23C2141.92 2033.23 2255.21 2160.97 2227.56 2194.03C2199.91 2227.09 2129.28 2207.37 2132.28 2252.55C2135.29 2297.72 2096.22 2293.22 2087.2 2327.78C2078.18 2362.34 2019.58 2432.97 1989.52 2339.8C1959.47 2246.63 1965.64 2245.13 1888.92 2344.31C1812.19 2443.49 1825.36 2333.5 1772.19 2417.8C1719.02 2502.1 1716.36 2279.69 1519.7 2330.79C1519.7 2330.79 1474.82 2324.61 1528.17 2259.32C1581.52 2194.03 1811.44 2042.47 1978.25 2028.84C2145.06 2015.2 2141.92 2033.23 2141.92 2033.23Z" class="colorffe2a1 svgShape"></path>
  <path fill="#474747" d="M1749.17 2448.68C1732.63 2448.68 1720.67 2432.91 1705.61 2413.05C1690.4 2393.01 1671.48 2368.06 1643.06 2351.82C1609.8 2332.8 1570.4 2329.59 1522.62 2342L1520.39 2342.58L1518.12 2342.27C1511.15 2341.31 1497.95 2336.11 1492.68 2322.69C1485.85 2305.31 1494.52 2282.18 1519.19 2251.99C1549.01 2215.5 1623.68 2160.29 1704.99 2114.61C1751.52 2088.46 1797.28 2066.92 1841 2050.57C1891.26 2031.77 1937.12 2020.57 1977.31 2017.29C2036.69 2012.43 2081.51 2011.01 2110.51 2013.05C2138.12 2015 2145.85 2019.66 2149.78 2023.96C2150.7 2024.97 2151.45 2026.05 2152.04 2027.19C2158.22 2034.27 2182.57 2062.64 2204.65 2094.66C2241.99 2148.82 2252.1 2182.76 2236.45 2201.47C2221.9 2218.87 2199.24 2223.83 2179.25 2228.2C2150.58 2234.48 2142.94 2238.12 2143.85 2251.78C2145.96 2283.5 2129.96 2296.41 2117.11 2306.78C2108.3 2313.89 2101.34 2319.51 2098.42 2330.71C2092.28 2354.22 2064.61 2396.7 2031.3 2397.65C2030.91 2397.66 2030.52 2397.67 2030.14 2397.67C2001.97 2397.67 1986.52 2368.24 1978.5 2343.36C1976.75 2337.95 1975.13 2332.85 1973.6 2328.05C1967.24 2308.05 1960.67 2287.41 1956.27 2282.01C1954.44 2283.07 1950.39 2286.15 1942.61 2295.03C1934 2304.85 1922.69 2319.52 1908.37 2338.08C1905.12 2342.3 1901.7 2346.74 1898.09 2351.4C1878.6 2376.6 1862.93 2391.13 1848.76 2397.15C1833.98 2403.44 1823.04 2399.46 1815.8 2396.82C1810.04 2394.72 1808.56 2394.39 1805.99 2395.64C1801.96 2397.6 1794.54 2404.1 1782 2423.98C1775.51 2434.27 1765.17 2448.02 1750.31 2448.66C1749.93 2448.67 1749.55 2448.68 1749.18 2448.68L1749.17 2448.68ZM1575.68 2311.46C1657.64 2311.46 1698.06 2364.76 1724.07 2399.05C1732.55 2410.22 1744.14 2425.5 1749.2 2425.5C1749.24 2425.5 1749.27 2425.5 1749.31 2425.5C1749.49 2425.49 1753.85 2425.15 1762.39 2411.62C1775.32 2391.12 1785.64 2379.76 1795.85 2374.8C1807.5 2369.14 1816.88 2372.55 1823.72 2375.04C1829.7 2377.22 1833.31 2378.53 1839.69 2375.82C1849.77 2371.54 1863.25 2358.55 1879.75 2337.22C1883.35 2332.57 1886.77 2328.14 1890.01 2323.93C1906.82 2302.13 1918.97 2286.38 1928.65 2275.88C1938.06 2265.67 1948.43 2256.51 1960.43 2258.63C1971.55 2260.59 1977.56 2271.25 1981.55 2280.32C1985.81 2290 1990.17 2303.69 1995.68 2321.02C1997.2 2325.79 1998.81 2330.86 2000.55 2336.24C2005.17 2350.58 2015.15 2374.49 2030.23 2374.49C2030.37 2374.49 2030.5 2374.48 2030.64 2374.48C2048.66 2373.97 2070.97 2344.08 2075.99 2324.85C2080.84 2306.27 2092.88 2296.55 2102.55 2288.74C2114.28 2279.27 2122.03 2273.02 2120.72 2253.32C2119.66 2237.31 2125.72 2225.17 2138.74 2217.23C2148.69 2211.16 2161.13 2208.44 2174.29 2205.56C2191.46 2201.8 2209.2 2197.92 2218.67 2186.6C2219.86 2185.18 2229.03 2170.9 2185.67 2107.96C2161.5 2072.87 2133.53 2041.23 2133.25 2040.92L2132.24 2039.77C2126.13 2037.42 2097.41 2030.72 1979.19 2040.38C1907.66 2046.23 1814.31 2079.76 1716.34 2134.81C1638.55 2178.51 1564.86 2232.73 1537.14 2266.65C1511.25 2298.33 1513.04 2310.98 1514.21 2314.1C1515.21 2316.79 1517.89 2318.18 1519.69 2318.83C1540.26 2313.71 1558.85 2311.46 1575.68 2311.46L1575.68 2311.46Z" class="color474747 svgShape"></path>
</svg>
