<svg xmlns="http://www.w3.org/2000/svg" width="3000" height="3000" fill="none" viewBox="0 0 3000 3000" id="PandaCooking">
  <path fill="#167ffc" d="M2046.1 689.171C2046.1 689.171 2379.45 1152.1 2434.32 797.264C2486.89 675.839 2648.34 471.875 2235.63 327.6C2166.88 219.451 2151.2 117.56 1968.55 150.442C1968.55 150.442 1511.98 31.3141 1809.44 461.845C1963.58 590.485 2046.1 689.171 2046.1 689.171Z" class="colorffffff svgShape"></path>
  <path fill="#474747" d="M2337.62 942.393C2287.87 942.394 2224.58 903.872 2149.07 827.528C2088.77 766.573 2041.17 701.576 2037.2 696.126C2032.18 690.188 1949.66 593.557 1802.21 470.506C1801.43 469.853 1800.74 469.096 1800.16 468.257C1749.75 395.289 1717.55 332.96 1704.46 283.002C1692.55 237.537 1696.02 200.902 1714.77 174.116C1729.04 153.726 1751.95 139.366 1782.87 131.434C1806.54 125.363 1835.06 123.014 1867.63 124.453C1916.04 126.592 1958.42 136.329 1968.96 138.912C2040.57 126.375 2092.38 133.311 2131.85 160.687C2168.01 185.772 2190.33 225.781 2213.95 268.14C2223.05 284.443 2232.43 301.27 2243.08 318.258C2318.48 344.91 2379.09 375.308 2423.28 408.639C2463.98 439.332 2492.27 473.674 2507.38 510.712C2543.78 599.922 2500.11 688.11 2465.03 758.971C2457.75 773.671 2450.86 787.583 2445.24 800.436C2432.33 882.299 2403 929.268 2358.07 940.041C2351.53 941.609 2344.71 942.393 2337.62 942.393ZM1817.85 454.173C1970.25 581.513 2053.92 680.944 2054.75 681.936C2054.92 682.144 2055.09 682.359 2055.25 682.579C2055.73 683.244 2103.81 749.731 2165.29 811.846C2244.42 891.806 2309.27 928.548 2352.81 918.102C2388.24 909.605 2411.91 868.369 2423.17 795.541C2423.32 794.591 2423.59 793.665 2423.97 792.783C2429.92 779.038 2437.15 764.429 2444.81 748.963C2477.88 682.164 2519.05 599.03 2486.49 519.237C2472.94 486.015 2447.1 454.866 2409.7 426.654C2366.65 394.185 2306.83 364.442 2231.91 338.25C2229.51 337.413 2227.47 335.793 2226.11 333.653C2214.25 315.001 2204.08 296.767 2194.25 279.133C2170.96 237.386 2150.85 201.332 2118.99 179.228C2097.17 164.093 2058.05 145.795 1970.55 161.546C1968.94 161.836 1967.29 161.772 1965.71 161.359C1965.24 161.239 1918.68 149.249 1866.27 146.978C1819.79 144.966 1758.97 150.286 1733.24 187.07C1718.47 208.182 1716.13 238.541 1726.29 277.303C1738.64 324.429 1769.44 383.928 1817.85 454.174L1817.85 454.173Z" class="color474747 svgShape"></path>
  <path fill="#f7f7f7" d="M2215.02 537.66C2215.02 537.66 2187.98 662.38 2139.11 712.306C2130.4 721.301 2121 727.904 2110.94 730.904C2044.51 750.848 1816.37 625.498 1809.44 461.846C1809.44 461.846 1854.89 343.038 2036.15 363.815C2217.43 384.443 2215.02 537.66 2215.02 537.66Z" class="colorf7f7f7 svgShape"></path>
  <path fill="#474747" d="M2094.58 744.261C2055.22 744.261 1995.24 720.009 1939.2 680.14C1900.61 652.682 1867.59 620.225 1843.71 586.279C1815.26 545.841 1799.94 504.136 1798.17 462.323C1798.11 460.786 1798.36 459.252 1798.9 457.815C1799.41 456.485 1811.78 424.909 1847.79 396.216C1868.74 379.525 1893.46 367.17 1921.25 359.493C1955.56 350.019 1994.64 347.702 2037.43 352.607C2080.62 357.521 2117.46 370.225 2146.94 390.366C2170.8 406.667 2189.82 427.779 2203.49 453.116C2226.68 496.095 2226.33 536.152 2226.3 537.837C2226.29 538.581 2226.21 539.322 2226.05 540.05C2224.92 545.272 2197.74 668.542 2147.17 720.197C2136.64 731.072 2125.52 738.326 2114.17 741.714C2108.45 743.43 2101.87 744.261 2094.58 744.261ZM1820.84 463.838C1822.92 498.576 1840.48 582.209 1952.28 661.757C1982.08 682.957 2014.73 700.444 2044.21 710.996C2071.41 720.73 2094.55 724.047 2107.7 720.1C2115.32 717.826 2123.15 712.566 2131 704.46C2174.6 659.924 2200.83 549.205 2203.73 536.461C2203.59 530.236 2201.94 497.264 2183.17 462.978C2171.16 441.034 2154.51 422.75 2133.68 408.635C2107.36 390.797 2074.11 379.488 2034.87 375.023C1995.34 370.492 1959.44 372.502 1928.15 380.995C1903.4 387.716 1881.43 398.505 1862.86 413.06C1839.18 431.631 1825.58 453.252 1820.84 463.837L1820.84 463.838Z" class="color474747 svgShape"></path>
  <path fill="#dddddd" d="M2139.11 712.306C2130.4 721.301 2121 727.904 2110.94 730.904C2044.51 750.848 1816.37 625.498 1809.44 461.846C1830.64 460.582 1850.4 460.768 1869.02 462.45C2018.34 475.207 2088.83 574.782 2121.56 657.819C2129.31 677.445 2134.95 695.981 2139.11 712.306Z" class="colordddddd svgShape"></path>
  <path fill="#474747" d="M2094.58 744.261C2055.22 744.261 1995.24 720.009 1939.2 680.14C1900.61 652.682 1867.59 620.225 1843.71 586.279C1815.26 545.841 1799.94 504.136 1798.17 462.323C1797.91 456.174 1802.63 450.951 1808.77 450.585C1830.78 449.273 1850.82 449.479 1870.03 451.215C1939.76 457.173 1999.19 482.15 2046.62 525.449C2082.79 558.475 2111.54 601.618 2132.06 653.681C2139.09 671.483 2145.14 690.273 2150.04 709.523C2151.01 713.316 2149.93 717.339 2147.21 720.151C2136.64 731.07 2125.52 738.325 2114.17 741.713C2108.45 743.429 2101.87 744.26 2094.58 744.26L2094.58 744.261ZM1821.61 472.559C1826.12 511.236 1848.96 588.242 1952.28 661.756C1982.08 682.957 2014.72 700.444 2044.21 710.996C2071.41 720.73 2094.55 724.047 2107.7 720.1C2113.87 718.259 2120.18 714.461 2126.52 708.781C2122.17 692.659 2116.99 676.939 2111.07 661.962C2091.82 613.12 2065.02 572.798 2031.41 542.111C1987.74 502.24 1932.78 479.22 1868.06 473.691C1853.3 472.358 1838.02 471.984 1821.61 472.561V472.559Z" class="color474747 svgShape"></path>
  <path fill="#474747" d="M2121.57 657.818C2031.61 658.723 1905.67 628.754 1869.02 462.449 2018.34 475.206 2088.83 574.781 2121.57 657.818ZM1949.66 376.163C1949 376.163 1948.33 376.105 1947.67 375.986 1945.37 375.576 1891.12 365.396 1872.5 316.886 1870.27 311.07 1873.17 304.545 1878.99 302.312 1884.8 300.08 1891.33 302.984 1893.56 308.8 1907.56 345.27 1951.21 353.7 1951.65 353.781 1957.77 354.907 1961.84 360.771 1960.73 366.888 1959.74 372.337 1955 376.163 1949.66 376.163ZM2284.17 616.431C2283.67 616.431 2283.16 616.397 2282.64 616.327 2244.56 611.157 2225.1 590.327 2215.47 573.764 2205.12 555.939 2203.82 539.164 2203.77 538.459 2203.33 532.245 2208.01 526.849 2214.23 526.408 2220.41 525.974 2225.81 530.622 2226.27 536.812 2226.45 538.932 2230.99 586.547 2285.68 593.971 2291.85 594.809 2296.18 600.493 2295.34 606.667 2294.57 612.325 2289.73 616.431 2284.17 616.431ZM2058.35 471.226C2056.62 471.226 2054.86 470.826 2053.21 469.981 2047.67 467.139 2045.48 460.341 2048.32 454.796L2068.44 415.544C2071.28 409.999 2078.08 407.81 2083.62 410.651 2089.17 413.493 2091.36 420.291 2088.52 425.835L2068.4 465.087C2066.4 468.983 2062.45 471.224 2058.35 471.224V471.226ZM2080.24 505.786C2078.62 505.786 2076.98 505.437 2075.42 504.699 2069.79 502.033 2067.39 495.308 2070.05 489.677L2093.57 439.987C2096.24 434.356 2102.97 431.951 2108.6 434.618 2114.23 437.284 2116.63 444.01 2113.97 449.64L2090.45 499.33C2088.52 503.402 2084.47 505.786 2080.24 505.786ZM2281.77 464.694C2277.17 464.694 2272.85 461.862 2271.18 457.294L2225.04 331.483C2222.89 325.634 2225.9 319.153 2231.75 317.008 2237.59 314.863 2244.08 317.865 2246.22 323.715L2292.36 449.526C2294.51 455.375 2291.5 461.856 2285.65 464.001 2284.37 464.471 2283.06 464.694 2281.77 464.694Z" class="color474747 svgShape"></path>
  <path fill="#f7f7f7" d="M2249.59 740.248C2249.59 740.248 2185.29 744.922 2189.08 623.681Z" class="colorf7f7f7 svgShape"></path>
  <path fill="#474747" d="M2248.88 751.542C2243.53 751.542 2225.38 750.268 2208.68 734.246 2186.56 713.02 2176.17 675.702 2177.81 623.329 2178.01 617.101 2183.23 612.214 2189.44 612.407 2195.67 612.601 2200.56 617.807 2200.36 624.034 2198.58 680.976 2212.4 706.545 2224.3 717.967 2236.18 729.363 2248.66 729.006 2248.77 728.997 2254.99 728.551 2260.39 733.216 2260.84 739.43 2261.29 745.644 2256.62 751.047 2250.41 751.499 2250.28 751.508 2249.75 751.542 2248.88 751.542ZM1851.84 192.035C1846.82 192.035 1842.25 188.666 1840.93 183.587 1839.36 177.557 1842.98 171.399 1849.01 169.833L1965.72 139.524C1971.75 137.958 1977.91 141.577 1979.47 147.607 1981.04 153.637 1977.42 159.795 1971.39 161.361L1854.68 191.67C1853.73 191.917 1852.78 192.035 1851.84 192.035Z" class="color474747 svgShape"></path>
  <path fill="#53d86a" d="M1488.34 2910.66C1362.72 2909.27 1065.97 2975.59 862.392 2754.62C796.075 2674.72 902.027 2717.09 862.392 2635.94C822.757 2554.8 846.741 2395.63 1326.6 2418.89C1806.46 2442.14 2478 2921.65 1488.34 2910.66Z" class="color83c49f svgShape"></path>
  <path fill="#474747" d="M1291.8 2930.18C1245.08 2930.18 1194.66 2927.26 1143.87 2917.91C1089.52 2907.9 1039.13 2891.28 994.1 2868.51C941.759 2842.04 894.655 2806.29 854.095 2762.26C853.963 2762.12 853.835 2761.97 853.71 2761.83C834.624 2738.83 827.217 2723.35 828.941 2710.05C830.576 2697.45 839.871 2690.82 847.338 2685.49C852.906 2681.51 857.715 2678.08 859.444 2672.91C861.721 2666.1 859.302 2655.33 852.254 2640.9C831.545 2598.5 833.606 2553.02 857.907 2516.12C882.979 2478.06 930.434 2449.32 998.956 2430.7C1079.77 2408.75 1190.19 2400.98 1327.14 2407.62C1470.02 2414.55 1640.06 2462.48 1782.01 2535.84C1849.58 2570.76 1906.1 2609.33 1945.44 2647.38C1989.29 2689.8 2010.96 2730.1 2009.85 2767.17C2009.12 2791.82 1998.24 2814.1 1977.51 2833.38C1956.64 2852.79 1925.41 2869.26 1884.7 2882.35C1802.49 2908.77 1680.3 2922.13 1521.24 2922.13C1510.39 2922.13 1499.4 2922.07 1488.21 2921.95C1467.57 2921.72 1442.14 2923.36 1412.68 2925.26C1377.73 2927.52 1336.45 2930.18 1291.8 2930.18L1291.8 2930.18ZM870.889 2747.2C909.568 2789.13 954.446 2823.17 1004.28 2848.37C1047.39 2870.18 1095.73 2886.11 1147.95 2895.72C1244.52 2913.5 1336.95 2907.54 1411.23 2902.74C1441.14 2900.81 1466.98 2899.14 1488.47 2899.38C1661.31 2901.3 1792.3 2888.34 1877.8 2860.87C1915.34 2848.8 1943.72 2834 1962.14 2816.86C1978.29 2801.84 1986.76 2784.9 1987.3 2766.5C1988.2 2736.46 1968.3 2700.88 1929.75 2663.6C1891.97 2627.05 1837.3 2589.8 1771.65 2555.88C1632.44 2483.93 1465.86 2436.93 1326.05 2430.16C1191.46 2423.63 1083.41 2431.14 1004.87 2452.48C941.814 2469.61 898.708 2495.2 876.75 2528.53C848.625 2571.23 864.428 2614.41 872.526 2631C882.54 2651.49 885.181 2667.09 880.841 2680.06C876.787 2692.19 867.727 2698.65 860.447 2703.85C855.013 2707.73 851.666 2710.24 851.314 2712.96C850.956 2715.72 852.151 2724.58 870.886 2747.2H870.889Z" class="color474747 svgShape"></path>
  <path fill="#167ffc" d="M2003.83 2421.28C2003.83 2421.28 2004.89 2766.62 1866.81 2804.07C1615.93 2876.57 1608.71 2647.5 1608.71 2647.5C1605.55 2647.35 1602.54 2647.2 1599.54 2647.2C1570.51 2645.39 1473.34 2634.86 1325.19 2573.95C931.272 2719.84 973.386 2485.66 973.386 2485.66C973.386 2485.66 707.013 1920.88 749.88 1797.84C792.746 1674.66 1119.58 1399.71 1119.58 1399.71C1119.58 1399.71 1139.29 1402.72 1172.68 1408.14C1260.21 1422.57 1442.36 1454.46 1613.07 1496.12C1700.46 1517.48 1784.84 1541.4 1851.92 1566.82C2153.94 2091.74 2003.83 2421.28 2003.83 2421.28L2003.83 2421.28Z" class="colorffffff svgShape"></path>
  <path fill="#474747" d="M1776.9 2829.55C1735.68 2829.55 1700.59 2819.13 1671.99 2798.32C1614.31 2756.35 1601.2 2685.27 1598.26 2658.42C1570.68 2656.64 1472.66 2646.23 1324.98 2586.05C1239.34 2617.43 1168.09 2633.13 1111.72 2633.14C1064.78 2633.14 1028.18 2622.25 1002.15 2600.46C956.048 2561.87 959.831 2502.87 961.741 2487.39C951.665 2465.82 890.778 2334.48 835.053 2191.99C799.351 2100.7 772.696 2022.7 755.827 1960.15C733.972 1879.11 728.542 1824.8 739.228 1794.13C757.589 1741.36 826.138 1657.36 942.967 1544.47C1029.32 1461.03 1111.5 1391.77 1112.32 1391.08C1114.81 1388.99 1118.08 1388.06 1121.29 1388.56C1121.48 1388.59 1141.42 1391.64 1174.48 1397C1266.69 1412.21 1446.58 1443.88 1615.75 1485.16C1713.93 1509.16 1794.74 1533.08 1855.92 1556.26C1858.35 1557.19 1860.4 1558.93 1861.7 1561.19C1931.07 1681.76 1982.3 1802.09 2013.96 1918.82C2039.34 2012.42 2052.28 2103.95 2052.41 2190.88C2052.62 2327.85 2021.29 2408.97 2015.1 2423.65C2014.98 2438.35 2013.61 2518.11 1998.19 2600.7C1988.12 2654.62 1974.1 2699.33 1956.51 2733.61C1933.65 2778.14 1904.5 2805.5 1869.85 2814.93C1836.1 2824.68 1805.07 2829.55 1776.9 2829.55ZM1599.9 2635.92C1602.92 2635.93 1605.8 2636.06 1608.84 2636.21L1609.25 2636.23C1615.12 2636.51 1619.8 2641.26 1619.98 2647.14C1620.01 2648 1623.69 2735.4 1685.4 2780.18C1727.63 2810.82 1787.61 2815.22 1863.68 2793.24C1863.74 2793.22 1863.8 2793.2 1863.86 2793.19C1900.07 2783.36 1948.92 2741.33 1975.95 2596.86C1992.6 2507.9 1992.55 2422.17 1992.55 2421.32C1992.55 2419.69 1992.89 2418.09 1993.57 2416.61C1993.83 2416.01 2002.95 2395.49 2011.89 2357.74C2020.22 2322.55 2030.1 2264.78 2029.85 2189.35C2029.57 2104.53 2016.79 2015.13 1991.88 1923.63C1961.01 1810.23 1911.32 1693.28 1844.15 1575.94C1784.29 1553.53 1705.67 1530.37 1610.39 1507.08C1441.96 1465.97 1262.7 1434.42 1170.84 1419.27C1147.57 1415.49 1130.84 1412.87 1122.95 1411.65C1086.01 1443.11 799.413 1689.82 760.534 1801.55C754.334 1819.34 752.263 1860.27 777.597 1954.23C794.243 2015.98 820.63 2093.17 856.023 2183.68C916.417 2338.11 982.923 2479.44 983.588 2480.84C984.588 2482.97 984.902 2485.35 984.487 2487.65C984.386 2488.23 974.482 2548.05 1016.79 2583.3C1038.48 2601.37 1070.47 2610.53 1111.9 2610.53C1112.6 2610.53 1113.31 2610.53 1114.02 2610.52C1168.15 2610.12 1237.88 2594.25 1321.27 2563.37C1323.93 2562.38 1326.86 2562.44 1329.48 2563.51C1366.8 2578.86 1496.52 2629.4 1599.9 2635.92L1599.9 2635.92Z" class="color474747 svgShape"></path>
  <path fill="#474747" d="M1613.07 1496.12C1542.83 1588.47 1439.5 1678.27 1308.5 1664.73C1194.34 1652.85 1174.93 1491.46 1172.68 1408.14C1260.22 1422.57 1442.36 1454.46 1613.07 1496.12Z" class="color474747 svgShape"></path>
  <path fill="#474747" d="M1334.64 1677.37C1325.56 1677.37 1316.46 1676.9 1307.34 1675.95 1278.01 1672.9 1252.47 1660.56 1231.41 1639.28 1213.8 1621.47 1199.21 1597.2 1188.05 1567.15 1168.12 1513.5 1162.56 1451.23 1161.4 1408.44 1161.31 1405.07 1162.73 1401.85 1165.26 1399.63 1167.8 1397.42 1171.19 1396.46 1174.51 1397 1266.69 1412.21 1446.58 1443.88 1615.75 1485.16 1619.44 1486.07 1622.43 1488.77 1623.7 1492.35 1624.98 1495.94 1624.35 1499.92 1622.05 1502.95 1580.35 1557.77 1535.79 1600.41 1489.61 1629.66 1439.55 1661.37 1387.54 1677.37 1334.64 1677.37ZM1184.46 1421.53C1186.34 1461.49 1192.35 1513.94 1209.2 1559.3 1230.67 1617.11 1264.47 1648.81 1309.66 1653.51 1366.79 1659.41 1423.27 1644.98 1477.53 1610.61 1517.56 1585.25 1556.49 1549.08 1593.42 1502.98 1438.03 1465.79 1276.29 1436.87 1184.46 1421.53ZM1290.25 669.751 1341.03 651.395 1520.55 586.637 1561 571.933C1561 571.933 1563.68 334.325 1353.62 382.708 1176.48 423.384 1290.25 669.751 1290.25 669.751Z" class="color474747 svgShape"></path>
  <path fill="#474747" d="M1286.32 679.17L1283.42 672.904C1282.76 671.465 1267.02 637.122 1256.31 591.53C1241.76 529.575 1243.7 479.167 1262.09 441.703C1278.86 407.532 1309.09 385.216 1351.93 375.378C1412.75 361.372 1462.35 369.382 1499.38 399.19C1528.34 422.509 1549.48 459.856 1560.51 507.195C1568.75 542.589 1568.53 570.833 1568.52 572.017L1568.46 577.222L1523.12 593.703L1343.58 658.468L1286.31 679.169L1286.32 679.17ZM1406.45 383.752C1390.57 383.752 1373.51 385.844 1355.3 390.037C1317.1 398.811 1290.28 418.415 1275.6 448.306C1240.25 520.306 1282.81 632.575 1294.35 660.273L1338.47 644.323L1518 579.563L1553.38 566.701C1553.06 557.155 1551.66 535.381 1545.77 510.235C1538.6 479.636 1523.08 437.558 1489.9 410.868C1467.45 392.812 1439.5 383.753 1406.45 383.753L1406.45 383.752Z" class="color474747 svgShape"></path>
  <path fill="#f2c697" d="M1341.03 651.395L1520.55 586.637C1509.25 535.133 1475.96 437.214 1385.1 445.189C1317.95 459.396 1289.6 547.758 1341.03 651.396L1341.03 651.395Z" class="colorf29797 svgShape"></path>
  <path fill="#474747" d="M1337.27 660.745 1334.29 654.738C1318.76 623.448 1309.78 592.634 1307.58 563.154 1305.52 535.475 1309.76 509.838 1319.84 489.012 1332.95 461.926 1355.57 443.749 1383.54 437.831L1383.99 437.737 1384.44 437.697C1426.94 433.968 1462.05 451.321 1488.81 489.275 1510.51 520.058 1522.04 558.336 1527.9 585.025L1529.31 591.471 1337.27 660.745ZM1386.21 452.641C1362.77 457.737 1344.5 472.571 1333.37 495.565 1324.44 514.009 1320.71 536.994 1322.58 562.035 1324.49 587.692 1331.98 614.572 1344.85 642.02L1511.73 581.822C1505.8 557.033 1495.11 524.323 1476.51 497.941 1453.16 464.817 1422.78 449.576 1386.21 452.641ZM2028.77 1320.75 2024.95 1255.19 2011.28 1023.48 2008.32 971.221C2008.32 971.221 2272.63 854.327 2319.25 1112.32 2358.69 1329.82 2028.77 1320.75 2028.77 1320.75Z" class="color474747 svgShape"></path>
  <path fill="#474747" d="M2034.71 1328.33C2031.09 1328.33 2028.95 1328.28 2028.57 1328.27L2021.67 1328.08L2017.44 1255.63L2003.77 1023.93L2000.52 966.449L2005.28 964.344C2006.59 963.764 2037.88 950.057 2081.21 942.34C2139.04 932.038 2190.56 937.705 2230.19 958.73C2280.79 985.579 2313.24 1036.81 2326.65 1110.98C2336.09 1163.08 2325.76 1207.11 2295.94 1241.85C2277.78 1263.01 2252.28 1280.7 2220.15 1294.46C2194.77 1305.32 2165.17 1313.78 2132.19 1319.59C2087.45 1327.47 2049.21 1328.33 2034.71 1328.33ZM2016.13 976.142L2018.78 1023.06L2032.46 1254.75L2035.87 1313.27C2050.7 1313.2 2087.73 1312.18 2129.87 1304.72C2179.51 1295.95 2246.63 1276.21 2284.55 1232.03C2311.26 1200.9 2320.44 1161.08 2311.85 1113.66C2299.31 1044.28 2269.48 996.631 2223.19 972.045C2177.02 947.521 2122.13 950.372 2084.22 957.08C2052.11 962.763 2026.36 972.105 2016.13 976.142Z" class="color474747 svgShape"></path>
  <path fill="#f2c697" d="M2024.95 1255.19L2011.28 1023.48C2074.26 1011.42 2199.67 1001.7 2234.31 1107.08C2250.62 1188.95 2165.45 1263 2024.95 1255.19Z" class="colorf29797 svgShape"></path>
  <path fill="#474747" d="M2045.34 1263.29C2038.51 1263.29 2031.57 1263.09 2024.53 1262.7L2017.84 1262.33L2003.38 1017.34L2009.86 1016.1C2042.35 1009.87 2090.44 1004.44 2134.98 1013.88C2189.63 1025.47 2225.45 1056.03 2241.46 1104.73L2241.6 1105.17L2241.69 1105.61C2248.38 1139.21 2239.04 1172.72 2215.39 1199.97C2197.13 1221.01 2170.75 1237.87 2139.09 1248.74C2110.92 1258.41 2079.46 1263.29 2045.34 1263.29ZM2032.06 1248C2069.69 1249.41 2104.02 1244.88 2134.2 1234.52C2163.36 1224.51 2187.5 1209.15 2204.03 1190.11C2224.76 1166.23 2232.71 1138.19 2227.03 1109C2212.74 1066.01 2180.72 1038.96 2131.86 1028.6C2092.61 1020.28 2049.99 1024.27 2019.18 1029.68L2032.06 1248Z" class="color474747 svgShape"></path>
  <path fill="#f7f7f7" d="M1106.21 821.012C1106.21 821.012 649.107 1153.19 1132.78 1482.26C1132.78 1482.26 1173.63 1602.6 1299.26 1574.55C1299.26 1574.55 1793.37 2009.28 2075.38 1245C2075.38 1245 2313.52 915.84 1868.12 584.667C1610.42 405.156 1237.52 523.944 1106.21 821.012Z" class="colorf7f7f7 svgShape"></path>
  <path fill="#474747" d="M1612.59 1708.94C1590.48 1708.94 1568.01 1707.01 1545.29 1703.14C1502.43 1695.84 1458.6 1681.66 1415.02 1661.01C1352.87 1631.56 1309.63 1597.81 1296.18 1586.71C1284.32 1589.01 1273.18 1590.05 1262.76 1590.05C1214.47 1590.05 1181.37 1567.86 1160.83 1546.8C1138.56 1523.96 1127.19 1498.87 1123.48 1489.57C976.68 1388.9 901.305 1277.33 899.455 1157.93C898.748 1112.36 908.932 1065.72 929.724 1019.31C946.221 982.48 969.404 945.717 998.625 910.038C1042.57 856.382 1086.28 821.927 1097.1 813.729C1130.89 738.362 1180.11 673.023 1243.44 619.478C1304 568.276 1376.21 529.952 1452.27 508.648C1524.22 488.495 1596.95 483.576 1668.44 494.025C1743.43 504.986 1812.78 532.367 1874.57 575.408C1874.66 575.474 1874.76 575.543 1874.85 575.612C1977.82 652.177 2053.04 735.19 2098.41 822.346C2134.98 892.586 2152.35 965.603 2150.05 1039.37C2148 1105.02 2130.41 1159.05 2116.01 1192.81C2102.34 1224.86 2089.06 1245.03 2085.45 1250.27C2034.8 1387.16 1973.63 1495.03 1903.63 1570.91C1843.01 1636.62 1774.89 1679.4 1701.17 1698.05C1672.51 1705.31 1642.88 1708.94 1612.59 1708.94L1612.59 1708.94ZM1299.26 1563.26C1301.98 1563.26 1304.63 1564.25 1306.71 1566.08C1307.17 1566.48 1353.95 1607.22 1425.32 1640.93C1466.99 1660.61 1508.79 1674.08 1549.55 1680.98C1600.18 1689.54 1649.38 1687.91 1695.79 1676.14C1765.16 1658.55 1829.54 1617.97 1887.13 1555.53C1955.32 1481.59 2015.09 1375.79 2064.8 1241.09C2065.15 1240.13 2065.64 1239.22 2066.24 1238.38C2066.38 1238.19 2080.93 1217.83 2095.68 1182.96C2109.24 1150.91 2125.78 1099.67 2127.53 1037.52C2129.5 967.796 2112.85 898.663 2078.02 832.04C2034.22 748.241 1961.38 668.088 1861.53 593.821C1802.67 552.859 1736.61 526.792 1665.18 516.351C1597.8 506.503 1526.28 511.351 1458.36 530.375C1385.39 550.812 1316.11 587.582 1258.01 636.708C1196.55 688.669 1148.95 752.211 1116.53 825.571C1115.72 827.391 1114.45 828.966 1112.84 830.136C1112.16 830.634 1063.37 866.467 1015.69 924.806C987.821 958.91 965.769 993.929 950.151 1028.89C930.811 1072.18 921.344 1115.52 922.014 1157.69C923.801 1270.07 996.847 1376.14 1139.12 1472.93C1141.15 1474.31 1142.67 1476.31 1143.46 1478.63C1143.55 1478.9 1153.46 1507.2 1177.53 1531.61C1208.94 1563.45 1249.07 1574.19 1296.8 1563.54C1297.62 1563.35 1298.44 1563.26 1299.26 1563.26H1299.26Z" class="color474747 svgShape"></path>
  <path fill="#474747" d="M1519.97 1267.63C1519.97 1267.63 1729.51 1386.81 1739.72 1272.4 1749.93 1157.98 1699.58 930.27 1618.92 976.557 1538.26 1022.84 1422.44 1215.84 1519.97 1267.63ZM1201.09 1088.24C1201.09 1088.24 1047.09 1005.13 1120.8 940.03 1240.25 834.548 1391.32 808.991 1376.92 893.953 1363.34 974.039 1317.85 1170.01 1201.09 1088.24Z" class="color474747 svgShape"></path>
  <path fill="#f2c697" d="M1649.57 1382.69C1644.82 1397.87 1614.49 1401.9 1581.84 1391.68C1549.19 1381.46 1526.57 1360.87 1531.32 1345.69C1536.07 1330.51 1566.39 1326.49 1599.04 1336.7C1631.7 1346.92 1654.32 1367.51 1649.57 1382.69ZM1116.3 1073.01C1087.38 1054.73 1057.04 1050.82 1048.55 1064.26C1040.05 1077.71 1056.61 1103.43 1085.53 1121.71C1114.46 1139.98 1144.79 1143.9 1153.29 1130.45C1161.79 1117 1145.23 1091.29 1116.3 1073.01Z" class="colorf29797 svgShape"></path>
  <path fill="#474747" d="M1323.79 1205.1C1295.16 1196.67 1262.83 1129.84 1336 1147.59 1409.17 1165.35 1349.02 1212.52 1323.79 1205.1ZM1300.85 1335.61C1272.31 1318.93 1236.15 1326.55 1218.62 1335.7 1222.82 1313.4 1228.48 1294.01 1228.97 1292.17 1257.04 1298.99 1279.17 1267.48 1290.96 1244.79 1281.62 1269.96 1272.5 1311.22 1300.85 1335.61Z" class="color474747 svgShape"></path>
  <path fill="#474747" d="M1218.62 1346.98C1216.25 1346.98 1213.89 1346.24 1211.91 1344.77C1208.44 1342.19 1206.74 1337.87 1207.54 1333.62C1209.31 1324.21 1212.53 1309.03 1217.83 1290.14C1217.95 1289.71 1218.03 1289.41 1218.07 1289.25C1219.66 1283.33 1225.68 1279.76 1231.64 1281.21C1253.82 1286.6 1273.51 1253.9 1280.95 1239.59C1283.7 1234.3 1290.09 1232.06 1295.53 1234.48C1300.98 1236.9 1303.61 1243.13 1301.54 1248.72C1284.66 1294.2 1295.84 1316.43 1308.2 1327.06C1312.62 1330.86 1313.42 1337.41 1310.03 1342.16C1306.64 1346.91 1300.19 1348.29 1295.15 1345.35C1270.7 1331.06 1239.11 1337.73 1223.84 1345.7C1222.2 1346.56 1220.41 1346.99 1218.62 1346.99L1218.62 1346.98ZM1237.33 1304.4C1236.03 1309.31 1234.89 1313.9 1233.9 1318.11C1245.53 1315.11 1259.69 1313.37 1274.31 1315.18C1271.88 1307.67 1270.62 1299.46 1270.55 1290.62C1259.92 1299.57 1248.72 1304.25 1237.33 1304.4L1237.33 1304.4Z" class="color474747 svgShape"></path>
  <path fill="#474747" d="M1228.98 1303.45C1228.08 1303.45 1227.17 1303.34 1226.27 1303.12 1215.19 1300.38 1193.48 1290.37 1182.4 1270.23 1173.86 1254.73 1172.96 1236.61 1179.73 1216.37 1181.7 1210.46 1188.09 1207.27 1194 1209.24 1199.91 1211.22 1203.1 1217.61 1201.12 1223.51 1196.44 1237.54 1196.79 1249.6 1202.16 1259.35 1211.33 1276.02 1231.47 1281.16 1231.68 1281.21 1237.73 1282.71 1241.42 1288.82 1239.92 1294.87 1238.65 1300.01 1234.05 1303.45 1228.98 1303.45ZM1355.14 1370.3C1332.55 1370.3 1314.67 1358.62 1305.44 1352.59 1304.29 1351.84 1303.25 1351.15 1302.3 1350.56 1298.49 1348.18 1295.72 1346.16 1293.32 1344.01 1288.68 1339.85 1288.29 1332.72 1292.45 1328.08 1296.61 1323.44 1303.74 1323.05 1308.38 1327.21 1309.77 1328.46 1311.58 1329.76 1314.25 1331.42 1315.31 1332.08 1316.49 1332.85 1317.78 1333.7 1334.32 1344.5 1361.99 1362.58 1397.76 1325.89 1402.11 1321.43 1409.25 1321.34 1413.71 1325.69 1418.17 1330.04 1418.26 1337.18 1413.91 1341.64 1392.72 1363.38 1372.53 1370.3 1355.14 1370.3L1355.14 1370.3Z" class="color474747 svgShape"></path>
  <path fill="#f2c697" d="M1308.53 1340.73C1308.48 1340.83 1308.43 1340.94 1308.28 1340.99C1221.56 1446.98 1208.82 1386.78 1218.62 1335.7C1236.14 1326.55 1272.31 1318.93 1300.85 1335.61C1303.44 1336.98 1305.98 1338.72 1308.53 1340.73Z" class="colorf29797 svgShape"></path>
  <path fill="#474747" d="M1235.89 1410.98C1231.73 1410.98 1227.84 1410.12 1224.17 1408.4 1197.79 1396.06 1204.78 1348.01 1207.55 1333.58 1208.19 1330.2 1210.35 1327.3 1213.4 1325.7 1230.33 1316.86 1271.5 1305.53 1306.34 1325.76 1309.3 1327.34 1312.3 1329.34 1315.5 1331.86 1319.66 1335.13 1320.99 1340.85 1318.7 1345.62 1318.05 1346.97 1317.24 1348.03 1316.4 1348.88 1281.98 1390.81 1255.95 1410.98 1235.89 1410.98H1235.89ZM1228.73 1343.44C1227.02 1354.44 1226.64 1364.78 1227.66 1373.01 1228.83 1382.49 1231.57 1386.95 1233.73 1387.97 1234.33 1388.25 1248.19 1393.87 1291.54 1343.41 1270.1 1332.9 1244.29 1337 1228.73 1343.44ZM1290.96 1256.07C1289.45 1256.07 1287.92 1255.77 1286.45 1255.13 1280.74 1252.64 1278.13 1245.99 1280.62 1240.28L1304.04 1186.58C1306.53 1180.87 1313.18 1178.26 1318.89 1180.75 1324.6 1183.24 1327.21 1189.89 1324.72 1195.6L1301.3 1249.3C1299.45 1253.54 1295.31 1256.07 1290.96 1256.07Z" class="color474747 svgShape"></path>
  <path fill="#f7f7f7" d="M1542.79 1209.67 1542.89 1209.59 1529.47 1191.46C1530.43 1190.74 1539.4 1184.36 1557.74 1179.41 1581.47 1173 1609.59 1171.79 1641.32 1175.8 1647.5 1176.58 1651.88 1182.22 1651.09 1188.4 1650.31 1194.58 1644.66 1198.96 1638.49 1198.18 1603.57 1193.77 1579.36 1197.16 1565.19 1200.78 1550 1204.66 1542.86 1209.62 1542.79 1209.67L1542.79 1209.67ZM1270.76 1069.39C1265.39 1069.39 1260.64 1065.54 1259.67 1060.09 1259.33 1058.26 1251.35 1019.09 1201.45 1018.38 1195.22 1018.29 1190.24 1013.17 1190.33 1006.94 1190.42 1000.76 1195.45 995.817 1201.61 995.817 1201.66 995.817 1201.72 995.817 1201.77 995.818 1237.54 996.329 1257.44 1012.54 1267.83 1026.05 1278.94 1040.49 1281.62 1054.63 1281.89 1056.19 1282.95 1062.33 1278.83 1068.17 1272.69 1069.22 1272.04 1069.34 1271.4 1069.39 1270.76 1069.39L1270.76 1069.39Z" class="colorf7f7f7 svgShape"></path>
  <path fill="#474747" d="M2003.83 2421.28C2003.83 2421.28 2004.89 2766.62 1866.81 2804.07C1615.93 2876.57 1608.71 2647.5 1608.71 2647.5C1909.38 2663.14 2003.83 2421.28 2003.83 2421.28Z" class="color474747 svgShape"></path>
  <path fill="#474747" d="M1776.9 2829.55C1735.68 2829.55 1700.59 2819.13 1671.99 2798.32 1601.35 2746.93 1597.56 2651.87 1597.43 2647.85 1597.34 2644.7 1598.56 2641.65 1600.82 2639.44 1603.07 2637.23 1606.14 2636.06 1609.3 2636.23 1675.99 2639.7 1737.63 2630.38 1792.5 2608.52 1836.33 2591.06 1876.03 2565.58 1910.51 2532.79 1969.51 2476.67 1993.1 2417.75 1993.33 2417.17 1995.31 2412.13 2000.59 2409.2 2005.91 2410.2 2011.23 2411.2 2015.1 2415.83 2015.11 2421.25 2015.11 2422.12 2015.18 2509.7 1998.19 2600.7 1988.12 2654.62 1974.09 2699.34 1956.5 2733.61 1933.65 2778.14 1904.5 2805.5 1869.85 2814.93 1836.1 2824.68 1805.07 2829.55 1776.9 2829.55ZM1621.16 2659.28C1624.57 2685 1637.5 2745.42 1685.4 2780.18 1727.63 2810.82 1787.61 2815.21 1863.68 2793.23 1863.74 2793.22 1863.8 2793.2 1863.86 2793.18 1900.11 2783.35 1948.99 2741.26 1976.01 2596.56 1984.84 2549.29 1988.95 2503 1990.87 2469.88 1976.87 2492.25 1956.03 2520.48 1926.81 2548.41 1890.24 2583.38 1848.07 2610.57 1801.48 2629.22 1747.01 2651.03 1686.41 2661.12 1621.16 2659.28ZM1325.19 2573.95C931.272 2719.84 973.386 2485.66 973.386 2485.66 1082.73 2524.16 1325.19 2573.95 1325.19 2573.95Z" class="color474747 svgShape"></path>
  <path fill="#474747" d="M1111.72 2633.14C1064.78 2633.14 1028.18 2622.26 1002.15 2600.47C949.846 2556.68 961.753 2486.62 962.285 2483.66C962.87 2480.4 964.854 2477.57 967.713 2475.91C970.569 2474.24 974.013 2473.92 977.135 2475.02C1084.51 2512.83 1325.04 2562.4 1327.46 2562.9C1332.39 2563.91 1336.06 2568.07 1336.44 2573.09C1336.82 2578.11 1333.83 2582.78 1329.11 2584.52C1241.63 2616.92 1168.99 2633.14 1111.72 2633.14ZM983.443 2500.99C983.028 2520.77 986.72 2558.24 1016.8 2583.3C1038.85 2601.68 1071.54 2610.83 1114.02 2610.52C1159.77 2610.18 1216.65 2598.8 1283.5 2576.64C1213.87 2561.61 1068.47 2528.97 983.443 2500.99Z" class="color474747 svgShape"></path>
  <path fill="#595bd4" d="M1888.34 2760.38C1882.11 2760.38 1877.06 2755.33 1877.06 2749.1V2702.52C1877.06 2696.29 1882.11 2691.24 1888.34 2691.24 1894.57 2691.24 1899.62 2696.29 1899.62 2702.52V2749.1C1899.62 2755.33 1894.57 2760.38 1888.34 2760.38ZM1806.27 2794.71C1800.04 2794.71 1794.99 2789.66 1794.99 2783.43V2725.81C1794.99 2719.58 1800.04 2714.53 1806.27 2714.53 1812.5 2714.53 1817.55 2719.58 1817.55 2725.81V2783.43C1817.55 2789.66 1812.5 2794.71 1806.27 2794.71ZM1728.96 2765.9C1722.73 2765.9 1717.69 2760.85 1717.69 2754.62V2714.78C1717.69 2708.55 1722.73 2703.5 1728.96 2703.5 1735.19 2703.5 1740.24 2708.55 1740.24 2714.78V2754.62C1740.24 2760.85 1735.19 2765.9 1728.96 2765.9Z" class="color848484 svgShape"></path>
  <path fill="#f7f7f7" d="M1559 2469.69C1642.75 2324.63 1476.24 2071.71 1187.1 1904.77C897.955 1737.84 595.667 1720.1 511.919 1865.15C428.172 2010.21 594.678 2263.13 883.821 2430.07C1172.96 2597 1475.25 2614.74 1559 2469.69Z" class="colorf7f7f7 svgShape"></path>
  <path fill="#474747" d="M1331.72 2579.15C1320.67 2579.15 1309.36 2578.81 1297.77 2578.13C1168.53 2570.55 1019.52 2521.43 878.18 2439.83C736.846 2358.24 619.804 2253.74 548.614 2145.61C513.614 2092.44 491.515 2041.14 482.932 1993.13C473.846 1942.29 480.312 1897.34 502.15 1859.51C523.989 1821.69 559.687 1793.61 608.254 1776.06C654.126 1759.49 709.608 1752.98 773.147 1756.71C902.391 1764.29 1051.41 1813.41 1192.74 1895C1334.07 1976.6 1451.12 2081.1 1522.31 2189.23C1557.31 2242.4 1579.41 2293.7 1587.99 2341.71C1597.07 2392.55 1590.61 2437.5 1568.77 2475.33C1546.93 2513.15 1511.23 2541.23 1462.67 2558.77C1425.16 2572.33 1381.22 2579.15 1331.72 2579.15L1331.72 2579.15ZM739.151 1778.25C692.299 1778.25 650.963 1784.62 615.92 1797.28C572.497 1812.97 540.793 1837.71 521.69 1870.8C502.586 1903.88 497.018 1943.71 505.143 1989.16C513.184 2034.14 534.15 2082.61 567.459 2133.2C601.084 2184.28 645.509 2234.81 699.498 2283.38C755.552 2333.82 819.465 2379.88 889.462 2420.3C959.459 2460.71 1031.31 2493.03 1103.01 2516.35C1172.08 2538.82 1238.05 2552.03 1299.1 2555.61C1359.56 2559.16 1412.02 2553.09 1455 2537.56C1498.42 2521.87 1530.13 2497.14 1549.23 2464.05C1568.33 2430.96 1573.9 2391.14 1565.78 2345.69C1557.74 2300.7 1536.77 2252.24 1503.46 2201.64C1469.84 2150.56 1425.41 2100.04 1371.42 2051.46C1315.37 2001.02 1251.46 1954.96 1181.46 1914.54C1111.46 1874.13 1039.61 1841.81 967.907 1818.49C898.843 1796.02 832.871 1782.81 771.825 1779.23C760.66 1778.57 749.761 1778.25 739.151 1778.25Z" class="color474747 svgShape"></path>
  <path fill="#f7f7f7" d="M1471.08 2389.57C1529.34 2288.66 1392.87 2100.79 1166.26 1969.95C939.644 1839.12 708.707 1814.86 650.443 1915.78C592.18 2016.69 728.654 2204.56 955.266 2335.4C1181.88 2466.23 1412.82 2490.49 1471.08 2389.57Z" class="colorf7f7f7 svgShape"></path>
  <path fill="#474747" d="M1321.73 2463.17C1306.97 2463.17 1291.42 2462.32 1275.13 2460.61C1176.16 2450.22 1060.56 2409.22 949.625 2345.17C838.686 2281.12 745.382 2201.51 686.899 2121C626.549 2037.92 610.133 1963.04 640.673 1910.14C671.214 1857.24 744.278 1834.01 846.396 1844.74C945.359 1855.13 1060.96 1896.13 1171.9 1960.18C1282.83 2024.23 1376.14 2103.85 1434.62 2184.35C1494.97 2267.43 1511.39 2342.31 1480.85 2395.21C1455.18 2439.67 1399.47 2463.17 1321.74 2463.17L1321.73 2463.17ZM799.796 1864.74C772.395 1864.74 748.01 1867.86 726.949 1874.09C695.413 1883.41 672.959 1899.34 660.212 1921.42C647.464 1943.5 644.9 1970.91 652.592 2002.88C660.348 2035.12 678.031 2070.4 705.152 2107.74C761.817 2185.74 852.645 2263.12 960.906 2325.63C1069.17 2388.13 1181.59 2428.1 1277.48 2438.17C1323.37 2442.99 1362.77 2440.67 1394.57 2431.26C1426.11 2421.93 1448.56 2406.01 1461.31 2383.93C1474.06 2361.85 1476.62 2334.44 1468.93 2302.47C1461.17 2270.23 1443.49 2234.95 1416.37 2197.61C1359.7 2119.61 1268.88 2042.23 1160.61 1979.72C1052.35 1917.22 939.926 1877.25 844.039 1867.18C828.538 1865.55 813.772 1864.74 799.796 1864.74Z" class="color474747 svgShape"></path>
  <path fill="#f9e2ca" d="M1316.77 2458.13C1246.53 2456.03 1236.15 2384.43 1236.15 2384.43C1236.15 2384.43 1234.8 2384.58 1232.09 2384.88C1222.61 2385.49 1197.49 2386.84 1169.07 2383.08C1122.89 2377.36 1067.99 2358.26 1056.56 2302.46C1053.85 2301.86 1050.85 2301.41 1047.69 2300.96H1047.39C1039.26 2299.6 1029.79 2298.7 1019.56 2297.65L994.895 2294.79C957.142 2290.28 915.329 2282.46 890.06 2259.9C876.072 2247.41 867.199 2230.72 866.596 2207.55C864.942 2206.5 863.287 2205.75 861.483 2205C826.739 2189.5 771.689 2214.62 769.734 2133.85C769.734 2133.85 767.929 2134.15 764.771 2134.45C755.897 2135.06 736.794 2134.9 719.197 2124.83C705.209 2117.01 692.274 2102.72 686.559 2077.6C686.559 2077.6 513.74 1947.2 686.559 1815.89C811.699 1720.83 912.923 1801.15 958.948 1852.59C976.545 1872.14 986.172 1887.49 986.172 1887.49C986.172 1887.49 993.542 1883.43 1004.82 1880.87C1024.68 1876.21 1056.56 1875.9 1081.68 1909.9C1118.23 1959.23 1157.94 1908.24 1185.31 1950.96C1187.57 1954.57 1189.82 1958.78 1191.93 1963.89C1196.14 1973.97 1202.01 1981.19 1209.08 1986.3C1241.86 2010.82 1298.12 1992.77 1313.76 2034.44C1316.47 2041.2 1317.97 2049.48 1318.12 2059.7C1318.42 2075.19 1322.03 2086.63 1327.75 2095.2C1349.11 2126.94 1399.94 2120.77 1418.74 2148.14C1423.56 2154.91 1426.26 2163.79 1426.11 2175.97C1425.96 2183.79 1427.92 2193.42 1431.38 2204.09C1459.05 2293.59 1578.93 2465.96 1316.77 2458.13L1316.77 2458.13Z" class="colorf9e4ca svgShape"></path>
  <path fill="#fe9526" d="M1333.59 2469.67C1328.02 2469.67 1322.31 2469.58 1316.43 2469.41C1275.17 2468.17 1252.4 2445.38 1240.56 2426.48C1233.55 2415.28 1229.54 2404.18 1227.35 2396.45C1206.45 2397.48 1186.37 2396.74 1167.59 2394.26C1138.36 2390.64 1113.58 2382.89 1094.01 2371.24C1070.04 2356.96 1054.38 2337.16 1047.35 2312.3C1047.16 2312.27 1046.96 2312.25 1046.76 2312.22C1046.35 2312.2 1045.94 2312.15 1045.53 2312.08C1038.67 2310.94 1030.48 2310.1 1021.8 2309.22L1018.41 2308.87C1018.36 2308.86 1018.31 2308.86 1018.26 2308.85L993.598 2306C954.275 2301.3 910.367 2293.15 882.548 2268.31C866.794 2254.25 857.796 2236.28 855.74 2214.81C847.946 2211.64 838.389 2210.63 828.299 2209.57C812.416 2207.91 795.992 2206.19 782.369 2195.83C769.122 2185.76 761.482 2169.38 759.163 2145.94C747.555 2145.99 730.122 2144.06 713.656 2134.66C695.43 2124.45 682.655 2107.01 676.534 2084.05C661.236 2071.57 598.593 2015.96 598.471 1942.31C598.39 1893.5 625.732 1847.94 679.736 1806.91C737.575 1762.98 796.812 1750.07 855.794 1768.54C905.273 1784.04 943.772 1818.71 967.356 1845.07C977.784 1856.65 985.504 1866.81 990.24 1873.43C993.563 1872.21 997.648 1870.93 1002.33 1869.87C1022.58 1865.11 1061.12 1863.09 1090.76 1903.19C1106.02 1923.8 1120.21 1922.79 1138.16 1921.51C1155.92 1920.25 1178.02 1918.68 1194.81 1944.87C1194.83 1944.91 1194.86 1944.94 1194.88 1944.98C1197.77 1949.6 1200.21 1954.38 1202.36 1959.6C1205.55 1967.22 1209.92 1972.99 1215.69 1977.16C1215.74 1977.2 1215.78 1977.23 1215.83 1977.27C1227.12 1985.71 1242.53 1988.25 1258.85 1990.94C1284.12 1995.11 1312.75 1999.83 1324.28 2030.35C1327.56 2038.6 1329.24 2048.15 1329.4 2059.54C1329.64 2071.86 1332.17 2081.5 1337.14 2088.94C1346.04 2102.17 1362.42 2107.56 1379.77 2113.26C1397.97 2119.25 1416.79 2125.43 1427.99 2141.68C1434.49 2150.85 1437.57 2162.12 1437.4 2176.11C1437.28 2182.37 1438.86 2190.59 1442.11 2200.62C1442.13 2200.67 1442.14 2200.71 1442.16 2200.76C1446.4 2214.47 1453.03 2230.57 1460.05 2247.6C1483.18 2303.72 1511.97 2373.56 1479.28 2420.85C1456.61 2453.64 1408.86 2469.67 1333.59 2469.67L1333.59 2469.67ZM1317.1 2446.86C1393.02 2449.11 1441.34 2436.06 1460.72 2408.02C1471.88 2391.88 1474.32 2369.7 1468.21 2340.22C1462.51 2312.77 1450.12 2282.71 1439.19 2256.2C1431.98 2238.7 1425.17 2222.17 1420.62 2207.5C1416.56 2194.93 1414.67 2184.55 1414.84 2175.75C1414.95 2166.75 1413.22 2159.83 1409.55 2154.68C1409.52 2154.63 1409.48 2154.58 1409.45 2154.53C1402.56 2144.5 1388.07 2139.74 1372.72 2134.69C1353.46 2128.36 1331.64 2121.18 1318.39 2101.5C1311.04 2090.47 1307.17 2076.5 1306.84 2059.92C1306.72 2051.36 1305.52 2044.21 1303.29 2038.62C1303.26 2038.55 1303.23 2038.47 1303.2 2038.4C1296.62 2020.87 1280.66 2017.41 1255.17 2013.2C1237.78 2010.33 1218.07 2007.08 1202.39 1995.39C1193.32 1988.8 1186.3 1979.67 1181.52 1968.24C1179.85 1964.17 1177.98 1960.51 1175.78 1957C1166.64 1942.76 1157.63 1942.75 1139.76 1944.02C1120.98 1945.35 1095.27 1947.18 1072.62 1916.61C1051.76 1888.38 1025.64 1887.57 1007.4 1891.85C997.913 1894 991.636 1897.35 991.574 1897.39C986.345 1900.21 979.776 1898.51 976.616 1893.48C976.529 1893.34 967.206 1878.63 950.563 1860.14C928.846 1835.86 893.627 1804.03 849.049 1790.07C797.441 1773.9 745.066 1785.61 693.382 1824.87C645.348 1861.37 621.005 1900.83 621.031 1942.17C621.053 1978.76 640.417 2010.94 656.656 2031.49C674.749 2054.39 693.178 2068.46 693.362 2068.6C695.477 2070.21 696.968 2072.51 697.557 2075.1C701.831 2093.88 710.964 2107.3 724.702 2114.98C724.735 2115 724.768 2115.02 724.802 2115.04C739.406 2123.4 755.473 2123.76 763.855 2123.21C766.411 2122.96 767.889 2122.72 767.904 2122.72C771.124 2122.2 774.42 2123.09 776.928 2125.18C779.436 2127.26 780.932 2130.32 781.011 2133.58C781.557 2156.12 786.466 2170.61 796.02 2177.87C804.621 2184.4 817.265 2185.73 830.652 2187.14C842.484 2188.38 854.718 2189.66 865.949 2194.64C868.028 2195.51 870.276 2196.52 872.654 2198.04C875.82 2200.05 877.777 2203.51 877.874 2207.26C878.352 2225.61 884.794 2240.08 897.571 2251.48C920.859 2272.27 962.531 2279.56 996.234 2283.59L1020.79 2286.43L1024.1 2286.77C1032.83 2287.66 1041.1 2288.51 1048.47 2289.7C1048.74 2289.72 1049.01 2289.75 1049.28 2289.79C1052.48 2290.25 1055.86 2290.75 1059.01 2291.45C1063.35 2292.41 1066.72 2295.84 1067.61 2300.2C1073.27 2327.79 1095.7 2362.63 1170.46 2371.88C1189.43 2374.39 1209.81 2374.98 1231.11 2373.64L1234.91 2373.22C1240.96 2372.55 1246.44 2376.79 1247.32 2382.81C1247.7 2385.32 1257.42 2445.07 1317.11 2446.86H1317.11L1317.1 2446.86Z" class="colorc99550 svgShape"></path>
  <path fill="#fff0e1" d="M1431.38 2204.09C1393.17 2213.27 1283.23 2250.87 1232.09 2384.88C1222.61 2385.49 1197.49 2386.84 1169.07 2383.08C1219 2298.85 1303.68 2187.4 1418.74 2148.14C1423.56 2154.91 1426.26 2163.78 1426.11 2175.97C1425.96 2183.79 1427.92 2193.41 1431.38 2204.09Z" class="colorfff1e1 svgShape"></path>
  <path fill="#fe9526" d="M1209.24 2396.9C1194.82 2396.9 1180.88 2396.02 1167.59 2394.26C1163.83 2393.76 1160.58 2391.41 1158.92 2388.01C1157.27 2384.6 1157.43 2380.58 1159.36 2377.32C1211.1 2290.05 1297.47 2177.6 1415.1 2137.47C1419.83 2135.86 1425.04 2137.54 1427.94 2141.6C1434.47 2150.8 1437.57 2162.08 1437.39 2176.11C1437.27 2182.37 1438.86 2190.59 1442.11 2200.62C1443.08 2203.61 1442.76 2206.87 1441.22 2209.61C1439.68 2212.35 1437.07 2214.33 1434.01 2215.06C1416.07 2219.37 1380.41 2230.53 1343.09 2256.89C1297.59 2289.02 1263.79 2333.44 1242.63 2388.91C1241.05 2393.03 1237.21 2395.86 1232.8 2396.14C1224.83 2396.65 1216.96 2396.9 1209.24 2396.9V2396.9ZM1187.98 2373.63C1199.65 2374.42 1211.77 2374.55 1224.25 2374.01C1247.17 2317.46 1282.75 2271.88 1330.08 2238.46C1363.71 2214.71 1396.2 2202.33 1417.4 2196.15C1415.56 2188.49 1414.72 2181.75 1414.84 2175.75C1414.9 2170.54 1414.35 2166.03 1413.16 2162.16C1354.23 2184.71 1270.81 2239.94 1187.98 2373.63Z" class="colorc99550 svgShape"></path>
  <path fill="#fff0e1" d="M1327.75 2095.2C1266.53 2118.51 1111.16 2186.95 1047.69 2300.96H1047.39L1019.56 2297.65L994.895 2294.79C1034.75 2212.22 1123.8 2115.8 1313.76 2034.43C1316.47 2041.2 1317.97 2049.47 1318.12 2059.7C1318.42 2075.19 1322.03 2086.62 1327.75 2095.2Z" class="colorfff1e1 svgShape"></path>
  <path fill="#fe9526" d="M1047.69 2312.24H1047.39C1046.94 2312.24 1046.49 2312.21 1046.05 2312.16L1018.23 2308.85L993.596 2305.99C989.969 2305.57 986.77 2303.42 985.01 2300.23C983.25 2297.03 983.148 2293.17 984.735 2289.88C1007.8 2242.09 1043.42 2196.94 1090.61 2155.67C1146.99 2106.35 1220.58 2062.07 1309.32 2024.06C1312.11 2022.86 1315.27 2022.85 1318.08 2024.01C1320.89 2025.17 1323.1 2027.42 1324.23 2030.24C1327.54 2038.52 1329.23 2048.1 1329.4 2059.53C1329.64 2071.86 1332.17 2081.49 1337.13 2088.94C1339.04 2091.8 1339.54 2095.36 1338.49 2098.63C1337.45 2101.9 1334.97 2104.52 1331.76 2105.74C1303.98 2116.32 1249.2 2139.21 1194.57 2173.61C1130.12 2214.2 1084.02 2258.89 1057.54 2306.44C1055.55 2310.02 1051.78 2312.24 1047.69 2312.24ZM1012.37 2285.46L1020.86 2286.44L1041.61 2288.91C1104.88 2182.54 1243.56 2116.53 1312.08 2089.2C1308.81 2080.65 1307.06 2070.85 1306.84 2059.92C1306.79 2056.39 1306.56 2053.09 1306.14 2050.05C1224.97 2085.92 1157.51 2127.13 1105.46 2172.65C1065.33 2207.75 1034.08 2245.64 1012.37 2285.46Z" class="colorc99550 svgShape"></path>
  <path fill="#fff0e1" d="M1209.08 1986.3C1116.12 2031.73 924.354 2138.37 890.06 2259.89C876.072 2247.41 867.199 2230.72 866.596 2207.55C864.942 2206.5 863.287 2205.75 861.483 2205C899.987 2137.61 991.736 2019.69 1185.31 1950.96C1187.57 1954.57 1189.82 1958.78 1191.93 1963.89C1196.14 1973.97 1202.01 1981.19 1209.08 1986.3Z" class="colorfff1e1 svgShape"></path>
  <path fill="#fe9526" d="M890.061 2271.18C887.326 2271.18 884.643 2270.18 882.549 2268.31C866.767 2254.23 857.764 2236.22 855.73 2214.7C853.433 2213.34 851.678 2211.19 850.806 2208.64C849.762 2205.57 850.084 2202.21 851.69 2199.4C889.694 2132.89 983.082 2010.8 1181.54 1940.33C1186.52 1938.56 1192.07 1940.49 1194.88 1944.98C1197.77 1949.6 1200.21 1954.38 1202.36 1959.6C1205.55 1967.22 1209.92 1972.99 1215.69 1977.16C1218.9 1979.49 1220.66 1983.32 1220.32 1987.27C1219.98 1991.22 1217.59 1994.7 1214.03 1996.44C1166.55 2019.64 1096.83 2057.07 1034.31 2103.61C960.031 2158.9 915.152 2212.51 900.916 2262.96C899.86 2266.7 896.95 2269.64 893.216 2270.73C892.177 2271.03 891.114 2271.18 890.061 2271.18ZM876.373 2201.92C877.296 2203.53 877.825 2205.36 877.874 2207.26C878.174 2218.8 880.831 2228.8 885.937 2237.46C906.3 2188.09 951.571 2137.07 1020.84 2085.51C1078.77 2042.39 1142.56 2007.01 1189.99 1983.17C1186.66 1978.75 1183.83 1973.76 1181.52 1968.24C1181.04 1967.09 1180.55 1965.96 1180.04 1964.86C1002.9 2030.28 915.126 2137.73 876.372 2201.92L876.373 2201.92Z" class="colorc99550 svgShape"></path>
  <path fill="#fff0e1" d="M1004.82 1880.87C948.719 1933.06 829.446 2047.07 764.77 2134.46C755.896 2135.06 736.793 2134.91 719.196 2124.83C758.002 2050.98 828.994 1954.72 958.946 1852.59C976.543 1872.14 986.17 1887.49 986.17 1887.49C986.17 1887.49 993.54 1883.43 1004.82 1880.87L1004.82 1880.87Z" class="colorfff1e1 svgShape"></path>
  <path fill="#fe9526" d="M758.788 2145.93C747.127 2145.93 729.9 2143.96 713.591 2134.62C708.322 2131.6 706.387 2124.96 709.21 2119.58C731.694 2076.79 760.984 2033.88 796.268 1992.04C839.321 1940.99 891.709 1891.08 951.977 1843.72C956.646 1840.05 963.362 1840.63 967.332 1845.04C977.772 1856.64 985.499 1866.8 990.237 1873.43C993.559 1872.21 997.645 1870.93 1002.33 1869.86C1007.3 1868.74 1012.41 1871.09 1014.8 1875.6C1017.18 1880.1 1016.24 1885.65 1012.51 1889.12C950 1947.27 835.878 2057.34 773.838 2141.17C771.87 2143.82 768.834 2145.48 765.533 2145.71C763.592 2145.84 761.32 2145.93 758.788 2145.93ZM734.842 2119.57C743.776 2122.65 752.514 2123.4 758.963 2123.38C815.995 2047.63 911.963 1952.89 975.954 1892.46C973.975 1889.46 967.608 1880.11 957.514 1868.12C901.982 1912.54 853.572 1959.08 813.516 2006.58C782.18 2043.74 755.754 2081.7 734.842 2119.57Z" class="colorc99550 svgShape"></path>
  <path fill="#474747" d="M1488.19 2544.97C1485.99 2544.97 1484.7 2544.92 1484.44 2544.91C1478.22 2544.66 1473.38 2539.4 1473.63 2533.18C1473.88 2526.96 1479.11 2522.12 1485.35 2522.37C1485.7 2522.38 1520.93 2523.54 1571.12 2509.99C1617.28 2497.53 1685.96 2469.68 1751.03 2407.82C1808.66 2353.02 1854.64 2280.36 1887.69 2191.85C1927.99 2083.91 1949.39 1951.29 1951.3 1797.67C1951.38 1791.49 1956.41 1786.53 1962.58 1786.53C1962.62 1786.53 1962.67 1786.53 1962.72 1786.53C1968.95 1786.61 1973.94 1791.72 1973.86 1797.95C1971.92 1954.38 1949.98 2089.71 1908.66 2200.18C1874.33 2291.95 1826.38 2367.46 1766.12 2424.6C1697.36 2489.8 1624.71 2519.03 1575.87 2532.07C1531.74 2543.86 1498.96 2544.97 1488.19 2544.97ZM1481.29 2140.84C1477.13 2140.84 1473.12 2138.52 1471.16 2134.52C1468.41 2128.93 1470.72 2122.17 1476.31 2119.43L1573.63 2071.66C1574.87 2062.22 1577.53 2051.58 1581.3 2040.09C1580.11 2029.16 1574.38 1979.2 1564.46 1929.08C1543.75 1824.53 1524.81 1818.01 1522.72 1817.61C1476.89 1808.85 1429.17 1782.36 1380.89 1738.87C1345.28 1706.8 1323.12 1677.59 1322.2 1676.37C1318.45 1671.39 1319.44 1664.32 1324.41 1660.57C1329.39 1656.82 1336.46 1657.81 1340.21 1662.78C1341.06 1663.91 1426.99 1776.35 1526.95 1795.45C1541.66 1798.26 1553.7 1813.31 1564.85 1842.8C1572.56 1863.19 1579.88 1890.8 1586.62 1924.84C1591.71 1950.56 1595.71 1976.22 1598.58 1996.77C1639.54 1906.96 1715.42 1797.52 1719.71 1791.36C1723.27 1786.25 1730.3 1784.99 1735.41 1788.55C1740.52 1792.11 1741.78 1799.14 1738.22 1804.25C1737.88 1804.75 1703.01 1854.93 1668.05 1914.16C1631.76 1975.66 1612.91 2016.78 1603.61 2044.2C1603.52 2044.55 1603.4 2044.89 1603.27 2045.23C1601.35 2050.98 1599.85 2056.11 1598.7 2060.7C1668.45 2034.98 1792.14 2020.46 1797.89 2019.8C1804.08 2019.08 1809.68 2023.52 1810.39 2029.71C1811.11 2035.9 1806.67 2041.5 1800.48 2042.21C1798.97 2042.39 1648.53 2060.04 1589.22 2089.15L1486.26 2139.68C1484.66 2140.46 1482.96 2140.84 1481.3 2140.84L1481.29 2140.84ZM1187.1 1916.06C1184.15 1916.06 1181.21 1914.91 1179 1912.63C1158.72 1891.7 1142.29 1848.72 1129.95 1784.5C1105.36 1778.44 1085.01 1754.67 1069.37 1713.67C1057.2 1681.76 1052.38 1650.89 1052.18 1649.59C1051.23 1643.43 1055.46 1637.67 1061.62 1636.73C1067.79 1635.79 1073.53 1640.01 1074.48 1646.16C1074.52 1646.46 1079.2 1676.25 1090.57 1705.94C1102.14 1736.15 1114.48 1751.1 1125.3 1758.04C1123.34 1745.92 1121.51 1733.16 1119.81 1719.77C1110.43 1646.09 1108.36 1579.06 1108.34 1578.39C1108.15 1572.16 1113.05 1566.97 1119.28 1566.78C1125.55 1566.59 1130.7 1571.49 1130.89 1577.72C1130.91 1578.38 1132.95 1644.47 1142.21 1717.09C1144.8 1737.43 1147.59 1755.59 1150.52 1771.81C1150.66 1772.35 1150.76 1772.9 1150.82 1773.46C1164.97 1851.01 1182.19 1883.5 1195.2 1896.93C1199.53 1901.4 1199.42 1908.54 1194.95 1912.88C1192.76 1915 1189.93 1916.06 1187.1 1916.06L1187.1 1916.06Z" class="color474747 svgShape"></path>
  <path fill="#f7f7f7" d="M1333.86 1804.6C1344.62 1804.6 1353.34 1789.29 1353.34 1770.4C1353.34 1751.51 1344.62 1736.2 1333.86 1736.2C1323.1 1736.2 1314.38 1751.51 1314.38 1770.4C1314.38 1789.29 1323.1 1804.6 1333.86 1804.6Z" class="colorf7f7f7 svgShape"></path>
  <path fill="#474747" d="M1333.86 1815.88C1316.32 1815.88 1303.1 1796.33 1303.1 1770.4C1303.1 1744.47 1316.32 1724.92 1333.86 1724.92C1351.4 1724.92 1364.62 1744.47 1364.62 1770.4C1364.62 1796.33 1351.4 1815.88 1333.86 1815.88ZM1333.86 1747.48C1332.3 1747.48 1325.66 1755.12 1325.66 1770.4C1325.66 1785.68 1332.3 1793.32 1333.86 1793.32C1335.43 1793.32 1342.06 1785.68 1342.06 1770.4C1342.06 1755.12 1335.43 1747.48 1333.86 1747.48Z" class="color474747 svgShape"></path>
  <path fill="#f7f7f7" d="M1499.33 1932.12C1510.09 1932.12 1518.81 1916.81 1518.81 1897.92C1518.81 1879.02 1510.09 1863.71 1499.33 1863.71C1488.57 1863.71 1479.85 1879.02 1479.85 1897.92C1479.85 1916.81 1488.57 1932.12 1499.33 1932.12Z" class="colorf7f7f7 svgShape"></path>
  <path fill="#474747" d="M1499.33 1943.4C1481.79 1943.4 1468.57 1923.85 1468.57 1897.92C1468.57 1871.99 1481.79 1852.43 1499.33 1852.43C1516.87 1852.43 1530.09 1871.98 1530.09 1897.92C1530.09 1923.85 1516.86 1943.4 1499.33 1943.4ZM1499.33 1874.99C1497.76 1874.99 1491.13 1882.63 1491.13 1897.91C1491.13 1913.2 1497.76 1920.84 1499.33 1920.84C1500.89 1920.84 1507.53 1913.2 1507.53 1897.91C1507.53 1882.63 1500.89 1874.99 1499.33 1874.99Z" class="color474747 svgShape"></path>
</svg>
